<?xml version="1.0" encoding="UTF-8"?>
<svg width="50px" height="50px" viewBox="0 0 50 50" version="1.1" xmlns="http://www.w3.org/2000/svg" xmlns:xlink="http://www.w3.org/1999/xlink">
    <title>Icons/Solutions/Airplane</title>
    <defs>
        <path d="M48.047168,42.4805664 C49.1258789,42.4805664 50.000293,43.3549805 50.000293,44.4336914 C50.000293,45.5124023 49.1258789,46.3868164 48.047168,46.3868164 L1.95341797,46.3868164 C0.874707031,46.3868164 0.00029296875,45.5124023 0.00029296875,44.4336914 C0.00029296875,43.3549805 0.874707031,42.4805664 1.95341797,42.4805664 L48.047168,42.4805664 Z M16.8643555,3.62001953 C18.7180664,3.71503906 20.7083008,4.50654297 22.9486328,6.03984375 C22.9729492,6.05644531 22.9967773,6.07363281 23.0202148,6.09130859 L31.9179687,12.7902344 L37.9391602,9.22880859 C37.9454102,9.22509766 37.9516602,9.22138672 37.9580078,9.21777344 C41.2813477,7.30205078 44.8727539,7.48457031 48.0705078,9.73251953 C49.3470703,10.6297852 50.0666992,12.1125977 49.9955078,13.6990234 C49.9238281,15.2962891 49.0670898,16.719043 47.7037109,17.5048828 L16.8992187,35.2621094 C15.3300781,36.1667969 13.5886719,36.6289063 11.824707,36.6289063 C10.9370117,36.6289063 10.0438477,36.5120117 9.16347656,36.2754883 C6.53388672,35.569043 4.33681641,33.8808594 2.97695312,31.521875 L0.265234375,26.8612305 C-0.277246094,25.9289063 0.0388671875,24.7333008 0.971191406,24.1908203 C1.90351562,23.6484375 3.09912109,23.9643555 3.64160156,24.8967773 L6.35722656,29.5642578 C7.19990234,31.0259766 8.55498047,32.0672852 10.1769531,32.5029297 C11.7986328,32.9387695 13.4932617,32.7166992 14.9482422,31.8779297 L45.7529297,14.1208008 C46.0433594,13.9533203 46.0875977,13.6476563 46.0931641,13.5240234 C46.099707,13.3768555 46.0736328,13.1038086 45.8242187,12.928418 C43.8890625,11.5681641 41.9017578,11.4568359 39.9174805,12.597168 L32.7817383,16.8178711 C32.1009766,17.2206055 31.2445312,17.1731445 30.6126953,16.697168 L20.7068359,9.23925781 C19.1152344,8.15507813 17.7552734,7.57705078 16.6642578,7.52119141 C16.1223633,7.49267578 15.8532227,7.83613281 15.7623047,7.98457031 C15.6669922,8.14013672 15.5421875,8.44345703 15.7030273,8.80800781 L22.090918,16.7147461 C22.1550781,16.7941406 22.2128906,16.8783203 22.2637695,16.9666992 C22.9180664,18.1017578 23.0912109,19.4237305 22.7512695,20.6889648 C22.4124023,21.950293 21.6041992,23.0047852 20.474707,23.6595703 L12.224707,28.5368164 C11.2959961,29.0857422 10.0984375,28.7780273 9.54941406,27.8494141 C9.00039062,26.9208984 9.30820312,25.7231445 10.2367187,25.1741211 L18.4945312,20.2922852 C18.5006836,20.2886719 18.5068359,20.2850586 18.5130859,20.281543 C18.7442383,20.1483398 18.9095703,19.9331055 18.9788086,19.6754883 C19.0380859,19.4545898 19.0207031,19.2253906 18.9306641,19.01875 L12.5438477,11.1133789 C12.4796875,11.0339844 12.4219727,10.9498047 12.3709961,10.8615234 C11.4749023,9.30712891 11.4974609,7.46894531 12.43125,5.94433594 C13.365918,4.41826172 15.0634766,3.52744141 16.8643555,3.62001953 Z" id="path-1"></path>
    </defs>
    <g id="Icons/Solutions/Airplane" stroke="none" stroke-width="1" fill="none" fill-rule="evenodd">
        <mask id="mask-2" fill="white">
            <use xlink:href="#path-1"></use>
        </mask>
        <use id="Combined-Shape" fill="#000000" fill-rule="nonzero" xlink:href="#path-1"></use>
        <rect id="Icon-Color" fill="#252A34" mask="url(#mask-2)" x="0" y="0" width="50.0000954" height="49.9843598"></rect>
    </g>
</svg>