<?xml version="1.0" encoding="UTF-8"?>
<svg width="50px" height="50px" viewBox="0 0 50 50" version="1.1" xmlns="http://www.w3.org/2000/svg" xmlns:xlink="http://www.w3.org/1999/xlink">
    <title>Icons/Solutions/Chat App</title>
    <defs>
        <path d="M28.6133789,2.98427949e-13 C34.2936523,2.98427949e-13 39.6421875,2.03212891 43.6736328,5.72197266 C47.753418,9.45585938 50.0001628,14.4341797 50.0001628,19.7398438 C50.0001628,20.6178711 49.9231445,21.6172852 49.7833984,22.5538086 C49.6243164,23.6207031 48.6304688,24.3569336 47.5634766,24.1973633 C46.496582,24.0381836 45.7607422,23.0443359 45.9199219,21.9774414 C46.0303711,21.2366211 46.0938477,20.4209961 46.0938477,19.7398438 C46.0938477,11.0091797 38.2521484,3.90625 28.6133789,3.90625 C18.9746094,3.90625 11.1329102,11.0091797 11.1329102,19.7398438 C11.1329102,27.3864258 18.1570313,35.5734375 28.6133789,35.5734375 C31.2114258,35.5734375 33.7125977,35.0683594 36.0473633,34.072168 C36.5444336,33.8600586 37.1072266,33.8634766 37.6017578,34.0814453 L37.6017578,34.0814453 L44.4335938,37.0930664 L42.1333008,31.4030273 C41.7290039,30.4029297 42.2120117,29.2645508 43.2121094,28.8602539 C44.2121094,28.4557617 45.3505859,28.9390625 45.7548828,29.9389648 L45.7548828,29.9389648 L49.8577148,40.0882813 C50.1556641,40.825293 49.9772461,41.6692383 49.4064453,42.2225586 C49.0344727,42.5832031 48.5442383,42.7734375 48.0464844,42.7735352 C47.7805664,42.7735352 47.5125,42.7191406 47.259082,42.6075195 L47.259082,42.6075195 L36.7804688,37.9883789 C35.4650391,38.4912109 34.1097656,38.8673828 32.7231445,39.1164063 C31.3029297,41.4522461 29.2771484,43.4301758 26.8144531,44.8700195 C24.0650391,46.4773438 20.8905273,47.3362305 17.6251953,47.3609375 C17.5772461,47.3644531 17.5292969,47.3682617 17.4804688,47.3682617 C15.2228516,47.3682617 13.0356445,46.9783203 10.9665039,46.2081055 L10.9665039,46.2081055 L2.74101563,49.834082 C2.48769531,49.9458008 2.21953125,50.0000977 1.95361328,50.0000977 C1.45585938,50.0000977 0.965722656,49.8098633 0.59375,49.4491211 C0.0229492188,48.8958008 -0.15546875,48.0517578 0.142480469,47.3148438 L0.142480469,47.3148438 L2.99521484,40.2580078 C1.03164063,37.5844727 3.25412496e-05,34.477832 3.25412496e-05,31.2036133 C3.25412496e-05,25.9621094 2.71835938,21.0959961 7.30400391,18.0592773 C7.72695313,13.3894531 9.90742188,9.05859375 13.553125,5.721875 C17.584668,2.03212891 22.9331055,2.98427949e-13 28.6133789,2.98427949e-13 Z M7.51660156,22.8827148 C5.21933594,25.1250977 3.90634766,28.0824219 3.90634766,31.2036133 C3.90634766,33.9307617 4.87851563,36.5126953 6.71787109,38.6706055 C7.18994141,39.2244141 7.31503906,39.9949219 7.04228516,40.6696289 L7.04228516,40.6696289 L5.56679688,44.3195313 L10.1407227,42.3033203 C10.6352539,42.0852539 11.1980469,42.0818359 11.6950195,42.294043 C13.4876953,43.0588867 15.4072266,43.4508789 17.4015625,43.4610352 C17.4280273,43.4599609 17.4540039,43.4570313 17.4806641,43.4570313 C21.3283203,43.4570313 24.9634766,41.9539063 27.5037109,39.453418 C22.0930664,39.1991211 17.0823242,37.0870117 13.2941406,33.4412109 C10.2499023,30.5113281 8.23183594,26.7816406 7.51660156,22.8827148 Z M28.5157227,17.8710938 C29.5944038,17.8710938 30.4688477,18.7455376 30.4688477,19.8242188 C30.4688477,20.9028999 29.5944038,21.7773438 28.5157227,21.7773438 C27.4370415,21.7773438 26.5625977,20.9028999 26.5625977,19.8242188 C26.5625977,18.7455376 27.4370415,17.8710938 28.5157227,17.8710938 Z M36.3282227,17.8710938 C37.4069038,17.8710938 38.2813477,18.7455376 38.2813477,19.8242188 C38.2813477,20.9028999 37.4069038,21.7773438 36.3282227,21.7773438 C35.2495415,21.7773438 34.3750977,20.9028999 34.3750977,19.8242188 C34.3750977,18.7455376 35.2495415,17.8710938 36.3282227,17.8710938 Z M20.7032227,17.8710938 C21.7819038,17.8710938 22.6563477,18.7455376 22.6563477,19.8242188 C22.6563477,20.9028999 21.7819038,21.7773438 20.7032227,21.7773438 C19.6245415,21.7773438 18.7500977,20.9028999 18.7500977,19.8242188 C18.7500977,18.7455376 19.6245415,17.8710938 20.7032227,17.8710938 Z" id="path-1"></path>
    </defs>
    <g id="Icons/Solutions/Chat-App" stroke="none" stroke-width="1" fill="none" fill-rule="evenodd">
        <mask id="mask-2" fill="white">
            <use xlink:href="#path-1"></use>
        </mask>
        <use id="Combined-Shape" fill="#000000" fill-rule="nonzero" xlink:href="#path-1"></use>
        <rect id="Icon-Color" fill="#252A34" mask="url(#mask-2)" x="0" y="0" width="50.0000954" height="49.9843598"></rect>
    </g>
</svg>