<?xml version="1.0" encoding="UTF-8"?>
<svg width="50px" height="50px" viewBox="0 0 50 50" version="1.1" xmlns="http://www.w3.org/2000/svg" xmlns:xlink="http://www.w3.org/1999/xlink">
    <title>Icons/Solutions/Dating App</title>
    <defs>
        <path d="M25.2929688,50 L11.71875,50 C5.25703125,50 0,44.7429688 0,38.28125 L0,11.71875 C0,5.25703125 5.25703125,0 11.71875,0 L12.3046875,0 C13.3833984,0 14.2578125,0.874414063 14.2578125,1.953125 C14.2578125,3.03183594 13.3833984,3.90625 12.3046875,3.90625 L11.71875,3.90625 C7.4109375,3.90625 3.90625,7.4109375 3.90625,11.71875 L3.90625,38.28125 C3.90625,42.5890625 7.4109375,46.09375 11.71875,46.09375 L25.2929688,46.09375 C29.6007813,46.09375 33.1054688,42.5890625 33.1054688,38.28125 L33.1054688,35.0585938 C33.1054688,33.9798828 33.9798828,33.1054688 35.0585938,33.1054688 C36.1373047,33.1054688 37.0117188,33.9798828 37.0117188,35.0585938 L37.0117188,38.28125 C37.0117188,44.7429688 31.7546875,50 25.2929688,50 Z M19.921875,27.6319336 C20.4109375,27.6319336 20.9053711,27.7295898 21.3640625,27.9579102 C23.1485352,28.8464844 25.0762695,29.2969727 27.0929688,29.2969727 L27.0996094,29.2969727 L37.059668,29.2969727 L37.0658203,29.2969727 C40.4943359,29.2969727 43.7238281,27.9766602 46.1595703,25.5793945 C48.602832,23.1746094 49.9665039,19.9617188 49.9994141,16.5324219 C49.9995117,16.5261719 49.9995117,16.5199219 49.9995117,16.5136719 L49.9995117,13.0071289 C50.0303711,9.53017578 48.7069336,6.26220703 46.2722656,3.80410156 C43.8424805,1.35107422 40.5884766,3.55271368e-15 37.109375,3.55271368e-15 L27.1484375,3.55271368e-15 C23.6929687,3.55271368e-15 20.443457,1.35957031 17.9984375,3.82822266 C15.5560547,6.29414063 14.228125,9.55332031 14.2583984,13.0061523 L14.2578125,27.3436523 C14.2578125,28.1336914 14.7335938,28.8458984 15.4634766,29.1482422 C15.7052734,29.2483398 15.9588867,29.2969727 16.2104492,29.2969727 C17.6757812,29.2969727 18.5546875,27.6319336 19.921875,27.6319336 Z M18.164131,23.9624023 C18.164131,23.9624023 18.1646484,12.9855469 18.1645508,12.9792969 C18.1415039,10.5728516 19.0680664,8.29921875 20.7738281,6.57695313 C22.4795898,4.85478516 24.743457,3.90625 27.1484375,3.90625 L37.109375,3.90625 C39.5379883,3.90625 41.8064453,4.84619141 43.496875,6.55302734 C45.1945312,8.26708984 46.1166016,10.5493164 46.0933594,12.9793945 C46.0932617,12.9856445 46.0932617,16.5037109 46.0932617,16.5037109 C46.0413086,21.4057617 41.9941406,25.390625 37.0647461,25.390625 C37.0635742,25.390625 37.0618164,25.390625 37.0605469,25.390625 L27.0986328,25.390625 C27.0969727,25.390625 27.0956055,25.390625 27.0939453,25.390625 C25.6859375,25.390625 24.34375,25.077832 23.1049805,24.4611328 C22.1091797,23.965332 21.0390625,23.7243164 19.9772461,23.7243164 C19.3647461,23.7243164 18.7550781,23.8044922 18.164131,23.9624023 Z M21.09375,39.2578125 C21.09375,40.6061523 20.0006836,41.6992188 18.6523438,41.6992188 C17.3040039,41.6992188 16.2109375,40.6061523 16.2109375,39.2578125 C16.2109375,37.9094727 17.3040039,36.8164062 18.6523438,36.8164062 C20.0006836,36.8164062 21.09375,37.9094727 21.09375,39.2578125 Z M32.0800781,22.0654297 C31.0567383,22.0654297 30.0335937,21.7430664 29.1796875,21.0982422 C25.9649414,18.6706055 24.2328125,15.7396484 24.1703125,12.6224609 C24.1699219,12.6094727 24.1699219,12.5963867 24.1699219,12.5833984 C24.1699219,9.84501953 26.3822266,7.6171875 29.1015625,7.6171875 C30.2295898,7.6171875 31.2578125,7.97402344 32.0800781,8.58242187 C32.9023438,7.97402344 33.9305664,7.6171875 35.0585938,7.6171875 C37.7779297,7.6171875 39.9902344,9.84501953 39.9902344,12.5833984 C39.9902344,12.5963867 39.9902344,12.6094727 39.9898437,12.6224609 C39.9273437,15.7396484 38.1952148,18.6706055 34.9804688,21.0982422 C34.1266602,21.7430664 33.103418,22.0654297 32.0800781,22.0654297 Z M28.0762695,12.5669922 C28.1351562,14.9275391 29.9873047,16.8131836 31.5336914,17.980957 C31.8552734,18.2238281 32.3046875,18.2238281 32.6263672,17.980957 C34.1727539,16.8131836 36.025,14.9275391 36.0837891,12.5669922 C36.0753906,11.9900391 35.6186523,11.5234375 35.0585938,11.5234375 C34.4644531,11.5234375 34.0332031,11.9341797 34.0332031,12.5 C34.0332031,13.5787109 33.1587891,14.453125 32.0800781,14.453125 C31.0013672,14.453125 30.1269531,13.5787109 30.1269531,12.5 C30.1269531,11.9341797 29.6957031,11.5234375 29.1015625,11.5234375 C28.5415039,11.5234375 28.0847656,11.9900391 28.0762695,12.5669922 Z" id="path-1"></path>
    </defs>
    <g id="Icons/Solutions/Dating-App" stroke="none" stroke-width="1" fill="none" fill-rule="evenodd">
        <mask id="mask-2" fill="white">
            <use xlink:href="#path-1"></use>
        </mask>
        <use id="Shape" fill="#000000" fill-rule="nonzero" xlink:href="#path-1"></use>
        <rect id="Icon-Color" fill="#252A34" mask="url(#mask-2)" x="0" y="0" width="50.0000954" height="49.9843598"></rect>
    </g>
</svg>