<?xml version="1.0" encoding="UTF-8"?>
<svg width="50px" height="50px" viewBox="0 0 50 50" version="1.1" xmlns="http://www.w3.org/2000/svg" xmlns:xlink="http://www.w3.org/1999/xlink">
    <title>Icons/Solutions/Fitness App</title>
    <defs>
        <path d="M7.24794922,21.5802734 C8.74287109,21.5802734 10.1483398,22.1625 11.2053711,23.2195312 L11.2053711,23.2195312 L11.2133789,23.2275391 L26.7791016,38.9761719 C28.9567383,41.1586914 28.9553711,44.7058594 26.7748047,46.8864258 C25.6836914,47.9775391 24.2505859,48.5230469 22.8173828,48.5230469 C21.4320313,48.5230469 20.0475586,48.0116211 18.9711914,46.9920898 C18.7269531,47.4578125 18.4143555,47.8960937 18.0310547,48.2904297 C16.9572266,49.3950195 15.5150391,49.9998047 13.9984375,49.9998047 C13.7828125,49.9998047 13.5660156,49.9875977 13.3483398,49.9628906 C12.0873047,49.8196289 10.8980469,49.2457031 9.99960938,48.3470703 L9.99960938,48.3470703 L7.20585938,45.5371094 L5.27792969,47.4625977 C4.89658203,47.843457 4.39707031,48.0337891 3.89765625,48.0337891 C3.39726563,48.0337891 2.89707031,47.8427734 2.515625,47.4608398 C1.75341797,46.6977539 1.75419922,45.4609375 2.51738281,44.6986328 L2.51738281,44.6986328 L4.4515625,42.7667969 L1.63896484,39.937793 C-0.525,37.7740234 -0.550195312,34.2217773 1.58691406,32.0234375 C2.03007813,31.5676758 2.53671875,31.1978516 3.08681641,30.9192383 C1.1109375,28.7249023 1.17880859,25.3313477 3.290625,23.2194336 C4.34765625,22.1624023 5.75302734,21.5802734 7.24794922,21.5802734 Z M5.63115234,34.2214844 L5.61855469,34.2214844 C5.15097656,34.2248047 4.71396484,34.4111328 4.38818359,34.7463867 C3.73144531,35.4219727 3.73916016,36.5135742 4.40537109,37.1796875 L4.40537109,37.1796875 L12.7660156,45.5890625 C13.1160156,45.9390625 13.5160156,46.0503906 13.7892578,46.0814453 C14.3277344,46.1425781 14.8530273,45.9552734 15.2299805,45.5675781 C15.7938477,44.9875 15.8664063,44.1015625 15.4544922,43.440918 L15.4544922,43.440918 L6.73378906,34.6177734 C6.42617188,34.3621094 6.03974609,34.2214844 5.63115234,34.2214844 L5.63115234,34.2214844 Z M7.24785156,25.4866211 C6.79648438,25.4866211 6.37216797,25.6623047 6.05292969,25.981543 C5.39404297,26.6405273 5.39404297,27.712793 6.05292969,28.3716797 L6.05292969,28.3716797 L21.6253906,44.1272461 C22.2845703,44.7830078 23.3544922,44.7820313 24.0124023,44.1241211 C24.6713867,43.4652344 24.6713867,42.3929688 24.0124023,41.7338867 L24.0124023,41.7338867 L24.0043945,41.7258789 L8.43984375,25.9785156 C8.12089844,25.6612305 7.69775391,25.4866211 7.24785156,25.4866211 Z M32.0237305,1.58671875 C34.2220703,-0.550292969 37.7742188,-0.525195313 39.9421875,1.64257812 L39.9421875,1.64257812 L42.7670898,4.45136719 L44.6989258,2.5171875 C45.4611328,1.75390625 46.6978516,1.75332031 47.4611328,2.51552734 C48.2244141,3.27773437 48.2251953,4.51455078 47.4628906,5.27773437 L47.4628906,5.27773437 L45.5374023,7.20566406 L48.3435547,9.99560547 C49.2462891,10.8980469 49.8200195,12.0874023 49.9631836,13.3480469 C50.1619141,15.0975586 49.5523438,16.8042969 48.2908203,18.0306641 C47.2019531,19.0890625 45.7807617,19.6170898 44.3605469,19.6171875 C42.9129883,19.6173828 41.4664063,19.0689453 40.372168,17.9748047 L40.372168,17.9748047 L28.4633789,6.15634766 C28.1380859,5.83105469 27.7137695,5.65527344 27.2623047,5.65527344 C26.8109375,5.65527344 26.3865234,5.83105469 26.0672852,6.15029297 C25.7480469,6.46953125 25.5722656,6.89384766 25.5722656,7.3453125 C25.5722656,7.79677734 25.7480469,8.22109375 26.0672852,8.54033203 L26.0672852,8.54033203 L41.5400391,24.1108398 C41.8549805,24.4256836 42.2793945,24.6014648 42.7307617,24.6014648 C43.1822266,24.6014648 43.606543,24.4257812 43.9257813,24.106543 C44.6885742,23.34375 45.9253906,23.34375 46.6880859,24.1064453 C47.4507813,24.8691406 47.4507813,26.1058594 46.6880859,26.8686523 C45.630957,27.9257812 44.2255859,28.5079102 42.7306641,28.5079102 C41.2358398,28.5079102 39.8303711,27.9256836 38.7733398,26.8686523 L38.7733398,26.8686523 L32.3446289,20.3993164 L22.9650391,29.8036133 C22.5833984,30.1862305 22.0827148,30.3775391 21.5820313,30.3775391 C21.0829102,30.3775391 20.5838867,30.1875 20.2026367,29.8073242 C19.4388672,29.0455078 19.4373047,27.8087891 20.1990234,27.0451172 L20.1990234,27.0451172 L29.5910156,17.628418 L23.3007813,11.2983398 C22.2480469,10.2456055 21.665918,8.84013672 21.665918,7.3453125 C21.665918,5.85048828 22.2481445,4.44492187 23.3051758,3.38798828 C24.362207,2.33095703 25.7675781,1.74882812 27.2625,1.74882812 C28.6164063,1.74882812 29.8961914,2.22792969 30.9109375,3.10341797 C31.1904297,2.54677734 31.5633789,2.03427734 32.0237305,1.58671875 Z M43.2640579,15.3280865 C43.9386972,15.8765088 44.9353343,15.844583 45.5678711,15.2297852 C45.9554688,14.852832 46.1427734,14.3276367 46.0816406,13.7888672 C46.0505859,13.5157227 45.9392578,13.1158203 45.5852539,12.7618164 L45.5852539,12.7618164 L37.1838867,4.40898437 C36.8451172,4.0703125 36.3987305,3.90087891 35.952832,3.90087891 C35.5165039,3.90087891 35.0806641,4.06308594 34.746582,4.38789062 C34.4114258,4.71367187 34.225,5.15058594 34.2217323,5.61826172 C34.218457,6.08574219 34.3987305,6.52519531 34.7292969,6.85576172 L34.7292969,6.85576172 L43.1305664,15.2084961 C43.140918,15.2188477 43.1429688,15.2204102 43.1415039,15.218457 L43.1372261,15.2147934 C43.1054261,15.1790934 43.1387261,15.2141934 43.1428261,15.2198934 L43.1428261,15.2198934 Z" id="path-1"></path>
    </defs>
    <g id="Icons/Solutions/Fitness-App" stroke="none" stroke-width="1" fill="none" fill-rule="evenodd">
        <mask id="mask-2" fill="white">
            <use xlink:href="#path-1"></use>
        </mask>
        <use id="Combined-Shape" fill="#000000" fill-rule="nonzero" xlink:href="#path-1"></use>
        <rect id="Icon-Color" fill="#252A34" mask="url(#mask-2)" x="0" y="0" width="50.0000954" height="49.9843598"></rect>
    </g>
</svg>