<?xml version="1.0" encoding="UTF-8"?>
<svg width="50px" height="50px" viewBox="0 0 50 50" version="1.1" xmlns="http://www.w3.org/2000/svg" xmlns:xlink="http://www.w3.org/1999/xlink">
    <title>Icons/Solutions/Food Delivery</title>
    <defs>
        <path d="M44.0242768,27.5218964 L42.906189,21.8322754 C42.5998687,20.2354432 42.0711518,19.0158844 41.2906646,18.1045532 C40.283966,16.9296265 38.8721466,16.3085938 37.2070312,16.3085938 L30.6640625,16.3085938 L30.6640625,8.48617559 C30.6640625,7.4073791 29.7897339,6.53305059 28.7109375,6.53305059 L23.9257812,6.53305059 C22.8469849,6.53305059 21.9726562,7.4073791 21.9726562,8.48617559 C21.9726562,9.56497188 22.8469849,10.4393006 23.9257812,10.4393006 L26.7578125,10.4393006 L26.7578125,27.4414062 L9.765625,27.4414062 C8.68682861,27.4414062 7.8125,28.3157349 7.8125,29.3945313 C7.8125,30.4733276 8.68682861,31.3476562 9.765625,31.3476562 L42.2851562,31.3476562 C42.4663544,31.3476562 42.640686,31.3209533 42.8070068,31.275177 C44.6540832,31.4865112 46.09375,33.0581665 46.09375,34.9609375 L46.09375,40.0390625 L41.8514252,40.0390625 C41.0453797,37.7658844 38.8744354,36.1328125 36.328125,36.1328125 C33.7818146,36.1328125 31.6108703,37.7658844 30.8048248,40.0390625 L18.7068939,40.0390625 C17.9008484,37.7658844 15.7299042,36.1328125 13.1835938,36.1328125 C10.6388092,36.1328125 8.46900938,37.7639771 7.66143799,40.0352479 C5.57746885,39.9555206 3.90625,38.2362365 3.90625,36.1328125 L3.90625,24.5117188 C3.90625,23.4329224 3.03192139,22.5585938 1.953125,22.5585938 C0.874328613,22.5585938 3.55271368e-15,23.4329224 3.55271368e-15,24.5117188 L3.55271368e-15,36.1328125 C3.55271368e-15,40.3892518 3.4217834,43.8591004 7.65876768,43.9414979 C8.46405029,46.2165832 10.6361389,47.8515625 13.1835938,47.8515625 C15.7299042,47.8515625 17.9008484,46.2184906 18.7068939,43.9453125 L30.8048248,43.9453125 C31.6108703,46.2184906 33.7818146,47.8515625 36.328125,47.8515625 C38.8744354,47.8515625 41.0453797,46.2184906 41.8514252,43.9453125 L48.046875,43.9453125 C49.1256714,43.9453125 50,43.0709839 50,41.9921875 L50,34.9609375 C50,31.3243866 47.4380493,28.2745361 44.0242768,27.5218964 Z M30.6640625,20.2148438 L37.2070312,20.2148438 C37.8032685,20.2148438 38.6196137,20.2148438 39.0705108,22.5719452 C39.0708924,22.574997 39.0716553,22.5780487 39.0724182,22.5814819 L40.0276184,27.4414062 L30.6640625,27.4414062 L30.6640625,20.2148438 Z M13.1835938,43.9453125 C12.1067047,43.9453125 11.2304688,43.0690766 11.2304688,41.9921875 C11.2304688,40.9152984 12.1067047,40.0390625 13.1835938,40.0390625 C14.2604828,40.0390625 15.1367188,40.9152984 15.1367188,41.9921875 C15.1367188,43.0690766 14.2604828,43.9453125 13.1835938,43.9453125 Z M36.328125,43.9453125 C35.2512359,43.9453125 34.375,43.0690766 34.375,41.9921875 C34.375,40.9152984 35.2512359,40.0390625 36.328125,40.0390625 C37.4050141,40.0390625 38.28125,40.9152984 38.28125,41.9921875 C38.28125,43.0690766 37.4050141,43.9453125 36.328125,43.9453125 Z M1.953125,18.6584473 L20.8984375,18.6584473 C21.9772339,18.6584473 22.8515625,17.7841187 22.8515625,16.7053223 C22.8515625,15.6265259 21.9772339,14.7521973 20.8984375,14.7521973 L20.223999,14.7521973 C20.1229096,9.93919375 16.1766053,6.0546875 11.3395691,6.0546875 C6.50291445,6.0546875 2.55622861,9.93919375 2.45513916,14.7521973 L1.953125,14.7521973 C0.874328613,14.7521973 0,15.6265259 0,16.7053223 C0,17.7841187 0.874328613,18.6584473 1.953125,18.6584473 Z M11.3395691,9.9609375 C14.0224457,9.9609375 16.2155151,12.0933533 16.3154602,14.7521973 L6.36405947,14.7521973 C6.46400449,12.0933533 8.65669248,9.9609375 11.3395691,9.9609375 Z M9.375,4.1015625 C9.375,3.02276611 10.2493286,2.1484375 11.328125,2.1484375 C12.4069214,2.1484375 13.28125,3.02276611 13.28125,4.1015625 C13.28125,5.18035889 12.4069214,6.0546875 11.328125,6.0546875 C10.2493286,6.0546875 9.375,5.18035889 9.375,4.1015625 Z" id="path-1"></path>
    </defs>
    <g id="Icons/Solutions/Food-Delivery" stroke="none" stroke-width="1" fill="none" fill-rule="evenodd">
        <mask id="mask-2" fill="white">
            <use xlink:href="#path-1"></use>
        </mask>
        <use id="Shape" fill="#000000" fill-rule="nonzero" xlink:href="#path-1"></use>
        <rect id="Icon-Color" fill="#252A34" mask="url(#mask-2)" x="0" y="0" width="50.0000954" height="49.9843598"></rect>
    </g>
</svg>