<?xml version="1.0" encoding="UTF-8"?>
<svg width="50px" height="50px" viewBox="0 0 50 50" version="1.1" xmlns="http://www.w3.org/2000/svg" xmlns:xlink="http://www.w3.org/1999/xlink">
    <title>Icons/Solutions/Job Finding</title>
    <defs>
        <path d="M46.0792541,23.6255646 L46.0792541,27.6279449 C46.0792541,28.7063599 46.9532013,29.5806885 48.0316162,29.5806885 C49.1100312,29.5806885 49.9839783,28.7063599 49.9839783,27.6279449 L49.9839783,15.7215118 C49.9839783,11.4151001 46.4805604,7.91130068 42.1741485,7.91130068 L33.7711334,7.91130068 L33.7711334,5.36575313 C33.7711334,2.40707402 31.3640595,2.77555756e-15 28.4053803,2.77555756e-15 L21.578598,2.77555756e-15 C18.6199188,2.77555756e-15 16.2128448,2.40707402 16.2128448,5.36575313 L16.2128448,7.91130068 L7.80982969,7.91130068 C3.50341797,7.91130068 2.77555756e-15,11.4147187 2.77555756e-15,15.7211304 L2.77555756e-15,38.4677887 C2.77555756e-15,42.7742004 3.50341797,46.2779999 7.80982969,46.2779999 L24.3087769,46.2779999 C25.3871918,46.2779999 26.2611389,45.4036713 26.2611389,44.3252563 C26.2611389,43.2472229 25.3871918,42.3728943 24.3087769,42.3728943 L7.80982969,42.3728943 C5.65681455,42.3728943 3.90510557,40.6211854 3.90510557,38.4677887 L3.90510557,23.6255646 L23.1372833,23.6255646 L23.1372833,26.5579224 C23.1372833,27.6359559 24.0112305,28.5102844 25.0896454,28.5102844 C26.1680604,28.5102844 27.0420074,27.6359559 27.0420074,26.5579224 L27.0420074,23.6255646 L46.0792541,23.6255646 Z M20.1179504,5.36575313 C20.1179504,4.56047061 20.7733154,3.90510557 21.578598,3.90510557 L28.4053803,3.90510557 C29.2106629,3.90510557 29.8660278,4.56008906 29.8660278,5.36575313 L29.8660278,7.91130068 L20.1179504,7.91130068 L20.1179504,5.36575313 Z M3.90510557,15.7215118 C3.90510557,13.5681152 5.65681455,11.8164063 7.80982969,11.8164063 L42.1741485,11.8164063 C44.3271637,11.8164063 46.0792541,13.5681152 46.0792541,15.7215118 L46.0792541,19.720459 L3.90510557,19.720459 L3.90510557,15.7215118 Z M49.4281769,46.6510772 L44.9302674,42.1531678 C45.7813263,40.8004761 46.2741852,39.2009735 46.2741852,37.4881744 C46.2741852,32.6435089 42.3328399,28.7017822 37.4881744,28.7017822 C32.6435089,28.7017822 28.7017822,32.6435089 28.7017822,37.4881744 C28.7017822,42.3328399 32.6435089,46.2745666 37.4881744,46.2745666 C39.2089844,46.2745666 40.8157349,45.7767486 42.1726227,44.9180604 L46.6667176,49.4121552 C47.0481873,49.7936249 47.5479126,49.9843598 48.0476379,49.9843598 C48.5473633,49.9843598 49.0467071,49.7936249 49.4281769,49.4121552 C50.1907349,48.6495972 50.1907349,47.4136353 49.4281769,46.6510772 Z M32.6068878,37.4881744 C32.6068878,34.796524 34.796524,32.6068878 37.4881744,32.6068878 C40.1794434,32.6068878 42.369461,34.796524 42.369461,37.4881744 C42.369461,40.1798248 40.1794434,42.369461 37.4881744,42.369461 C34.796524,42.369461 32.6068878,40.1794434 32.6068878,37.4881744 Z" id="path-1"></path>
    </defs>
    <g id="Icons/Solutions/Job-Finding" stroke="none" stroke-width="1" fill="none" fill-rule="evenodd">
        <mask id="mask-2" fill="white">
            <use xlink:href="#path-1"></use>
        </mask>
        <use id="Shape" fill="#000000" fill-rule="nonzero" xlink:href="#path-1"></use>
        <rect id="Icon-Color" fill="#252A34" mask="url(#mask-2)" x="0" y="0" width="50.0000954" height="49.9843598"></rect>
    </g>
</svg>