<?xml version="1.0" encoding="UTF-8"?>
<svg width="50px" height="50px" viewBox="0 0 50 50" version="1.1" xmlns="http://www.w3.org/2000/svg" xmlns:xlink="http://www.w3.org/1999/xlink">
    <title>Icons/Solutions/Online Grocery</title>
    <defs>
        <path d="M49.8432617,14.9164062 L45.5029297,4.74599609 C44.2725586,1.86289063 41.4520508,0 38.3173828,0 L11.6826172,0 C8.54794922,0 5.72753906,1.86289063 4.49707031,4.74599609 L0.156738281,14.9164062 C0.0533203125,15.1587891 0,15.4195312 0,15.6830078 L0,18.2220703 C0,20.8919922 1.60830078,23.1920898 3.90625,24.2082031 L3.90625,42.1875 C3.90625,46.4953125 7.4109375,50 11.71875,50 L38.28125,50 C42.5890625,50 46.09375,46.4953125 46.09375,42.1875 C46.09375,41.1087891 45.2193359,40.234375 44.140625,40.234375 C43.0619141,40.234375 42.1875,41.1087891 42.1875,42.1875 C42.1875,44.3414062 40.4351562,46.09375 38.28125,46.09375 L11.71875,46.09375 C9.56484375,46.09375 7.8125,44.3414062 7.8125,42.1875 L7.8125,24.6404297 C9.09189453,24.387793 10.2381836,23.7613281 11.1328125,22.8794922 C11.3175781,23.0616211 11.5135742,23.2322266 11.71875,23.3915039 L11.71875,36.0351562 C11.71875,37.1138672 12.5931641,37.9882812 13.671875,37.9882812 L36.328125,37.9882812 C37.4068359,37.9882812 38.28125,37.1138672 38.28125,36.0351562 L38.28125,23.3915039 C38.4864258,23.2322266 38.6824219,23.0616211 38.8671875,22.8794922 C39.7618164,23.7613281 40.9081055,24.387793 42.1875,24.6404297 L42.1875,32.421875 C42.1875,33.5005859 43.0619141,34.375 44.140625,34.375 C45.2193359,34.375 46.09375,33.5005859 46.09375,32.421875 L46.09375,24.2083008 C48.3916992,23.1920898 50,20.8920898 50,18.222168 L50,15.6831055 C50,15.4195312 49.9466797,15.1587891 49.8432617,14.9164062 Z M9.1796875,18.2220703 C9.1796875,19.6759766 7.996875,20.8587891 6.54296875,20.8587891 C5.0890625,20.8587891 3.90625,19.6759766 3.90625,18.2220703 L3.90625,17.578125 L9.1796875,17.578125 L9.1796875,18.2220703 Z M13.0859375,18.2220703 L13.0859375,17.578125 L18.359375,17.578125 L18.359375,18.2220703 C18.359375,19.6759766 17.1765625,20.8587891 15.7226562,20.8587891 C14.26875,20.8587891 13.0859375,19.6759766 13.0859375,18.2220703 Z M34.375,34.0820312 L15.625,34.0820312 L15.625,24.7625977 C15.6576172,24.7630859 15.6899414,24.7650391 15.7226562,24.7650391 C17.5239258,24.7650391 19.1575195,24.0332031 20.3417969,22.8514648 C21.5414063,24.0336914 23.1866211,24.7650391 25,24.7650391 C26.8133789,24.7650391 28.4585937,24.0336914 29.6582031,22.8514648 C30.8425781,24.0332031 32.4760742,24.7650391 34.2773438,24.7650391 C34.3100586,24.7650391 34.3423828,24.7629883 34.375,24.7625977 L34.375,34.0820312 Z M22.265625,18.1244141 L22.265625,17.578125 L27.734375,17.578125 L27.734375,18.1244141 C27.734375,19.6321289 26.5077148,20.8587891 25,20.8587891 C23.4922852,20.8587891 22.265625,19.6321289 22.265625,18.1244141 Z M36.9140625,18.2220703 C36.9140625,19.6759766 35.73125,20.8587891 34.2773438,20.8587891 C32.8234375,20.8587891 31.640625,19.6759766 31.640625,18.2220703 L31.640625,17.578125 L36.9140625,17.578125 L36.9140625,18.2220703 Z M4.93496094,13.671875 L8.08984375,6.27919922 C8.70507813,4.83769531 10.115332,3.90625 11.6826172,3.90625 L38.3173828,3.90625 C39.884668,3.90625 41.2949219,4.83769531 41.9101562,6.27919922 L45.0650391,13.671875 L4.93496094,13.671875 Z M46.09375,18.2220703 C46.09375,19.6759766 44.9109375,20.8587891 43.4570312,20.8587891 C42.003125,20.8587891 40.8203125,19.6759766 40.8203125,18.2220703 L40.8203125,17.578125 L46.09375,17.578125 L46.09375,18.2220703 Z" id="path-1"></path>
    </defs>
    <g id="Icons/Solutions/Online-Grocery" stroke="none" stroke-width="1" fill="none" fill-rule="evenodd">
        <mask id="mask-2" fill="white">
            <use xlink:href="#path-1"></use>
        </mask>
        <use id="Shape" fill="#000000" fill-rule="nonzero" xlink:href="#path-1"></use>
        <rect id="Icon-Color" fill="#252A34" mask="url(#mask-2)" x="0" y="0" width="50.0000954" height="49.9843598"></rect>
    </g>
</svg>