<?xml version="1.0" encoding="UTF-8"?>
<svg width="50px" height="50px" viewBox="0 0 50 50" version="1.1" xmlns="http://www.w3.org/2000/svg" xmlns:xlink="http://www.w3.org/1999/xlink">
    <title>Icons/Solutions/Online Learning</title>
    <defs>
        <path d="M0.709375,11.5953126 C1.15927734,10.6150391 2.31865234,10.1847657 3.29921875,10.634961 C4.27958984,11.0848633 4.70947266,12.2444336 4.25957031,13.2248047 C4.02519531,13.7354493 3.90634766,14.2828126 3.90634766,14.8514649 L3.90634766,14.8514649 L3.90634766,34.3827149 C3.90634766,36.5366211 5.65869141,38.2889649 7.81259766,38.2889649 L7.81259766,38.2889649 L42.1875977,38.2889649 C44.3415039,38.2889649 46.0938477,36.5366211 46.0938477,34.3827149 C46.0938477,33.304004 46.9682617,32.4295899 48.0469727,32.4295899 C49.1256836,32.4295899 50,33.3041016 50,34.3827149 C50,38.6905274 46.4953125,42.1952149 42.1875,42.1952149 L42.1875,42.1952149 L26.953125,42.1952149 L26.953125,46.0895508 L33.7890625,46.0895508 C34.8677734,46.0895508 35.7421875,46.9639649 35.7421875,48.0426758 C35.7421875,49.1213868 34.8677734,49.9958008 33.7890625,49.9958008 L33.7890625,49.9958008 L16.2109375,49.9958008 C15.1322266,49.9958008 14.2578125,49.1213868 14.2578125,48.0426758 C14.2578125,46.9639649 15.1322266,46.0895508 16.2109375,46.0895508 L16.2109375,46.0895508 L23.046875,46.0895508 L23.046875,42.1952149 L7.8125,42.1952149 C3.5046875,42.1952149 0,38.6905274 0,34.3827149 L0,34.3827149 L0,14.8514649 C0,13.7163086 0.238671875,12.6207032 0.709375,11.5953126 Z M21.64375,0.619433647 C23.9296875,-0.20068354 26.5472656,-0.200585884 28.8290039,0.617968803 L28.8290039,0.617968803 L40.6969727,4.93535162 C42.2757813,5.50166021 43.2617188,6.76943365 43.2617188,8.24082037 C43.2617188,9.71220708 42.2757813,10.9798829 40.6888672,11.5490235 L40.6888672,11.5490235 L36.1591797,13.1741211 C36.5291016,14.2795899 37.3047852,17.3063477 37.3047852,23.2499024 C37.3047852,24.2551758 36.5416992,25.0961915 35.5413086,25.1937501 C35.4993164,25.1980469 30.9919922,25.6837891 26.4694336,28.362793 C26.115332,28.6584961 25.6692383,28.8166016 25.2157227,28.8166016 C25.2089844,28.8166016 25.2021484,28.815918 25.1954102,28.815918 C25.1886719,28.8160157 25.1818359,28.8166016 25.1750977,28.8166016 C24.7213867,28.8166016 24.2751953,28.6583985 23.9210938,28.3625977 C19.3628906,25.6610352 14.8949219,25.1982422 14.8494141,25.1937501 C13.8489258,25.0961915 13.0859375,24.2551758 13.0859375,23.2499024 C13.0859375,17.2878907 13.8665039,14.2606446 14.2350586,13.1636719 L14.2350586,13.1636719 L11.0351562,12.0239258 L11.0351562,16.5116211 C11.0351562,17.5903321 10.1607422,18.4647461 9.08203125,18.4647461 C8.00332031,18.4647461 7.12890625,17.5903321 7.12890625,16.5116211 L7.12890625,16.5116211 L7.12890625,8.0155274 C7.12890625,7.74130865 7.1859375,7.48066412 7.28798828,7.24375005 C7.62617187,6.21230474 8.48779297,5.36787115 9.70195312,4.93242193 L9.70195312,4.93242193 Z M46.7008789,10.634961 C47.6811523,10.1851563 48.8407227,10.6150391 49.2907227,11.5953126 C49.7613281,12.6208008 50,13.7163086 50,14.8514649 L50,14.8514649 L50,24.6170899 C50,25.6958008 49.1255859,26.5702149 48.046875,26.5702149 C46.9681641,26.5702149 46.09375,25.6958008 46.09375,24.6170899 L46.09375,24.6170899 L46.09375,14.8514649 C46.09375,14.2828126 45.9749023,13.7354493 45.7405273,13.2248047 C45.290625,12.2445313 45.7205078,11.084961 46.7008789,10.634961 Z M17.9166016,14.4750001 C17.7094727,15.1241211 17.1358398,17.2837891 17.0147461,21.5953126 C18.8793945,21.9751954 21.9717773,22.8153321 25.1953125,24.5921876 C28.4188477,22.8152344 31.5112305,21.9751954 33.3758789,21.5953126 C33.255957,17.3275391 32.6924805,15.1670899 32.4800781,14.4941407 L32.4800781,14.4941407 L28.8291016,15.8039063 L28.4456769,15.9327545 C27.4158083,16.2561428 26.3270833,16.4178711 25.2382813,16.4178711 C24.0134766,16.4178711 22.7886719,16.2131836 21.6476563,15.8039063 L21.6476563,15.8039063 Z M27.5017578,4.29179693 C26.0876953,3.78437505 24.3890625,3.78447271 22.9666992,4.29472662 L22.9666992,4.29472662 L18.0724609,6.0624024 L25.3694336,6.0624024 C26.4481445,6.0624024 27.3225586,6.93681646 27.3225586,8.0155274 C27.3225586,9.09423833 26.4481445,9.9686524 25.3694336,9.9686524 L25.3694336,9.9686524 L16.9068359,9.9686524 L22.9625,12.1254883 C24.3892578,12.6374024 26.0876953,12.6372071 27.5100586,12.1270508 L27.5100586,12.1270508 L38.3498047,8.2382813 Z" id="path-1"></path>
    </defs>
    <g id="Icons/Solutions/Online-Learning" stroke="none" stroke-width="1" fill="none" fill-rule="evenodd">
        <mask id="mask-2" fill="white">
            <use xlink:href="#path-1"></use>
        </mask>
        <use id="Combined-Shape" fill="#000000" fill-rule="nonzero" xlink:href="#path-1"></use>
        <rect id="Icon-Color" fill="#252A34" mask="url(#mask-2)" x="0" y="0" width="50.0000954" height="49.9843598"></rect>
    </g>
</svg>