<?xml version="1.0" encoding="UTF-8"?>
<svg width="50px" height="50px" viewBox="0 0 50 50" version="1.1" xmlns="http://www.w3.org/2000/svg" xmlns:xlink="http://www.w3.org/1999/xlink">
    <title>Icons/Solutions/Online Shop</title>
    <defs>
        <path d="M1.953125,0.0001953125 C7.28339844,0.0001953125 11.8259766,3.98564453 12.5193359,9.27070312 L12.5193359,9.27070312 L12.5245117,9.31347656 L14.8378906,30.5664062 L29.1990234,30.5664062 C30.2777344,30.5664062 31.1521484,31.4408203 31.1521484,32.5195312 C31.1521484,33.5982422 30.2777344,34.4726562 29.1990234,34.4726562 L29.1990234,34.4726562 L13.3788086,34.4726562 C12.3018555,34.4726562 11.4256836,35.3488281 11.4256836,36.4257812 C11.4256836,36.4422852 11.4236328,36.4582031 11.4232422,36.4746094 C11.4236328,36.4910156 11.4256836,36.5069336 11.4256836,36.5234375 C11.4256836,37.6003906 12.3018555,38.4765625 13.3788086,38.4765625 L13.3788086,38.4765625 L38.9645508,38.4765625 C42.1416016,38.4764648 44.7263672,41.0611328 44.7263672,44.2381836 C44.7263672,47.4152344 42.1416992,49.9999023 38.9646484,49.9999023 C35.7875977,49.9999023 33.2029297,47.4152344 33.2029297,44.2381836 C33.2029297,43.5890625 33.3124023,42.9654297 33.5112305,42.3827148 L33.5112305,42.3827148 L25.0822266,42.3827148 C25.2810547,42.9654297 25.3905273,43.5890625 25.3905273,44.2381836 C25.3905273,47.4152344 22.8058594,49.9999023 19.6288086,49.9999023 C16.4517578,49.9999023 13.8670898,47.4152344 13.8670898,44.2381836 C13.8670898,43.5890625 13.9765625,42.9654297 14.1753906,42.3827148 L14.1753906,42.3827148 L13.3788086,42.3827148 C10.1479492,42.3827148 7.51943359,39.7541992 7.51943359,36.5233398 C7.51943359,36.5068359 7.52148437,36.490918 7.521875,36.4745117 C7.52148437,36.4581055 7.51943359,36.4421875 7.51943359,36.4256836 C7.51943359,34.0549805 8.93544922,32.0101562 10.9654297,31.0885742 L10.9654297,31.0885742 L8.64365234,9.75869141 C8.19560547,6.42099609 5.32285156,3.90644531 1.953125,3.90644531 C0.874414062,3.90644531 -5.54223334e-13,3.03203125 -5.54223334e-13,1.95332031 C-5.54223334e-13,0.874609375 0.874414062,0.0001953125 1.953125,0.0001953125 Z M19.6287109,42.3826172 C18.6055664,42.3826172 17.7732422,43.2149414 17.7732422,44.2380859 C17.7732422,45.2612305 18.6055664,46.0935547 19.6287109,46.0935547 C20.6518555,46.0935547 21.4841797,45.2612305 21.4841797,44.2380859 C21.4841797,43.2149414 20.6518555,42.3826172 19.6287109,42.3826172 Z M38.9645508,42.3826172 C37.9414062,42.3826172 37.109082,43.2149414 37.109082,44.2380859 C37.109082,45.2612305 37.9414062,46.0935547 38.9645508,46.0935547 C39.9876953,46.0935547 40.8200195,45.2612305 40.8200195,44.2380859 C40.8200195,43.2149414 39.9876953,42.3826172 38.9645508,42.3826172 Z M46.1391602,12.1771484 C46.3714844,11.1238281 47.4138672,10.4583984 48.4670898,10.690625 C49.5206055,10.9228516 50.1861328,11.9651367 49.9537109,13.018457 L49.9537109,13.018457 L46.5732422,28.3430664 C46.1914062,30.0743164 45.2246094,31.6382812 43.8512695,32.7474609 C42.4735352,33.8600586 40.7379883,34.4727539 38.9644531,34.4727539 C37.8857422,34.4727539 37.0113281,33.5983398 37.0113281,32.5196289 C37.0113281,31.440918 37.8857422,30.5665039 38.9644531,30.5665039 C40.8003906,30.5665039 42.3607422,29.30625 42.7587891,27.5017578 L42.7587891,27.5017578 Z M29.0037109,3.32041016 C30.0824219,3.32041016 30.9568359,4.19482422 30.9568359,5.27353516 L30.9568359,5.27353516 L30.9568359,10.6446289 L36.3279297,10.6446289 C37.4066406,10.6446289 38.2810547,11.519043 38.2810547,12.5977539 C38.2810547,13.6764648 37.4066406,14.5508789 36.3279297,14.5508789 L36.3279297,14.5508789 L30.9568359,14.5508789 L30.9568359,19.9219727 C30.9568359,21.0006836 30.0824219,21.8750977 29.0037109,21.8750977 C27.925,21.8750977 27.0505859,21.0006836 27.0505859,19.9219727 L27.0505859,19.9219727 L27.0505859,14.5508789 L21.6794922,14.5508789 C20.6007812,14.5508789 19.7263672,13.6764648 19.7263672,12.5977539 C19.7263672,11.519043 20.6007812,10.6446289 21.6794922,10.6446289 L21.6794922,10.6446289 L27.0505859,10.6446289 L27.0505859,5.27353516 C27.0505859,4.19482422 27.925,3.32041016 29.0037109,3.32041016 Z" id="path-1"></path>
    </defs>
    <g id="Icons/Solutions/Online-Shop" stroke="none" stroke-width="1" fill="none" fill-rule="evenodd">
        <mask id="mask-2" fill="white">
            <use xlink:href="#path-1"></use>
        </mask>
        <use id="Combined-Shape" fill="#000000" fill-rule="nonzero" xlink:href="#path-1"></use>
        <rect id="Icon-Color" fill="#252A34" mask="url(#mask-2)" x="0" y="0" width="50.0000954" height="49.9843598"></rect>
    </g>
</svg>