<?xml version="1.0" encoding="UTF-8"?>
<svg width="50px" height="50px" viewBox="0 0 50 50" version="1.1" xmlns="http://www.w3.org/2000/svg" xmlns:xlink="http://www.w3.org/1999/xlink">
    <title>Icons/Solutions/Portfolio</title>
    <defs>
        <path d="M26.5480101,34.9557302 L14.9322125,34.9610709 C14.9322125,34.9610709 14.9318311,34.9610709 14.9314496,34.9610709 C13.8530306,34.9610709 12.9786986,34.0875019 12.9783167,33.0090829 C12.9775543,31.9302824 13.8518861,31.0551874 14.9303052,31.054806 L26.5461027,31.0494653 L26.5468656,31.0494653 C27.6252847,31.0494653 28.4996166,31.9230344 28.4999986,33.0014534 C28.5007611,34.0802539 27.6268106,34.9549673 26.5480101,34.9557302 Z M23.9093739,38.1783988 L14.9303052,38.1837394 C13.8515047,38.1845023 12.9775543,39.0595972 12.9783167,40.1380163 C12.9790801,41.2164354 13.8534121,42.0900043 14.9314496,42.0900043 L14.9325941,42.0900043 L23.9116627,42.0846637 C24.9904632,42.0839008 25.8644137,41.2088058 25.8636512,40.1303869 C25.8628878,39.0519678 24.9885559,38.1783988 23.9105183,38.1783988 C23.9101368,38.1783988 23.9097554,38.1783988 23.9093739,38.1783988 Z M44.2341585,37.8152382 L32.6160722,49.4226434 C32.6156907,49.4226434 32.6156907,49.4226434 32.6156907,49.4230249 L32.6149277,49.4234063 C32.612639,49.4260766 32.6095872,49.4283654 32.6069169,49.4310357 C32.5641921,49.4729975 32.5199414,49.5134335 32.4737833,49.5511992 C32.4619578,49.5611174 32.4493692,49.5691283 32.4371621,49.5786651 C32.3990151,49.6084198 32.3604864,49.6381746 32.3200505,49.665259 C32.3093693,49.672507 32.2979252,49.6782291 32.2868625,49.685477 C32.2441377,49.712943 32.2010315,49.7396459 32.1560179,49.7636786 C32.1483885,49.7674934 32.140759,49.7709266 32.1335111,49.7747412 C32.0843013,49.7999184 32.0343285,49.8243325 31.98283,49.8456949 C31.9786338,49.8476023 31.9744376,49.8487467 31.9702414,49.8502726 C31.9156911,49.8723979 31.8603777,49.8926159 31.8035385,49.9101635 C31.7989608,49.911308 31.7943832,49.9120709 31.790187,49.9135968 C31.7337293,49.93 31.6768901,49.9448774 31.6189065,49.9563215 C31.6059365,49.9589918 31.592585,49.9601363 31.5792334,49.9624251 C31.5300237,49.9711989 31.4804325,49.9795912 31.4296967,49.9849319 C31.3652281,49.9914169 31.3003781,49.9948501 31.2351465,49.9948501 L12.9790801,50.0001907 C8.67036315,50.0001907 5.16578738,46.495615 5.16578738,42.1876609 L5.16578738,7.8125298 C5.16578738,3.50457577 8.67036315,0 12.9783172,0 L36.9911651,0 C41.2987377,0 44.8036949,3.50457577 44.8036949,7.8125298 L44.8059837,26.6598765 C44.8059837,27.738677 43.9316519,28.6133904 42.8528513,28.6133904 C41.7740509,28.6133904 40.8997188,27.7390585 40.8997188,26.6606394 L40.89743,7.81291125 C40.89743,5.65874346 39.1449514,3.9062649 36.9911651,3.9062649 L12.9783172,3.9062649 C10.8245308,3.9062649 9.07205228,5.65874346 9.07205228,7.8125298 L9.07205228,42.1876609 C9.07205228,44.3414473 10.8245308,46.0939258 12.9783172,46.0939258 L29.2816325,46.0889667 L29.2816325,41.314092 C29.2816325,37.5447752 32.3482793,34.4781284 36.1175961,34.4781284 L42.8547587,34.4781284 C42.9196087,34.4781284 42.9844589,34.4815616 43.0493089,34.4880466 C43.0771564,34.4907169 43.1038593,34.4960575 43.1313253,34.4998722 C43.1668021,34.5048313 43.202279,34.5090275 43.2377558,34.5162754 C43.2709437,34.5227605 43.3029873,34.5319158 43.3357938,34.5403081 C43.3647856,34.5475561 43.3941589,34.5536596 43.4227693,34.562815 C43.4555758,34.5727333 43.4872379,34.5849403 43.5192814,34.5963844 C43.5471289,34.6063027 43.5753577,34.615458 43.6028236,34.6269021 C43.6337228,34.6398722 43.6634776,34.6547495 43.6932323,34.6692454 C43.7210798,34.6822154 43.7489271,34.6944225 43.7756301,34.7085369 C43.8057663,34.7249402 43.8343767,34.7432508 43.8637499,34.7607985 C43.8889271,34.7760574 43.9144856,34.7901718 43.9392812,34.8069565 C43.9739951,34.8298448 44.0071831,34.8557848 44.0403711,34.880962 C44.0575373,34.8943134 44.0758479,34.906139 44.0926326,34.9202534 C44.193341,35.0026512 44.2856571,35.0949673 44.3680549,35.1956757 C44.3806434,35.211316 44.3917061,35.2281007 44.4042946,35.2441225 C44.4306161,35.2788363 44.4573191,35.3131688 44.4813518,35.3494085 C44.4962292,35.3715339 44.5088177,35.3948036 44.5229321,35.4176918 C44.5423872,35.449354 44.5618422,35.4806346 44.5797713,35.5134411 C44.5923598,35.5374738 44.6030411,35.561888 44.6144852,35.5859207 C44.6305071,35.6194902 44.6469102,35.6526781 44.6614062,35.6870105 C44.670943,35.7102803 44.6785724,35.7339314 44.6869647,35.7572012 C44.7006978,35.7938225 44.7144306,35.8300623 44.7254934,35.8674464 C44.7323598,35.8899532 44.737319,35.9128415 44.743041,35.9353482 C44.7533407,35.9746398 44.7640219,36.0131684 44.7716514,36.0528414 C44.776229,36.076874 44.7788993,36.1012882 44.782714,36.1253209 C44.7888175,36.1638495 44.7956841,36.2023781 44.7994987,36.2416696 C44.8029319,36.2760021 44.8033135,36.309953 44.8048394,36.3442853 C44.8059837,36.3732772 44.8090355,36.4018875 44.8090355,36.4316423 C44.8090355,36.4602526 44.8059837,36.4881 44.8048394,36.5163288 C44.8033135,36.5514242 44.8029319,36.5869011 44.7994987,36.6219963 C44.7956841,36.6620509 44.7884361,36.7009609 44.7823325,36.7402525 C44.7785178,36.7639037 44.776229,36.7875549 44.7716514,36.8108246 C44.7636405,36.8512606 44.7529593,36.8901706 44.7426595,36.9294622 C44.736556,36.9515874 44.7319783,36.9740943 44.7254934,36.9962196 C44.7140492,37.0339852 44.6999348,37.0706065 44.6865833,37.1072277 C44.6781909,37.1304975 44.6705615,37.1537672 44.6610248,37.1770369 C44.6469102,37.2113694 44.6301255,37.2445573 44.6141038,37.2781268 C44.6026596,37.3021595 44.5919784,37.3265736 44.5793899,37.3502249 C44.5618422,37.3834129 44.5420057,37.4146935 44.5225507,37.4463556 C44.5088177,37.4692439 44.4958477,37.4921322 44.4813518,37.514639 C44.4565562,37.5516417 44.4290903,37.586737 44.4020058,37.6218324 C44.3901802,37.6370912 44.3798804,37.653113 44.3676733,37.6683718 C44.3253301,37.7191076 44.2806979,37.7683173 44.2341585,37.8152382 L44.2341585,37.8152382 Z M33.1878974,41.314092 L33.1878974,43.3294042 L38.1371046,38.3843933 L36.1175961,38.3843933 C34.5020657,38.3843933 33.1878974,39.6989429 33.1878974,41.314092 L33.1878974,41.314092 Z M31.1241384,27.3438543 L18.6607119,27.3438543 C17.6822383,27.3438543 16.767089,26.9085957 16.1494871,26.149468 C15.5288335,25.3869072 15.2881252,24.3969895 15.4883976,23.4330118 C16.0426752,20.7638579 17.7028377,18.5394994 19.9241445,17.1974838 C19.1806571,16.1804816 18.7400579,14.9281117 18.7400579,13.5742705 C18.7400579,10.1818473 21.5000019,7.42190331 24.8924251,7.42190331 C28.2848483,7.42190331 31.0447923,10.1818473 31.0447923,13.5742705 C31.0447923,14.9281117 30.6041931,16.1804816 29.8603244,17.1974838 C32.0820125,18.5394994 33.7417937,20.7638579 34.2964527,23.4330118 C34.496725,24.3969895 34.2556353,25.3869072 33.6353632,26.149468 C33.0177613,26.9085957 32.1026119,27.3438543 31.1241384,27.3438543 Z M22.6463228,13.5742705 C22.6463228,14.8129075 23.6537882,15.8203728 24.8924251,15.8203728 C26.1310621,15.8203728 27.1385274,14.8129075 27.1385274,13.5742705 C27.1385274,12.3356336 26.1310621,11.3281682 24.8924251,11.3281682 C23.6537882,11.3281682 22.6463228,12.3356336 22.6463228,13.5742705 Z M30.2463732,23.4375894 C29.4422319,21.2460375 27.3281186,19.7266378 24.9435423,19.7266378 L24.8413079,19.7266378 C22.4567317,19.7266378 20.3426183,21.2460375 19.5384771,23.4375894 L30.2463732,23.4375894 Z" id="path-1"></path>
    </defs>
    <g id="Icons/Solutions/Portfolio" stroke="none" stroke-width="1" fill="none" fill-rule="evenodd">
        <mask id="mask-2" fill="white">
            <use xlink:href="#path-1"></use>
        </mask>
        <use id="Shape" fill="#000000" fill-rule="nonzero" xlink:href="#path-1"></use>
        <rect id="Icon-Color" fill="#252A34" mask="url(#mask-2)" x="0" y="0" width="50.0000954" height="49.9843598"></rect>
    </g>
</svg>