<?xml version="1.0" encoding="UTF-8"?>
<svg width="50px" height="50px" viewBox="0 0 50 50" version="1.1" xmlns="http://www.w3.org/2000/svg" xmlns:xlink="http://www.w3.org/1999/xlink">
    <title>Icons/Solutions/Real State</title>
    <defs>
        <path d="M41.2117004,19.3279267 L26.3584137,4.37698359 C25.6298065,3.75251768 24.5563507,3.75022891 23.8250732,4.37164307 L8.78944395,19.3775177 C8.78982539,19.3962098 8.79211426,19.4145203 8.79211426,19.4335938 L8.79211426,26.3668061 C8.79211426,27.4456024 7.91778564,28.3199311 6.8393707,28.3199311 C5.76057432,28.3199311 4.8862457,27.4456024 4.8862457,26.3668061 L4.8862457,23.2727051 L3.33633418,24.8195648 C2.57301328,25.5813599 1.33666992,25.5805969 0.574493359,24.8168945 C-0.18730166,24.0535736 -0.186157227,22.8168487 0.577163672,22.0550537 L21.1116791,1.56097412 C21.1380005,1.53465273 21.1650849,1.50909424 21.1925507,1.48468018 C23.4230041,-0.501251172 26.7807007,-0.49400332 29.0027618,1.5010834 C29.0306092,1.52587891 29.057312,1.5514374 29.0836334,1.57775879 L49.432373,22.0607758 C50.1926422,22.826004 50.1884461,24.0627289 49.4232178,24.8226166 C49.0425109,25.2010346 48.544693,25.3902436 48.046875,25.3902436 C47.5448608,25.3902436 47.0432281,25.1979828 46.661377,24.8138428 L45.1175689,23.2593536 L45.1175689,26.3668061 C45.1175689,27.4452209 44.2432403,28.3195496 43.1644439,28.3195496 C42.0860291,28.3195496 41.2117004,27.4452209 41.2117004,26.3668061 L41.2117004,19.3279267 Z M34.1808319,46.0918427 L32.8140259,46.0918427 C32.2753906,46.0918427 31.8374634,45.653534 31.8374634,45.1152802 L31.8374634,34.1785431 C31.8374634,33.1001281 30.9631348,32.2254181 29.8843384,32.2254181 C28.8059234,32.2254181 27.9315948,33.1001281 27.9315948,34.1785431 L27.9315948,45.1152802 C27.9315948,47.807312 30.1216125,49.9977111 32.8140259,49.9977111 L34.1808319,49.9977111 C35.2596283,49.9977111 36.1339569,49.1233826 36.1339569,48.0445861 C36.1339569,46.9661713 35.2596283,46.0918427 34.1808319,46.0918427 Z M50,38.5238647 L50,43.6992646 C50,47.1721649 47.1744537,49.9977111 43.7015533,49.9977111 L40.1374816,49.9977111 C39.0586854,49.9977111 38.1843566,49.1233826 38.1843566,48.0445861 L38.1843566,34.1785431 C38.1843566,33.1001281 39.0586854,32.2254181 40.1374816,32.2254181 L43.7015533,32.2254181 C47.1744537,32.2254181 50,35.0509644 50,38.5238647 L50,38.5238647 Z M46.0941314,38.5238647 C46.0941314,37.2047424 45.0206757,36.1316681 43.7015533,36.1316681 L42.0906066,36.1316681 L42.0906066,46.0918427 L43.7015533,46.0918427 C45.0206757,46.0918427 46.0941314,45.0183868 46.0941314,43.6992646 L46.0941314,38.5238647 Z M25.8808136,38.1122589 L25.8808136,44.1112519 C25.8808136,47.3571777 23.2524872,49.9977111 20.0218201,49.9977111 C16.7911529,49.9977111 14.1628266,47.3571777 14.1628266,44.1112519 L14.1628266,38.1122589 C14.1628266,34.866333 16.7911529,32.2254181 20.0218201,32.2254181 C23.2524872,32.2254181 25.8808136,34.866333 25.8808136,38.1122589 Z M21.9749451,38.1122589 C21.9749451,37.0201111 21.0987091,36.1316681 20.0218201,36.1316681 C18.9449311,36.1316681 18.0690766,37.0201111 18.0690766,38.1122589 L18.0690766,44.1112519 C18.0690766,45.2033996 18.9449311,46.0918427 20.0218201,46.0918427 C21.0987091,46.0918427 21.9749451,45.2033996 21.9749451,44.1112519 L21.9749451,38.1122589 Z M7.17086797,38.9633179 L5.51757813,38.9633179 C4.86907959,38.9633179 4.3003082,38.3228302 4.3003082,37.5923156 L4.3003082,37.3523712 C4.3003082,36.656189 4.82368467,36.1316681 5.51757813,36.1316681 L7.08389277,36.1316681 C7.40776064,36.1316681 7.61299131,36.1774444 7.71789551,36.2148285 C7.71827695,36.2194062 7.71827695,36.2239838 7.71827695,36.2293243 C7.71827695,37.3077393 8.59260557,38.1820679 9.67102051,38.1820679 C10.7498169,38.1820679 11.6241455,37.3077393 11.6241455,36.2293243 C11.6241455,34.9021912 11.0630035,33.7753296 10.0444794,33.0570221 C9.26246641,32.5054169 8.26644902,32.2254181 7.08389277,32.2254181 L5.51757813,32.2254181 C4.14505,32.2254181 2.85911563,32.7529907 1.89666748,33.7104797 C0.92811582,34.6740723 0.394439648,35.9672547 0.394439648,37.3523712 L0.394439648,37.5926972 C0.394439648,40.5021668 2.69279482,42.8695679 5.51757813,42.8695679 L7.17086797,42.8695679 C7.8704834,42.8695679 8.39767461,43.3841705 8.39767461,44.0670014 L8.39767461,44.9115753 C8.39767461,45.5955506 7.88192754,46.0918427 7.17086797,46.0918427 L4.56657412,46.0918427 C4.26177979,46.0918427 3.90586855,45.9384918 3.90586855,45.5059052 C3.90586855,44.4271088 3.03153994,43.5527802 1.953125,43.5527802 C0.874328613,43.5527802 2.77555756e-15,44.4271088 2.77555756e-15,45.5059052 C2.77555756e-15,48.0247498 2.00576777,49.9977111 4.56657412,49.9977111 L7.17086797,49.9977111 C10.049057,49.9977111 12.3035431,47.763443 12.3035431,44.9115753 L12.3035431,44.0670014 C12.3035431,42.678833 11.7649078,41.3860321 10.7868194,40.4266357 C9.82437129,39.4828797 8.53996279,38.9633179 7.17086797,38.9633179 L7.17086797,38.9633179 Z" id="path-1"></path>
    </defs>
    <g id="Icons/Solutions/Real-State" stroke="none" stroke-width="1" fill="none" fill-rule="evenodd">
        <mask id="mask-2" fill="white">
            <use xlink:href="#path-1"></use>
        </mask>
        <use id="Shape" fill="#000000" fill-rule="nonzero" xlink:href="#path-1"></use>
        <rect id="Icon-Color" fill="#252A34" mask="url(#mask-2)" x="0" y="0" width="50.0000954" height="49.9843598"></rect>
    </g>
</svg>