<?xml version="1.0" encoding="UTF-8"?>
<svg width="50px" height="50px" viewBox="0 0 50 50" version="1.1" xmlns="http://www.w3.org/2000/svg" xmlns:xlink="http://www.w3.org/1999/xlink">
    <title>Icons/Solutions/Ride Sharing</title>
    <defs>
        <path d="M23.0995578,3.94736022 L19.2009304,3.94736022 L19.2009304,1.51071811 C19.2009304,0.703199709 19.855778,0.0487328423 20.6629157,0.0487328423 L21.6375725,0.0487328423 C22.4450909,0.0487328423 23.0995578,0.703199709 23.0995578,1.51071811 L23.0995578,3.94736022 Z M30.8968126,1.51071811 C30.8968126,0.703199709 30.2423457,0.0487328423 29.4348273,0.0487328423 L28.4601705,0.0487328423 C27.6526521,0.0487328423 26.9981852,0.703199709 26.9981852,1.51071811 L26.9981852,3.94736022 L30.8968126,3.94736022 L30.8968126,1.51071811 Z M19.5907932,29.4829889 C16.9036338,29.4829889 14.7175089,31.6691137 14.7175089,34.3562731 C14.7175089,35.4325835 15.5905121,36.3055868 16.6668226,36.3055868 C17.7435139,36.3055868 18.6161363,35.4325835 18.6161363,34.3562731 C18.6161363,33.8186889 19.0535897,33.3816163 19.5907932,33.3816163 L30.3120185,33.3816163 C30.8492219,33.3816163 31.2866753,33.8186889 31.2866753,34.3562731 C31.2866753,35.4325835 32.1592978,36.3055868 33.235989,36.3055868 C34.3126802,36.3055868 35.1853027,35.4325835 35.1853027,34.3562731 C35.1853027,31.6691137 32.9991778,29.4829889 30.3120185,29.4829889 L19.5907932,29.4829889 Z M7.89529172,30.4576457 C6.81860048,30.4576457 5.94597802,31.3302682 5.94597802,32.4069594 C5.94597802,33.4832699 6.81860048,34.3562731 7.89529172,34.3562731 L9.84460541,34.3562731 C10.9209159,34.3562731 11.7939191,33.4832699 11.7939191,32.4069594 C11.7939191,31.3302682 10.9209159,30.4576457 9.84460541,30.4576457 C9.489008,30.4576457 8.25050852,30.4576457 7.89529172,30.4576457 Z M40.2535183,30.4576457 C39.1768271,30.4576457 38.3042046,31.3302682 38.3042046,32.4069594 C38.3042046,33.4832699 39.1768271,34.3562731 40.2535183,34.3562731 L42.2024513,34.3562731 C43.2791425,34.3562731 44.151765,33.4832699 44.151765,32.4069594 C44.151765,31.3302682 43.2791425,30.4576457 42.2024513,30.4576457 C41.8472345,30.4576457 40.608735,30.4576457 40.2535183,30.4576457 Z M46.1010787,32.3094937 L46.1010787,28.0210036 C46.1010787,25.8714283 44.3524072,24.1223762 42.2024513,24.1223762 L7.89529172,24.1223762 C5.74533575,24.1223762 3.99666433,25.8714283 3.99666433,28.0210036 L3.99666433,39.1317109 L48.0503924,39.1317109 C49.1270836,39.1317109 49.9998825,40.0047141 49.9998825,41.0810246 L49.9998825,48.0010882 C49.9998825,49.0777794 49.1270836,49.9504019 48.0503924,49.9504019 L40.2535183,49.9504019 C39.1768271,49.9504019 38.3042046,49.0777794 38.3042046,48.0010882 L38.3042046,43.0303383 L11.7939191,43.0303383 L11.7939191,48.0010882 C11.7939191,49.0777794 10.9209159,49.9504019 9.84460541,49.9504019 L2.04735064,49.9504019 C0.970659408,49.9504019 0.0977121401,49.0777794 0.0977121401,48.0010882 L0.0977121401,28.0210036 C0.0977121401,25.7191382 1.10124822,23.6479924 2.6926801,22.219511 C1.68375802,21.5498151 0.90479395,20.7179303 0.343985563,19.7097696 C-0.17951179,18.7689973 0.158953004,17.5818958 1.09972532,17.0583984 C2.04011693,16.5349011 3.22721847,16.8733659 3.75071582,17.8141383 C4.06481419,18.3783731 4.53501,18.8272483 5.21079748,19.1954097 L7.61774297,12.913061 C8.5729828,10.420833 10.698953,8.61048407 13.3050179,8.0702348 C13.8947615,7.948022 14.5633152,7.82085978 15.302303,7.69636258 L15.302303,5.40934549 C15.302303,4.60182709 15.9567699,3.94736022 16.7642883,3.94736022 L19.2009304,3.94736022 L19.2009304,7.17514962 C20.4089719,7.05369822 21.7140983,6.95965904 23.0995578,6.91016479 L23.0995578,3.94736022 L26.9981852,3.94736022 L26.9981852,6.89760078 C28.3904977,6.93871912 29.6944819,7.026286 30.8968126,7.1424072 L30.8968126,3.94736022 L33.3334547,3.94736022 C34.1405924,3.94736022 34.7950593,4.60182709 34.7950593,5.40934549 L34.7950593,7.65714784 C35.550799,7.78469085 36.2292516,7.91642177 36.8216601,8.04244188 C39.4041201,8.59220925 41.5148613,10.3918979 42.4678168,12.8574752 L44.9021745,19.1573372 C45.5513113,18.7811805 46.0416855,18.3166957 46.3824346,17.7532222 C46.9394358,16.8318668 48.1379591,16.5368047 49.0589337,17.0938058 C49.980289,17.650807 50.2753512,18.8493304 49.71835,19.7706857 C49.136221,20.73354 48.3534497,21.5441043 47.3818387,22.1993326 C48.9865959,23.6285755 49.9998825,25.7080972 49.9998825,28.0210036 L49.9998825,32.3094937 C49.9998825,33.386185 49.1270836,34.2588074 48.0503924,34.2588074 C46.9737011,34.2588074 46.1010787,33.3858042 46.1010787,32.3094937 Z M8.99178067,20.2237488 L41.1348975,20.2237488 L38.8311285,14.2627324 C38.3544603,13.0303244 37.3002319,12.1302897 36.0099538,11.8557868 C33.6818184,11.3604632 29.9244401,10.7699581 25.2438029,10.7699581 C20.4889242,10.7699581 16.5571737,11.3775958 14.0961652,11.8877677 C12.7967497,12.1569405 11.7360488,13.0619246 11.2582385,14.3080386 L8.99178067,20.2237488 Z M46.1010787,46.0517746 L46.1010787,43.0303383 L42.2024513,43.0303383 L42.2024513,46.0517746 L46.1010787,46.0517746 Z M3.99666433,43.0303383 L3.99666433,46.0517746 L7.89529172,46.0517746 L7.89529172,43.0303383 L3.99666433,43.0303383 Z" id="path-1"></path>
    </defs>
    <g id="Icons/Solutions/Ride-Sharing" stroke="none" stroke-width="1" fill="none" fill-rule="evenodd">
        <mask id="mask-2" fill="white">
            <use xlink:href="#path-1"></use>
        </mask>
        <use id="Shape" fill="#000000" fill-rule="nonzero" xlink:href="#path-1"></use>
        <rect id="Icon-Color" fill="#252A34" mask="url(#mask-2)" x="0" y="0" width="50.0000954" height="49.9843598"></rect>
    </g>
</svg>