<?xml version="1.0" encoding="UTF-8"?>
<svg width="50px" height="50px" viewBox="0 0 50 50" version="1.1" xmlns="http://www.w3.org/2000/svg" xmlns:xlink="http://www.w3.org/1999/xlink">
    <title>Icons/Solutions/Salon</title>
    <defs>
        <path d="M50.000293,19.7265625 C50.000293,21.3446289 48.6886719,22.65625 47.0706055,22.65625 C46.069043,22.65625 45.1852539,22.1533203 44.6569336,21.3866211 C44.3932617,24.5328125 43.3825195,27.5652344 41.693457,30.2416016 C41.1176758,31.1537109 39.9114258,31.4265625 38.9994141,30.8509766 C38.087207,30.275293 37.8143555,29.069043 38.3900391,28.1569336 C39.9800781,25.6374023 40.8206055,22.7222656 40.8206055,19.7266602 C40.8206055,11.2743164 34.1578125,4.34902344 25.8085938,3.92675781 L36.249707,14.4443359 C37.009668,15.2098633 37.0050781,16.4464844 36.2395508,17.2064453 C35.8586914,17.5845703 35.3609375,17.7734375 34.8635742,17.7734375 C34.3612305,17.7734375 33.8592773,17.580957 33.4774414,17.1962891 L20.8370117,4.46328125 C19.4415039,4.84433594 18.1223633,5.41191406 16.9080078,6.13779297 L25.3071289,14.5369141 C26.0699219,15.299707 26.0699219,16.5363281 25.3071289,17.2990234 C24.9257812,17.6803711 24.4259766,17.8710938 23.9260742,17.8710938 C23.4261719,17.8710938 22.9263672,17.6803711 22.5450195,17.2990234 L13.8051758,8.55917969 C10.9486328,11.4227539 9.17998047,15.3719727 9.17998047,19.7265625 C9.17998047,28.4499023 16.2769531,35.546875 25.000293,35.546875 C27.9597656,35.546875 30.8448242,34.7251953 33.3436523,33.1708008 C34.2594727,32.6009766 35.4638672,32.8816406 36.0336914,33.7975586 C36.603418,34.7134766 36.3228516,35.9178711 35.4069336,36.4875977 C32.8416992,38.0833984 29.9515625,39.059668 26.953418,39.3561523 L26.953418,44.2938477 C30.2158203,44.7688477 33.4438477,46.1899414 33.6060547,46.2620117 C34.5917969,46.7000977 35.0357422,47.8543945 34.5976562,48.8400391 C34.2741211,49.5679687 33.5600586,50.0003906 32.8117187,50.0003906 C32.5466797,50.0003906 32.2774414,49.9461914 32.0196289,49.831543 C31.9805664,49.8142578 27.9539063,48.0467773 25.0003906,48.0467773 C22.5365234,48.0467773 19.0981445,49.3351563 17.9811523,49.831543 C16.9953125,50.2696289 15.8412109,49.8255859 15.403125,48.8399414 C14.9650391,47.8542969 15.4089844,46.7 16.3947266,46.2619141 C16.5569336,46.1898438 19.7848633,44.76875 23.0473633,44.29375 L23.0473633,39.3563477 C13.6285156,38.4262695 6.1359375,30.8439453 5.34433594,21.3857422 C4.81582031,22.1530273 3.93183594,22.65625 2.92998047,22.65625 C1.31191406,22.65625 0.00029296875,21.3446289 0.00029296875,19.7265625 C0.00029296875,18.1084961 1.31191406,16.796875 2.92998047,16.796875 C3.93183594,16.796875 4.81591797,17.3000977 5.34414062,18.0671875 C6.18964844,7.96367188 14.6818359,0 25.000293,0 C35.31875,0 43.8108398,7.96367188 44.6564453,18.0671875 C45.1847656,17.3 46.06875,16.796875 47.0706055,16.796875 C48.6885742,16.796875 50.000293,18.1084961 50.000293,19.7265625 Z M27.8183594,19.8103516 C27.0555664,20.5731445 27.0555664,21.8097656 27.8183594,22.5724609 L31.2363281,25.9904297 C31.6176758,26.3717773 32.1174805,26.5625 32.6173828,26.5625 C33.1172852,26.5625 33.6170898,26.3717773 33.9984375,25.9904297 C34.7612305,25.2276367 34.7612305,23.9910156 33.9984375,23.2283203 L30.5804687,19.8103516 C29.8177734,19.0475586 28.5811523,19.0475586 27.8183594,19.8103516 Z" id="path-1"></path>
    </defs>
    <g id="Icons/Solutions/Salon" stroke="none" stroke-width="1" fill="none" fill-rule="evenodd">
        <mask id="mask-2" fill="white">
            <use xlink:href="#path-1"></use>
        </mask>
        <use id="Shape" fill="#000000" fill-rule="nonzero" xlink:href="#path-1"></use>
        <rect id="Icon-Color" fill="#252A34" mask="url(#mask-2)" x="0" y="0" width="50.0000954" height="49.9843598"></rect>
    </g>
</svg>