<?xml version="1.0" encoding="UTF-8"?>
<svg width="50px" height="50px" viewBox="0 0 50 50" version="1.1" xmlns="http://www.w3.org/2000/svg" xmlns:xlink="http://www.w3.org/1999/xlink">
    <title>Icons/Solutions/Social Media</title>
    <defs>
        <path d="M44.140625,28.0200958 L44.140625,20.3125 C44.140625,19.2337036 43.2662964,18.359375 42.1875,18.359375 C40.5719757,18.359375 39.2578125,17.0452118 39.2578125,15.4296875 C39.2578125,13.8141632 40.5719757,12.5 42.1875,12.5 C43.8030243,12.5 45.1171875,13.8141632 45.1171875,15.4296875 C45.1171875,16.5084839 45.9915161,17.3828125 47.0703125,17.3828125 C48.1491089,17.3828125 49.0234375,16.5084839 49.0234375,15.4296875 C49.0234375,11.6603852 45.9568023,8.59375 42.1875,8.59375 C40.190506,8.59375 38.3907318,9.45472715 37.1395111,10.8253479 L31.7546845,7.88879395 C31.8080902,7.54547119 31.8359375,7.1941376 31.8359375,6.8359375 C31.8359375,3.06663516 28.7693023,-2.77555756e-15 25,-2.77555756e-15 C21.2306977,-2.77555756e-15 18.1640625,3.06663516 18.1640625,6.8359375 C18.1640625,7.19261172 18.1915283,7.54280088 18.2445526,7.88459775 L12.8459931,10.8100891 C11.5955353,9.44900508 9.80224609,8.59375 7.8125,8.59375 C4.04319766,8.59375 0.9765625,11.6603852 0.9765625,15.4296875 C0.9765625,18.4486389 2.9441834,21.0147857 5.6640625,21.9177246 L5.6640625,28.0822754 C2.9441834,28.9852143 0.9765625,31.5513611 0.9765625,34.5703125 C0.9765625,38.3396148 4.04319766,41.40625 7.8125,41.40625 C9.79957578,41.40625 11.5909576,40.5532837 12.841034,39.1952515 L18.2395936,42.1516418 C18.1903839,42.4819946 18.1640625,42.8199768 18.1640625,43.1640625 C18.1640625,46.9333648 21.2306977,50 25,50 C26.0787964,50 26.953125,49.1256714 26.953125,48.046875 C26.953125,46.9680786 26.0787964,46.09375 25,46.09375 C23.3844757,46.09375 22.0703125,44.7795868 22.0703125,43.1640625 C22.0703125,41.5485382 23.3844757,40.234375 25,40.234375 C26.6155243,40.234375 27.9296875,41.5485382 27.9296875,43.1640625 C27.9296875,44.2428589 28.8040161,45.1171875 29.8828125,45.1171875 C30.9616089,45.1171875 31.8359375,44.2428589 31.8359375,43.1640625 C31.8359375,42.8012848 31.8069458,42.4449921 31.7520142,42.0970917 L37.0948791,39.124298 C38.3472442,40.5235291 40.1660919,41.40625 42.1875,41.40625 C43.2662964,41.40625 44.140625,40.5319214 44.140625,39.453125 C44.140625,38.3743286 43.2662964,37.5 42.1875,37.5 C40.5719757,37.5 39.2578125,36.1858368 39.2578125,34.5703125 C39.2578125,32.9547882 40.5719757,31.640625 42.1875,31.640625 C43.8030243,31.640625 45.1171875,32.9547882 45.1171875,34.5703125 C45.1171875,35.6491089 45.9915161,36.5234375 47.0703125,36.5234375 C48.1491089,36.5234375 49.0234375,35.6491089 49.0234375,34.5703125 C49.0234375,31.4796447 46.9612121,28.8627625 44.140625,28.0200958 L44.140625,28.0200958 Z M35.4381562,14.3466949 C35.3816986,14.6995545 35.3515625,15.0611877 35.3515625,15.4296875 C35.3515625,16.0007477 35.4228974,16.5554047 35.5556488,17.0860291 L26.953125,21.6537476 L26.953125,13.3861542 C28.1661987,13.0237579 29.239273,12.3340606 30.0678253,11.4185333 L35.4381562,14.3466949 Z M12.3104096,29.429245 C11.5322113,28.7471771 10.5987549,28.2386779 9.5703125,27.9647827 L9.5703125,22.0355987 C10.65979,21.7453003 11.6428375,21.1921691 12.4473572,20.4486847 L20.835495,24.9023437 L12.3104096,29.429245 Z M25,3.90625 C26.6155243,3.90625 27.9296875,5.22041318 27.9296875,6.8359375 C27.9296875,8.45146182 26.6155243,9.765625 25,9.765625 C23.3844757,9.765625 22.0703125,8.45146182 22.0703125,6.8359375 C22.0703125,5.22041318 23.3844757,3.90625 25,3.90625 L25,3.90625 Z M19.9291229,11.4147187 C20.7580566,12.3321533 21.8322754,13.022995 23.046875,13.3861542 L23.046875,21.6537476 L14.4443512,17.0860291 C14.5771026,16.5554047 14.6484375,16.0007477 14.6484375,15.4296875 C14.6484375,15.0535584 14.6167755,14.6850586 14.5580292,14.3253326 L19.9291229,11.4147187 Z M7.8125,12.5 C9.42802432,12.5 10.7421875,13.8141632 10.7421875,15.4296875 C10.7421875,17.0452118 9.42802432,18.359375 7.8125,18.359375 C6.19697568,18.359375 4.8828125,17.0452118 4.8828125,15.4296875 C4.8828125,13.8141632 6.19697568,12.5 7.8125,12.5 Z M7.8125,37.5 C6.19697568,37.5 4.8828125,36.1858368 4.8828125,34.5703125 C4.8828125,32.9547882 6.19697568,31.640625 7.8125,31.640625 C9.42802432,31.640625 10.7421875,32.9547882 10.7421875,34.5703125 C10.7421875,36.1858368 9.42802432,37.5 7.8125,37.5 Z M19.9069977,38.6108398 L14.5568848,35.6811523 C14.616394,35.319519 14.6484375,34.9487305 14.6484375,34.5703125 C14.6484375,33.9374542 14.560318,33.3251953 14.3985748,32.7430725 L23.046875,28.1509399 L23.046875,36.6138458 C21.8212128,36.9800567 20.7389832,37.6808166 19.9069977,38.6108398 L19.9069977,38.6108398 Z M30.0575256,38.5696411 C29.2304992,37.6598358 28.1608582,36.9747162 26.953125,36.6138458 L26.953125,28.1509399 L35.6014252,32.7430725 C35.439682,33.3251953 35.3515625,33.9374542 35.3515625,34.5703125 C35.3515625,34.9140167 35.3778839,35.2516174 35.426712,35.5815888 L30.0575256,38.5696411 Z M37.6895904,29.429245 L29.164505,24.9023437 L37.5526428,20.4483032 C38.3087158,21.1475372 39.2227173,21.6773986 40.234375,21.9799042 L40.234375,28.0200958 C39.2829895,28.3042908 38.4185791,28.7906646 37.6895904,29.429245 Z" id="path-1"></path>
    </defs>
    <g id="Icons/Solutions/Social-Media" stroke="none" stroke-width="1" fill="none" fill-rule="evenodd">
        <mask id="mask-2" fill="white">
            <use xlink:href="#path-1"></use>
        </mask>
        <use id="Shape" fill="#000000" fill-rule="nonzero" xlink:href="#path-1"></use>
        <rect id="Icon-Color" fill="#252A34" mask="url(#mask-2)" x="0" y="0" width="50.0000954" height="49.9843598"></rect>
    </g>
</svg>