<?xml version="1.0" encoding="UTF-8"?>
<svg width="50px" height="50px" viewBox="0 0 50 50" version="1.1" xmlns="http://www.w3.org/2000/svg" xmlns:xlink="http://www.w3.org/1999/xlink">
    <title>Icons/Solutions/Spa</title>
    <defs>
        <path d="M11.6210937,37.109375 C12.6998047,37.109375 13.5742188,37.9837891 13.5742188,39.0625 C13.5742188,40.1412109 12.6998047,41.015625 11.6210937,41.015625 C10.5423828,41.015625 9.66796875,40.1412109 9.66796875,39.0625 C9.66796875,37.9837891 10.5423828,37.109375 11.6210937,37.109375 Z M35.2539062,23.7304688 C36.3326172,23.7304688 37.2070312,22.8560547 37.2070312,21.7773438 C37.2070312,20.6986328 36.3326172,19.8242188 35.2539062,19.8242188 C34.1751953,19.8242188 33.3007812,20.6986328 33.3007812,21.7773438 C33.3007812,22.8560547 34.1751953,23.7304688 35.2539062,23.7304688 Z M28.515625,25 C29.5943359,25 30.46875,24.1255859 30.46875,23.046875 C30.46875,21.9681641 29.5943359,21.09375 28.515625,21.09375 C27.4369141,21.09375 26.5625,21.9681641 26.5625,23.046875 C26.5625,24.1255859 27.4369141,25 28.515625,25 Z M16.40625,40.7226562 C16.40625,41.8013672 17.2806641,42.6757812 18.359375,42.6757812 C19.4380859,42.6757812 20.3125,41.8013672 20.3125,40.7226562 C20.3125,39.6439453 19.4380859,38.7695312 18.359375,38.7695312 C17.2806641,38.7695312 16.40625,39.6439453 16.40625,40.7226562 Z M50,38.8671875 C50,40.0512695 49.6359375,41.2021484 48.9180664,42.2880859 C48.3232422,43.1878906 47.1114258,43.4351562 46.2117187,42.8401367 C45.3119141,42.2452148 45.0646484,41.0335937 45.6595703,40.1336914 C45.9517578,39.6918945 46.09375,39.2774414 46.09375,38.8670898 C46.09375,37.3386719 43.9787109,35.5466797 40.5739258,34.1905273 C36.4454102,32.5461914 30.9144531,31.640625 25,31.640625 C19.0855469,31.640625 13.5545898,32.5461914 9.42607422,34.190625 C6.02128906,35.5467773 3.90625,37.3387695 3.90625,38.8671875 C3.90625,40.3956055 6.02128906,42.1875977 9.42607422,43.54375 C13.5545898,45.1881836 19.0855469,46.09375 25,46.09375 C30.0910156,46.09375 35.0443359,45.3958984 38.9476562,44.1287109 C39.9736328,43.7956055 41.0753906,44.3573242 41.4083984,45.3833008 C41.7414062,46.4092773 41.1797852,47.5110352 40.1538086,47.844043 C35.809375,49.2544922 30.5691406,50 25,50 C18.6023437,50 12.5581055,48.9958984 7.98066406,47.1727539 C2.83427734,45.1229492 -5.55111512e-15,42.1732422 -5.55111512e-15,38.8671875 C-5.55111512e-15,35.5611328 2.83427734,32.6114258 7.98066406,30.5616211 C9.36660156,30.009668 10.8876953,29.5333008 12.5116211,29.1365234 C8.34697266,27.3381836 6.0546875,24.7636719 6.0546875,21.875 C6.0546875,18.9536133 8.39785156,16.3530273 12.6524414,14.5521484 C13.3446289,14.2591797 14.0779297,13.9907227 14.8461914,13.7477539 C12.2571289,12.271875 10.8398437,10.2498047 10.8398437,8.0078125 C10.8398437,5.62070312 12.4462891,3.48291016 15.3632812,1.98828125 C17.8655273,0.706054687 21.1492187,-1.11022302e-14 24.609375,-1.11022302e-14 C28.0695312,-1.11022302e-14 31.3532227,0.706054687 33.8554687,1.98828125 C36.7724609,3.48291016 38.3789062,5.62070312 38.3789062,8.0078125 C38.3789062,9.91328125 37.3542969,11.6594727 35.4577148,13.046875 C37.2073242,13.4358398 38.8319336,13.940332 40.2772461,14.5521484 C44.5318359,16.3530273 46.875,18.9536133 46.875,21.875 C46.875,24.7963867 44.5318359,27.3969727 40.2772461,29.1978516 C39.9410156,29.3401367 39.5948242,29.4764648 39.2399414,29.6071289 C40.2146484,29.8945312 41.144043,30.2129883 42.0192383,30.5616211 C47.1657227,32.6114258 50,35.5611328 50,38.8671875 L50,38.8671875 Z M14.7460938,8.0078125 C14.7460938,9.68017578 18.5883789,12.109375 24.609375,12.109375 C30.6303711,12.109375 34.4726563,9.68017578 34.4726563,8.0078125 C34.4726563,6.33544922 30.6303711,3.90625 24.609375,3.90625 C18.5883789,3.90625 14.7460938,6.33544922 14.7460938,8.0078125 Z M26.4648437,27.734375 C36.5395508,27.734375 42.96875,24.2640625 42.96875,21.875 C42.96875,19.4859375 36.5395508,16.015625 26.4648437,16.015625 C16.3901367,16.015625 9.9609375,19.4859375 9.9609375,21.875 C9.9609375,24.2640625 16.3901367,27.734375 26.4648437,27.734375 Z" id="path-1"></path>
    </defs>
    <g id="Icons/Solutions/Spa" stroke="none" stroke-width="1" fill="none" fill-rule="evenodd">
        <mask id="mask-2" fill="white">
            <use xlink:href="#path-1"></use>
        </mask>
        <use id="Shape" fill="#000000" fill-rule="nonzero" xlink:href="#path-1"></use>
        <rect id="Icon-Color" fill="#252A34" mask="url(#mask-2)" x="0" y="0" width="50.0000954" height="49.9843598"></rect>
    </g>
</svg>