<?xml version="1.0" encoding="UTF-8"?>
<svg width="50px" height="50px" viewBox="0 0 50 50" version="1.1" xmlns="http://www.w3.org/2000/svg" xmlns:xlink="http://www.w3.org/1999/xlink">
    <title>Icons/Solutions/Travel App</title>
    <defs>
        <path d="M44.140625,38.2757813 C47.3714844,38.2757813 50,40.9042969 50,44.1351563 C50,47.3660156 47.3714844,49.9945313 44.140625,49.9945313 C40.9097656,49.9945313 38.28125,47.3660156 38.28125,44.1351563 C38.28125,43.4506836 38.3992188,42.7931641 38.615918,42.1820313 L38.615918,42.1820313 L30.5234375,42.1820313 C30.7402344,42.7933594 30.859375,43.4504883 30.859375,44.1351563 C30.859375,47.3660156 28.2308594,49.9945313 25,49.9945313 C21.7691406,49.9945313 19.140625,47.3660156 19.140625,44.1351563 C19.140625,43.4504883 19.2597656,42.7933594 19.4765625,42.1820313 L19.4765625,42.1820313 L11.384082,42.1820313 C11.6007813,42.7931641 11.71875,43.4506836 11.71875,44.1351563 C11.71875,47.3660156 9.09023437,49.9945313 5.859375,49.9945313 C2.62851562,49.9945313 0,47.3660156 0,44.1351563 C0,40.9042969 2.62851562,38.2757813 5.859375,38.2757813 L5.859375,38.2757813 Z M5.859375,42.1820313 C4.78242187,42.1820313 3.90625,43.0582031 3.90625,44.1351563 C3.90625,45.2121094 4.78242187,46.0882813 5.859375,46.0882813 C6.93632813,46.0882813 7.8125,45.2121094 7.8125,44.1351563 C7.8125,43.0582031 6.93632812,42.1820313 5.859375,42.1820313 Z M25,42.1820313 C23.9230469,42.1820313 23.046875,43.0582031 23.046875,44.1351563 C23.046875,45.2121094 23.9230469,46.0882813 25,46.0882813 C26.0769531,46.0882813 26.953125,45.2121094 26.953125,44.1351563 C26.953125,43.0583008 26.0769531,42.1820313 25,42.1820313 Z M44.140625,42.1820313 C43.0636719,42.1820313 42.1875,43.0582031 42.1875,44.1351563 C42.1875,45.2121094 43.0636719,46.0882813 44.140625,46.0882813 C45.2175781,46.0882813 46.09375,45.2121094 46.09375,44.1351563 C46.09375,43.0582031 45.2175781,42.1820313 44.140625,42.1820313 Z M32.421875,10.9320313 C37.8067383,10.9320313 42.1875,15.3128906 42.1875,20.6976563 L42.1875,20.6976563 L42.1875,25.5804688 C42.1875,30.9652344 37.8067383,35.3460938 32.421875,35.3460938 L32.421875,35.3460938 L17.578125,35.3460938 C12.1932617,35.3460938 7.8125,30.9652344 7.8125,25.5804688 L7.8125,25.5804688 L7.8125,20.6976563 C7.8125,15.3128906 12.1932617,10.9320313 17.578125,10.9320313 L17.578125,10.9320313 Z M32.421875,14.8382813 L17.578125,14.8382813 C14.3472656,14.8382813 11.71875,17.4667969 11.71875,20.6976563 L11.71875,20.6976563 L11.71875,25.5804688 C11.71875,28.8113281 14.3472656,31.4398438 17.578125,31.4398438 L17.578125,31.4398438 L32.421875,31.4398438 C35.6527344,31.4398438 38.28125,28.8113281 38.28125,25.5804688 L38.28125,25.5804688 L38.28125,20.6976563 C38.28125,17.4667969 35.6527344,14.8382813 32.421875,14.8382813 L32.421875,14.8382813 Z M25,0.00537109375 C28.6078125,0.00537109375 31.5429688,2.94052734 31.5429688,6.54833984 C31.5429688,7.62705078 30.6685547,8.50146484 29.5898438,8.50146484 C28.5111328,8.50146484 27.6367188,7.62705078 27.6367188,6.54833984 C27.6367188,5.09443359 26.4539062,3.91162109 25,3.91162109 C23.5460938,3.91162109 22.3632812,5.09443359 22.3632812,6.54833984 C22.3632812,7.62705078 21.4888672,8.50146484 20.4101562,8.50146484 C19.3314453,8.50146484 18.4570312,7.62705078 18.4570312,6.54833984 C18.4570312,2.94052734 21.3921875,0.00537109375 25,0.00537109375 Z" id="path-1"></path>
    </defs>
    <g id="Icons/Solutions/Travel-App" stroke="none" stroke-width="1" fill="none" fill-rule="evenodd">
        <mask id="mask-2" fill="white">
            <use xlink:href="#path-1"></use>
        </mask>
        <use id="Combined-Shape" fill="#000000" fill-rule="nonzero" xlink:href="#path-1"></use>
        <rect id="Icon-Color" fill="#252A34" mask="url(#mask-2)" x="0" y="0" width="50.0000954" height="49.9843598"></rect>
    </g>
</svg>