<?xml version="1.0" encoding="UTF-8"?>
<svg width="50px" height="50px" viewBox="0 0 50 50" version="1.1" xmlns="http://www.w3.org/2000/svg" xmlns:xlink="http://www.w3.org/1999/xlink">
    <title>Icons/Solutions/VOD</title>
    <defs>
        <path d="M47.6262104,44.5352951 C46.8407751,44.698626 46.2647382,45.313116 46.1124482,46.0521031 L35.2035377,46.0521031 C36.0061058,43.8648386 38.1149411,42.3484113 40.4944716,42.3484113 L40.5965059,42.3484113 C40.6140193,42.3484113 40.6311519,42.3461269 40.6482845,42.3457462 C43.8254339,42.2905411 46.3934233,39.6905707 46.3934233,36.5004768 C46.3934233,33.2757369 43.7702287,30.6525424 40.5454888,30.6525424 C37.3211296,30.6525424 34.6979351,33.2757369 34.6979351,36.5004768 C34.6979351,37.7066133 35.0649539,38.8286095 35.6935307,39.7606241 C34.5635392,40.4234662 33.5744159,41.3128395 32.7973564,42.3735391 C32.0199162,41.3128395 31.0307928,40.4234662 29.901182,39.7606241 C30.5293782,38.8286095 30.8967777,37.7066133 30.8967777,36.5004768 C30.8967777,33.2757369 28.2732024,30.6525424 25.0488432,30.6525424 C21.8241033,30.6525424 19.2009088,33.2757369 19.2009088,36.5004768 C19.2009088,37.7066133 19.5683083,38.8286095 20.1965044,39.7606241 C19.0665129,40.4234662 18.0777703,41.3128395 17.3003301,42.3735391 C16.5228899,41.3128395 15.5341473,40.4234662 14.4041558,39.7606241 C15.0327326,38.8286095 15.3997514,37.7066133 15.3997514,36.5004768 C15.3997514,33.2757369 12.7765569,30.6525424 9.55181694,30.6525424 C6.3274578,30.6525424 3.70388249,33.2757369 3.70388249,36.5004768 C3.70388249,37.7066133 4.071282,38.8286095 4.69947813,39.7606241 C2.42921553,41.0927805 0.728517383,43.3413418 0.166567432,46.0471536 C-0.0333131153,47.0092454 0.20692432,47.9976073 0.825982957,48.7582957 C1.44275729,49.5159382 2.35611635,49.9503454 3.33229499,49.9503454 L46.7653915,49.9503454 C47.7415701,49.9503454 48.6553099,49.5159382 49.2717035,48.7582957 C49.8907621,47.9972266 50.1309996,47.0092454 49.931119,46.0471536 C49.7122022,44.9933071 48.680057,44.3159975 47.6262104,44.5352951 L47.6262104,44.5352951 Z M24.997826,42.3484113 L25.0998604,42.3484113 C27.479391,42.3484113 29.5886069,43.8648386 30.3907943,46.0521031 L19.7065114,46.0521031 C20.5090795,43.8648386 22.6182955,42.3484113 24.997826,42.3484113 Z M40.5454888,34.5511653 C41.6202752,34.5511653 42.4948003,35.4256904 42.4948003,36.5004768 C42.4948003,37.5752632 41.6202752,38.4497883 40.5454888,38.4497883 C39.4707024,38.4497883 38.5961773,37.5752632 38.5961773,36.5004768 C38.5961773,35.4256904 39.4707024,34.5511653 40.5454888,34.5511653 Z M25.0488432,34.5511653 C26.1236296,34.5511653 26.9981547,35.4256904 26.9981547,36.5004768 C26.9981547,37.5752632 26.1236296,38.4497883 25.0488432,38.4497883 C23.9740568,38.4497883 23.0995317,37.5752632 23.0995317,36.5004768 C23.0995317,35.4256904 23.9740568,34.5511653 25.0488432,34.5511653 L25.0488432,34.5511653 Z M9.55181694,34.5511653 C10.6266034,34.5511653 11.5011284,35.4256904 11.5011284,36.5004768 C11.5011284,37.5752632 10.6266034,38.4497883 9.55181694,38.4497883 C8.47703053,38.4497883 7.60250546,37.5752632 7.60250546,36.5004768 C7.60250546,35.4256904 8.47703053,34.5511653 9.55181694,34.5511653 Z M4.20872376,46.0521031 C5.01091105,43.8648386 7.12126919,42.3484113 9.50079976,42.3484113 L9.60283413,42.3484113 C11.9827454,42.3484113 14.0927228,43.8648386 14.8952909,46.0521031 L4.20872376,46.0521031 Z M20.2345769,25.8538857 C20.8288885,26.1961575 21.4806895,26.3674836 22.1321098,26.3674836 C22.787718,26.3674836 23.4433264,26.1942538 24.040303,25.8477941 L32.4078748,20.9920287 C33.5976402,20.3017745 34.3076921,19.0674643 34.3076921,17.6900017 C34.3076921,16.3125391 33.5976402,15.0778482 32.4078748,14.387594 L24.040303,9.53220927 C22.8497762,8.84119365 21.4270073,8.83890926 20.2341961,9.52573697 C19.0379585,10.2148491 18.3237186,11.4518243 18.3237186,12.8342364 L18.3237186,22.5453863 C18.3237186,23.9281792 19.0379585,25.1647736 20.2345769,25.8538857 Z M22.2223416,12.9846227 L30.3314012,17.689621 L22.2223416,22.3950001 L22.2223416,12.9846227 Z M49.9996495,7.84597872 L49.9996495,26.2665915 C49.9996495,27.1102779 49.8652536,27.9410196 49.6002691,28.7355925 C49.32767,29.5518667 48.5673624,30.0685103 47.751469,30.0685103 C47.546639,30.0685103 47.3387631,30.035768 47.1339332,29.9676183 C46.112829,29.6268694 45.5611586,28.5227672 45.9019074,27.5016631 C46.034019,27.1057092 46.1010265,26.6899576 46.1010265,26.2665915 L46.1010265,7.84597872 C46.1010265,5.69602519 44.3519763,3.94735575 42.2024036,3.94735575 L7.89490218,3.94735575 C5.74532935,3.94735575 3.99627922,5.69602519 3.99627922,7.84597872 L3.99627922,26.2665915 C3.99627922,26.6899576 4.0632868,27.1057092 4.19539836,27.5016631 C4.53614707,28.5227672 3.98447672,29.6268694 2.96337259,29.9676183 C1.94188766,30.3079864 0.837785454,29.7566967 0.497036645,28.7355925 C0.232052115,27.9410196 0.09765625,27.1102779 0.09765625,26.2665915 L0.09765625,7.84597872 C0.09765625,3.54645246 3.59537592,0.0487327871 7.89490218,0.0487327871 L42.2024036,0.0487327871 C46.5019298,0.0487327871 49.9996495,3.54645246 49.9996495,7.84597872 Z" id="path-1"></path>
    </defs>
    <g id="Icons/Solutions/VOD" stroke="none" stroke-width="1" fill="none" fill-rule="evenodd">
        <mask id="mask-2" fill="white">
            <use xlink:href="#path-1"></use>
        </mask>
        <use id="Shape" fill="#000000" fill-rule="nonzero" xlink:href="#path-1"></use>
        <rect id="Icon-Color" fill="#252A34" mask="url(#mask-2)" x="0" y="0" width="50.0000954" height="49.9843598"></rect>
    </g>
</svg>