<?xml version="1.0" encoding="UTF-8"?>
<svg width="50px" height="50px" viewBox="0 0 50 50" version="1.1" xmlns="http://www.w3.org/2000/svg" xmlns:xlink="http://www.w3.org/1999/xlink">
    <title>Icons/Programing Languages/Android</title>
    <defs>
        <path d="M3.49589763,39.3524313 C4.53362836,39.3524313 5.40242619,39.8833633 5.81269182,40.4625618 L5.81269182,39.4972309 L7.40548783,39.4972309 L7.40548783,46.7251461 L6.17469092,46.7251461 C5.97501188,46.7245498 5.81328818,46.5628261 5.81269182,46.3631471 L5.81269182,45.7598152 C5.40242619,46.3390138 4.545695,46.8699458 3.49589763,46.8699458 C1.51696926,46.8699458 0.00863971167,45.1806167 0.00863971167,43.1172219 C0.00863971167,41.053827 1.50490263,39.3524313 3.49589763,39.3524313 Z M24.4073785,35.87724 L24.4073785,46.7251461 L23.1886482,46.7251461 C22.9889692,46.7245498 22.8272455,46.5628261 22.8266492,46.3631471 L22.8266492,45.7598152 C22.4163835,46.3390138 21.5596523,46.8699458 20.509855,46.8699458 C18.5309266,46.8699458 17.022597,45.1806167 17.022597,43.1172219 C17.022597,41.053827 18.51886,39.3524313 20.4977883,39.3524313 C21.5355191,39.3524313 22.4043169,39.8833633 22.8145825,40.4625618 L22.8145825,35.87724 L24.4073785,35.87724 Z M34.6598433,39.3523095 C36.732674,39.3600785 38.4080041,41.0443793 38.4047238,43.1172219 C38.4097108,44.1203406 38.0109608,45.0833056 37.2982432,45.7892138 C36.5855257,46.4951219 35.6187772,46.8846093 34.6157529,46.8699458 C32.542974,46.8533742 30.8748335,45.1619523 30.8869244,43.0891428 C30.8991473,41.0163332 32.5870125,39.3445941 34.6598433,39.3523095 Z M49.9886477,35.87724 L49.9886477,46.7251461 L48.7699174,46.7251461 C48.5702384,46.7245498 48.4085147,46.5628261 48.4079183,46.3631471 L48.4079183,45.7598152 C47.9976527,46.3390138 47.1409215,46.8699458 46.0911241,46.8699458 C44.1121958,46.8699458 42.6038662,45.1806167 42.6038662,43.1172219 C42.6038662,41.053827 44.1001291,39.3524313 46.0790575,39.3524313 C47.1167882,39.3524313 47.9855861,39.8833633 48.3958517,40.4625618 L48.3958517,35.87724 L49.9886477,35.87724 Z M13.0044071,39.3524313 C14.6816696,39.3524313 15.7676669,40.5349617 15.7676669,42.3690904 L15.7676669,46.7251461 L14.5489366,46.7251461 C14.3492575,46.7245498 14.1875338,46.5628261 14.1869375,46.3631471 L14.1869375,42.6345564 C14.1869375,41.4882259 13.6077389,40.8004277 12.6786079,40.8004277 C11.6288106,40.8004277 10.8082793,41.6209589 10.8082793,43.1654884 L10.8082793,46.7251461 L9.58954902,46.7251461 C9.38986998,46.7245498 9.22814628,46.5628261 9.22754993,46.3631471 L9.21548329,39.4972309 L10.8082793,39.4972309 L10.8082793,40.4746285 C11.2426782,39.7506303 12.0632095,39.3524313 13.0044071,39.3524313 Z M41.2886029,39.4972309 L41.2886029,46.7251461 L40.0698726,46.7251461 C39.8701935,46.7245498 39.7084698,46.5628261 39.7078735,46.3631471 L39.6958069,39.4972309 L41.2886029,39.4972309 Z M29.7166985,39.4248311 C29.9234785,39.4209705 30.130004,39.4412181 30.332097,39.4851643 L30.332097,41.1141602 C30.0753095,41.0281234 29.8065099,40.9833235 29.535699,40.9814272 C28.6307013,40.9814272 27.7981034,41.7536919 27.7981034,43.1896217 L27.7981034,46.7130795 L26.5793731,46.7130795 C26.379694,46.7124832 26.2179703,46.5507595 26.217374,46.3510804 L26.217374,39.4972309 L27.81017,39.4972309 L27.8096397,40.7866547 L27.869369,40.6397587 C28.1922638,39.9129302 28.9117388,39.4337902 29.7166985,39.4248311 Z M3.78549691,40.788361 C2.49436681,40.788361 1.62556899,41.8019585 1.62556899,43.1051552 C1.62556899,44.408352 2.49436681,45.4219494 3.78549691,45.4219494 C5.076627,45.4219494 5.94542482,44.408352 5.94542482,43.1051552 C5.93335819,41.8019585 5.06456037,40.788361 3.78549691,40.788361 Z M20.7873876,40.788361 C19.4962575,40.788361 18.6274597,41.8019585 18.6274597,43.1051552 C18.6274597,44.408352 19.4962575,45.4219494 20.7873876,45.4219494 C22.0785177,45.4219494 22.9473155,44.408352 22.9473155,43.1051552 C22.9473155,41.8019585 22.0785177,40.788361 20.7873876,40.788361 Z M46.3686568,40.788361 C45.0775267,40.788361 44.2087289,41.8019585 44.2087289,43.1051552 C44.2087289,44.408352 45.0775267,45.4219494 46.3686568,45.4219494 C47.6597869,45.4219494 48.5285847,44.408352 48.5285847,43.1051552 C48.5044514,41.8019585 47.6597869,40.788361 46.3686568,40.788361 Z M34.6157529,40.8245609 C33.3246228,40.8245609 32.4316917,41.8260918 32.4316917,43.1051552 C32.4437584,44.3962853 33.3246228,45.3857495 34.6157529,45.3857495 C35.8827497,45.3857495 36.7877475,44.3842187 36.7877475,43.1051552 C36.7877475,41.8140251 35.8948164,40.8245609 34.6157529,40.8245609 Z M40.4922049,35.7927703 C41.0786562,35.7927703 41.5540689,36.2681863 41.5540689,36.8546376 C41.5540689,37.4410889 41.0786562,37.9165016 40.4922049,37.9165016 C39.901409,37.9109385 39.4238373,37.4333668 39.4182742,36.8425709 C39.4301172,36.2583477 39.9078633,35.7913374 40.4922049,35.7927703 Z M39.9130063,3.55072108 C40.1560755,3.14450614 40.6804802,3.00906487 41.0898582,3.24676821 C41.4992361,3.48447155 41.6415656,4.00704876 41.4092692,4.4195189 L41.4092692,4.4195189 L37.2462797,11.6233008 C44.3655951,15.5087578 49.2525829,22.736673 49.9645144,31.2677849 L49.9645144,31.2677849 L0.00863971167,31.2677849 C0.72057126,22.736673 5.59549237,15.5087578 12.775141,11.6233008 L12.775141,11.6233008 L8.61215147,4.4195189 C8.37985513,4.00704876 8.52218457,3.48447155 8.93156254,3.24676821 C9.34094052,3.00906487 9.8653452,3.14450614 10.1084144,3.55072108 L10.1084144,3.55072108 L14.3196705,10.8389695 C21.1192613,7.78208988 28.9021594,7.78208988 35.7017502,10.8389695 L35.7017502,10.8389695 Z M13.4991392,19.9975465 C12.3528935,19.9975465 11.4236778,20.9267623 11.4236778,22.073008 C11.4236778,23.2192537 12.3528935,24.1484694 13.4991392,24.1484694 C14.6453849,24.1484694 15.5746007,23.2192537 15.5746007,22.073008 C15.5746007,20.9267623 14.6453849,19.9975465 13.4991392,19.9975465 Z M36.4981482,19.9975465 C35.3519025,19.9975465 34.4226867,20.9267623 34.4226867,22.073008 C34.4226867,23.2192537 35.3519025,24.1484694 36.4981482,24.1484694 C37.6443939,24.1484694 38.5736097,23.2192537 38.5736097,22.073008 C38.5736097,20.9267623 37.6443939,19.9975465 36.4981482,19.9975465 Z" id="path-1"></path>
    </defs>
    <g id="Icons/Programing-Languages/Android" stroke="none" stroke-width="1" fill="none" fill-rule="evenodd">
        <mask id="mask-2" fill="white">
            <use xlink:href="#path-1"></use>
        </mask>
        <use id="Combined-Shape" fill="#000000" fill-rule="nonzero" xlink:href="#path-1"></use>
        <rect id="Icon-Color" fill="#08D9D6" mask="url(#mask-2)" x="0" y="0" width="50" height="50"></rect>
    </g>
</svg>