<?xml version="1.0" encoding="UTF-8"?>
<svg width="50px" height="50px" viewBox="0 0 50 50" version="1.1" xmlns="http://www.w3.org/2000/svg" xmlns:xlink="http://www.w3.org/1999/xlink">
    <title>Icons/Programing Languages/CSS3</title>
    <defs>
        <path d="M47.222237,9.23705556e-14 L43.0552278,45.138401 L24.9998674,50 L6.94424193,45.138401 L2.77776305,9.23705556e-14 L47.222237,9.23705556e-14 Z M38.8253875,9.17786538 L10.8970416,9.17786538 L11.5706878,14.6288053 L25.7370416,14.6278654 L24.9836957,14.9425638 L12.0608774,20.324575 L12.4894287,25.6531663 L24.9836957,25.6930655 L31.6801255,25.7142744 L31.251309,32.8189745 L24.9830416,34.5828654 L24.9836957,34.5779836 L24.9320416,34.5918654 L18.8788603,33.0638042 L18.511417,28.6539537 L12.8571372,28.6540863 L13.5920239,37.1674518 L24.9836957,40.5359477 L24.9830416,40.5288654 L25.0042418,40.5358151 L36.3349381,37.2284273 L37.8049767,20.324575 L24.9530416,20.3238654 L24.9835631,20.3110543 L38.2743551,14.6286728 L38.8253875,9.17786538 Z" id="path-1"></path>
    </defs>
    <g id="Icons/Programing-Languages/CSS3" stroke="none" stroke-width="1" fill="none" fill-rule="evenodd">
        <mask id="mask-2" fill="white">
            <use xlink:href="#path-1"></use>
        </mask>
        <use id="Combined-Shape" fill="#2062AF" fill-rule="nonzero" xlink:href="#path-1"></use>
        <rect id="Icon-Color" fill="#08D9D6" mask="url(#mask-2)" x="0" y="0" width="50" height="50"></rect>
    </g>
</svg>