<?xml version="1.0" encoding="UTF-8"?>
<svg width="50px" height="50px" viewBox="0 0 50 50" version="1.1" xmlns="http://www.w3.org/2000/svg" xmlns:xlink="http://www.w3.org/1999/xlink">
    <title>Icons/Programing Languages/iOS</title>
    <defs>
        <path d="M27.1094371,4.3519518 C30.3945162,0.0221129863 34.9615615,0.00100424177 34.9615615,0.00100424177 C34.9615615,0.00100424177 35.6409017,4.07178866 32.3773419,7.99325129 C28.8926743,12.1805034 24.9318689,11.4953316 24.9318689,11.4953316 C24.9318689,11.4953316 24.1881347,8.20220322 27.1094371,4.3519518 Z M25.3496906,14.3469013 C27.0397043,14.3469013 30.176283,12.0237895 34.2589771,12.0237895 C41.2866284,12.0237895 44.051299,17.0244264 44.051299,17.0244264 C44.051299,17.0244264 38.6440929,19.7890148 38.6440929,26.4971603 C38.6440929,34.064522 45.38,36.6724786 45.38,36.6724786 C45.38,36.6724786 40.6713537,49.9255669 34.3112972,49.9255669 C31.3901591,49.9255669 29.119121,47.9570327 26.0412689,47.9570327 C22.9046902,47.9570327 19.7920949,49.9989958 17.7648341,49.9989958 C11.9571368,49.9989958 4.62,37.4272189 4.62,27.3214691 C4.62,17.3788397 10.8304062,12.1630907 16.6555162,12.1630907 C20.4423592,12.1630907 23.3809922,14.3469013 25.3496906,14.3469013 Z" id="path-1"></path>
    </defs>
    <g id="Icons/Programing-Languages/iOS" stroke="none" stroke-width="1" fill="none" fill-rule="evenodd">
        <mask id="mask-2" fill="white">
            <use xlink:href="#path-1"></use>
        </mask>
        <use id="Shape" fill="#999999" fill-rule="nonzero" xlink:href="#path-1"></use>
        <rect id="Icon-Color" fill="#08D9D6" mask="url(#mask-2)" x="0" y="0" width="50" height="50"></rect>
    </g>
</svg>