<?xml version="1.0" encoding="UTF-8"?>
<svg width="50px" height="50px" viewBox="0 0 50 50" version="1.1" xmlns="http://www.w3.org/2000/svg" xmlns:xlink="http://www.w3.org/1999/xlink">
    <title>Icons/Programing Languages/Java</title>
    <defs>
        <path d="M43.4295,45.2548463 L43.4136215,45.4007575 C42.7823905,49.5330004 29.1773062,50.4015331 20.2814634,49.8320184 L20.2814634,49.8320184 C14.5980537,49.4676203 13.3132239,48.5743867 13.2211935,48.5048896 C18.8352826,49.4271341 28.3099804,49.59586 35.9920739,48.1502581 C42.5665063,46.9123826 43.3797444,45.364513 43.4280124,45.2592353 L43.4295,45.2548463 Z M9.07566093,46.4997541 C1.76097314,45.3141868 12.5961863,41.1738904 14.5793669,42.5710161 C14.5793669,42.5710161 13.9523606,42.5265917 12.8553528,42.7644866 C11.8034929,42.9905156 8.45936277,44.0671201 10.2425612,44.8427383 C15.2033344,47.0020248 33.0607868,46.4854283 38.7080401,44.7745823 C41.6779634,43.8736496 40.2646307,42.7092093 40.2646307,42.7092093 C45.4388436,45.0431546 29.0236649,49.7347767 9.07566093,46.4997541 Z M19.8008984,40.1483668 C23.7613267,40.6001355 25.7853141,40.5354524 30.1497584,39.7093321 C30.1497584,39.7093321 31.2972683,40.4288049 32.8995856,41.0520488 C23.2137793,45.2032315 11.0039087,40.8969479 18.2171348,38.7270478 L18.4416853,38.6619581 C18.4416853,38.6619581 16.5318701,39.7725682 19.8008984,40.1483668 Z M17.2461335,33.1900871 C17.2461335,33.1900871 15.1040669,34.7757634 18.3755552,35.1140834 C22.6061475,35.5505134 25.9470941,35.5862555 31.7283441,34.4730408 C31.7283441,34.4730408 32.5279834,35.2836776 33.7853242,35.7270534 C21.9561331,39.1860792 8.78060764,35.9998221 17.2461335,33.1900871 Z M35.4662163,36.8742739 C35.4662163,36.8744185 35.6113553,36.7447629 35.6546221,36.6287096 C45.0314993,31.7562063 40.695996,27.0738453 37.6699272,27.7047587 C36.9281699,27.8590141 36.5975192,27.9927214 36.5975192,27.9927214 C36.5975192,27.9927214 36.8728926,27.5615008 37.3987502,27.3748315 C43.3851917,25.2700988 47.9892674,33.5822374 35.4662163,36.8742739 Z M19.3601273,27.520694 C19.3599826,27.520694 10.2767116,29.678244 16.1434822,30.4615316 C18.6205406,30.7931953 23.5585951,30.7182381 28.1583297,30.3327443 C31.9174734,30.0158406 35.6921007,29.3415157 35.6921007,29.3415157 C35.6921007,29.3415157 34.3666038,29.909193 33.4076445,30.5639827 C24.1835756,32.9899603 6.36432529,31.8614068 11.4942586,29.3798625 C15.832656,27.2827992 19.3601273,27.520694 19.3601273,27.520694 Z M36.2625274,10.2189085 C25.3623417,16.5404865 27.3759103,18.374187 30.0014359,22.0641618 C32.7156806,25.8848102 27.1029841,28.9623092 26.7126742,29.1700076 L26.6914561,29.1811827 C26.6914561,29.1811827 29.735613,26.6835762 27.3248295,23.9081363 C19.1529099,14.492044 36.2625274,10.2189085 36.2625274,10.2189085 Z M30.0014359,0.0108462764 C30.0014359,0.0108462764 35.1944605,5.20589674 25.0761154,13.1937517 C16.9623672,19.6015739 23.2259186,23.2550831 25.0727872,27.4293852 C20.3365959,23.1562497 16.8607843,19.3945012 19.1927037,15.8935109 C22.6151192,10.7540272 32.0966181,8.26235355 30.0014359,0.0108462764 Z" id="path-1"></path>
    </defs>
    <g id="Icons/Programing-Languages/Java" stroke="none" stroke-width="1" fill="none" fill-rule="evenodd">
        <mask id="mask-2" fill="white">
            <use xlink:href="#path-1"></use>
        </mask>
        <use id="Combined-Shape" fill="#5382A1" fill-rule="nonzero" xlink:href="#path-1"></use>
        <rect id="Icon-Color" fill="#08D9D6" mask="url(#mask-2)" x="0" y="0" width="50" height="50"></rect>
    </g>
</svg>