<?xml version="1.0" encoding="UTF-8"?>
<svg width="50px" height="50px" viewBox="0 0 50 50" version="1.1" xmlns="http://www.w3.org/2000/svg" xmlns:xlink="http://www.w3.org/1999/xlink">
    <title>Icons/Programing Languages/Laravel</title>
    <defs>
        <path d="M49.7889918,23.8790998 C49.4325588,23.5226668 44.8583347,17.7603325 44.0860631,16.8098444 C43.254386,15.8593563 42.8979529,16.0375728 42.3633034,16.0969783 C41.8286538,16.1563838 36.0663196,17.1662774 35.412859,17.2256829 C34.7593984,17.344494 34.3435598,17.582116 34.7593984,18.1761711 C35.1158314,18.7108206 38.9177839,24.0573163 39.749461,25.304832 L24.6010566,28.928568 L12.601144,8.79010085 C12.1259,8.07723476 12.0070889,7.83961273 10.9377898,7.89901823 C9.86849066,7.95842374 1.49231407,8.67128983 0.898258996,8.67128983 C0.304203919,8.73069534 -0.349256665,8.96831737 0.244798412,10.3940496 C0.838853489,11.8197817 10.3437347,32.2552764 10.5813568,32.8493315 C10.8189788,33.4433865 11.5318449,34.3938747 13.1357936,34.0374416 C14.7991478,33.6216031 20.5020765,32.1364654 23.6505684,31.3047883 C25.3139227,34.2750637 28.6406311,40.3344254 29.2940917,41.2255081 C30.1257688,42.4136182 30.7198239,42.1759962 31.9673395,41.8195631 C32.9772332,41.5225356 47.5315825,36.2948509 48.1850431,35.9978234 C48.8385037,35.7007958 49.2543423,35.5225793 48.7790982,34.8691187 C48.4226652,34.3938747 44.6207127,29.2255955 42.6009254,26.5523477 C43.9672521,26.1959146 48.8979092,24.8889934 49.4325588,24.7107769 C50.0266139,24.5325604 50.1454249,24.2355329 49.7889918,23.8790998 Z M22.2842418,29.522623 C22.1060252,29.5820285 13.6110376,31.6018158 13.1951991,31.7206268 C12.719955,31.8394378 12.719955,31.7800323 12.719955,31.6018158 C12.601144,31.4235993 2.62101872,10.7504826 2.4428022,10.5128606 C2.32399118,10.2752385 2.32399118,10.0376165 2.4428022,10.0376165 C2.56161321,10.0376165 10.4625457,9.32475042 10.7001678,9.32475042 C10.9971953,9.32475042 10.9377898,9.38415593 11.0566008,9.56237245 C11.0566008,9.56237245 22.1654308,28.7503514 22.3436473,29.047379 C22.5812693,29.3444065 22.4624583,29.4632175 22.2842418,29.522623 L22.2842418,29.522623 Z M46.1652559,33.9780361 C46.2840669,34.2156581 46.4622834,34.3344692 45.9870393,34.4532802 C45.5712008,34.6314967 31.670312,39.3245318 31.3732844,39.4433428 C31.0762569,39.5621538 30.8980404,39.6215593 30.5416073,39.0869098 C30.1851743,38.5522602 25.6703557,30.7701387 25.6703557,30.7701387 L40.4623271,26.9087807 C40.8187602,26.7899697 40.9375712,26.7305642 41.1751932,27.0869972 C41.4128152,27.5028358 46.0464448,33.7998196 46.1652559,33.9780361 Z M47.115744,23.5226668 C46.7593109,23.5820723 41.3534097,24.9483989 41.3534097,24.9483989 L36.8979967,18.8890372 C36.7791856,18.7108206 36.6603746,18.5326041 36.9574022,18.4731986 C37.2544297,18.4137931 42.3038979,17.5227105 42.5415199,17.463305 C42.7791419,17.4038995 42.9573584,17.344494 43.254386,17.7603325 C43.5514135,18.1167656 47.353366,22.9880172 47.5315825,23.1662337 C47.7097991,23.3444502 47.472177,23.4632613 47.115744,23.5226668 Z" id="path-1"></path>
    </defs>
    <g id="Icons/Programing-Languages/Laravel" stroke="none" stroke-width="1" fill="none" fill-rule="evenodd">
        <mask id="mask-2" fill="white">
            <use xlink:href="#path-1"></use>
        </mask>
        <use id="Shape" fill="#FB503B" fill-rule="nonzero" xlink:href="#path-1"></use>
        <rect id="Icon-Color" fill="#08D9D6" mask="url(#mask-2)" x="0" y="0" width="50" height="50"></rect>
    </g>
</svg>