<?xml version="1.0" encoding="UTF-8"?>
<svg width="50px" height="50px" viewBox="0 0 50 50" version="1.1" xmlns="http://www.w3.org/2000/svg" xmlns:xlink="http://www.w3.org/1999/xlink">
    <title>Icons/Programing Languages/MongoDB</title>
    <defs>
        <path d="M25.4310757,28.586061 C25.9368471,28.5967898 26.2166133,28.7044281 26.6147465,28.8443694 C26.830023,28.9197046 27.0345706,28.9518911 27.3144534,28.9518911 C27.7340443,28.9518911 27.9170176,28.8227951 28.0675712,28.6722416 C28.0784167,28.6936992 28.099991,28.7475767 28.1107198,28.8874014 C28.1214486,29.0273428 28.0784167,29.2317738 27.9707784,29.382444 C27.8847145,29.5008111 27.6910123,29.5869917 27.4973101,29.5869917 L27.4434327,29.5869917 C27.2497305,29.5654174 27.1635499,29.5438431 27.1635499,29.5438431 L27.1206346,29.5654174 C27.1099057,29.5869917 27.1206346,29.6084494 27.1313634,29.6407525 L27.1422089,29.6623268 C27.1636665,29.7591196 27.2066985,30.0496145 27.2066985,30.1250663 C27.2066985,31.0075133 26.8515973,31.394801 26.4749217,31.6854126 C26.108975,31.9544499 25.6893841,32.1265778 25.2157992,32.1697264 C25.2050704,32.1697264 25.162155,32.1697264 25.065129,32.1804552 C25.0113682,32.1804552 24.9360331,32.1913007 24.9251876,32.1913007 L24.9144588,32.1913007 C24.8283948,32.2127584 24.613235,32.3203966 24.613235,32.5032533 C24.613235,32.6646524 24.7100277,32.8584712 25.1727672,32.8907743 C25.26956,32.9015032 25.3663528,32.9015032 25.4741076,32.9123486 C26.0875173,32.955264 26.8515973,33.0091414 27.2066985,33.1275085 C27.7017411,33.3103652 28.0138104,33.751647 28.0138104,34.2789928 C28.0138104,35.0754925 27.4435493,35.8179981 26.496496,36.2806209 C26.0337565,36.4851686 25.5709004,36.5928068 25.065129,36.5928068 C24.4086873,36.5928068 23.9351024,36.4528654 23.5262403,36.1407962 C23.1279905,35.8394557 22.9558626,35.3874451 22.9558626,35.0753758 C22.9558626,34.9893119 22.9774369,34.7524611 23.1711391,34.5373012 C23.2893895,34.4080887 23.5478146,34.1606257 24.1612243,33.7409182 C24.182682,33.7301894 24.1934108,33.7194605 24.1934108,33.6977696 C24.1934108,33.6763119 24.1718365,33.6547376 24.1503788,33.6441254 C23.6446074,33.4504232 23.4939372,33.1382373 23.4507886,32.9661094 L23.4507886,32.9445351 C23.4401764,32.8799289 23.4186021,32.8154392 23.5155115,32.750833 C23.5908466,32.6970721 23.6984848,32.6324659 23.8167353,32.5572474 C23.9997086,32.4494925 24.1934108,32.3311254 24.3117779,32.234216 C24.3333522,32.2127584 24.3333522,32.1913007 24.3333522,32.1697264 C24.3333522,32.1481521 24.3117779,32.1265778 24.2902036,32.1159656 C23.5370858,31.868386 23.1604102,31.3087371 23.1604102,30.4693221 C23.1604102,29.9205186 23.4078732,29.425476 23.8490384,29.1134067 C24.1503788,28.8766726 24.9037299,28.586061 25.3987725,28.586061 L25.4310757,28.586061 Z M24.9897939,33.794679 C24.774634,33.794679 24.6238472,33.8592853 24.5270544,33.9131627 C24.0750437,34.2035411 23.8706127,34.4834238 23.8706127,34.817184 C23.8706127,35.1291366 23.9889798,35.3765996 24.2472883,35.5918761 C24.5593575,35.8609134 24.9897939,35.990126 25.5385973,35.990126 C26.6363208,35.990126 27.1206346,35.3981739 27.1206346,34.817184 C27.1206346,34.4080887 26.9160869,34.1390514 26.496496,33.9884978 C26.1951556,33.8592853 25.6463522,33.794679 24.9897939,33.794679 Z M31.6190501,28.5646033 C33.0179974,28.5646033 33.9973538,29.5654174 33.9973538,31.0075133 C33.9973538,31.986753 33.6099494,32.7615618 32.8673272,33.2351467 C32.5516816,33.4455771 32.0319405,33.6475304 31.565038,33.689811 L31.392,33.6971932 L31.1945681,33.6924232 C29.5158197,33.5983608 28.9071028,32.3060656 28.9071028,31.0935772 C28.9071028,30.2111302 29.2622041,29.5331142 29.9724066,29.0488005 C30.4782946,28.7367312 31.0809755,28.5646033 31.6190501,28.5646033 Z M12.6354193,28.5646033 C14.0344832,28.5646033 15.013723,29.5654174 15.013723,31.0075133 C15.013723,31.986753 14.6263186,32.7615618 13.8836964,33.2351467 C13.539324,33.4718809 12.9259143,33.6978862 12.409414,33.6978862 C10.5799137,33.6978862 9.92347208,32.3526997 9.92347208,31.0935772 C9.92347208,30.2111302 10.2785733,29.5331142 10.9887758,29.0488005 C11.4946639,28.7367312 12.0973447,28.5646033 12.6354193,28.5646033 Z M19.6842664,28.5323002 C20.2224577,28.5323002 20.6420485,28.7689177 20.9326601,29.178013 C21.1802398,29.5331142 21.2770325,30.0388857 21.2770325,30.6201089 C21.2770325,31.3410402 21.2770325,32.4171894 21.2984902,32.7938649 C21.2984902,32.8370135 21.3523677,32.9445351 21.3846708,32.9661094 C21.6214049,33.0737477 21.8151071,33.116663 22.0841444,33.1489662 C22.1271764,33.2351467 22.1056021,33.547216 22.0519579,33.6118223 C21.8797134,33.6118223 21.4491604,33.5795191 20.7819899,33.5795191 C20.2439153,33.5795191 19.8779686,33.6118223 19.5658994,33.6118223 C19.5121386,33.5364872 19.4905643,33.2028436 19.5658994,33.1273919 C19.7919047,33.1060508 19.9856069,33.0629022 20.0610586,33.0305991 C20.222341,32.9768383 20.2546442,32.8692 20.2546442,32.4387637 C20.2546442,31.6423806 20.2761018,30.7276305 20.222341,30.264891 C20.1900379,30.06046 20.1147028,29.7805772 19.8779686,29.5869917 C19.7057241,29.4470503 19.4798354,29.3394121 19.135463,29.3394121 C18.7803618,29.3394121 18.3821119,29.4900823 18.1345323,29.7052421 C18.0700427,29.7698484 18.005553,29.8774867 18.005553,30.103492 C18.005553,30.9213327 18.005553,32.1265778 18.0268941,32.6970721 C18.0377395,32.9230775 18.091617,33.0197536 18.2853192,33.0629022 C18.4251439,33.1060508 18.5758141,33.1275085 18.7803618,33.1382373 C18.8233937,33.2135724 18.8018195,33.5364872 18.7264843,33.6225511 C18.5436276,33.6225511 18.1776809,33.590248 17.4674784,33.590248 L17.3243489,33.5910003 C16.8414451,33.5958543 16.3158457,33.6225511 16.2082393,33.6225511 C16.143633,33.547216 16.143633,33.2028436 16.2082393,33.1382373 C16.3912126,33.116663 16.5095797,33.0844765 16.6602499,33.0521734 L16.6602499,33.0521734 L16.6386756,33.0629022 C16.8324944,33.0198703 16.9078295,32.9230775 16.9185584,32.6540402 C16.9507449,31.9760242 16.9507449,30.7383594 16.9400161,29.9313641 C16.9400161,29.8344547 16.9507449,29.7160876 16.8431067,29.6300237 C16.6925531,29.5331142 16.4987343,29.4362048 16.2083559,29.3501409 L16.2083559,29.3501409 L16.1976271,29.3501409 C15.9284731,29.264077 15.9930794,29.016614 16.2512713,28.9626199 C16.6064891,28.9304334 17.5750001,28.7044281 17.9193725,28.5323002 C17.9193725,28.5323002 18.005553,28.6075187 17.9947076,28.7581889 C17.9839787,28.9197046 17.9624044,29.1564387 17.9624044,29.2748058 C17.9516756,29.3932895 18.0377395,29.3178378 18.0484684,29.3071089 C18.5758141,28.8550983 19.2107981,28.5323002 19.6842664,28.5323002 Z M1.85211997,28.586061 C1.87369427,28.6075187 1.9059974,28.6722416 1.9059974,28.7583055 L1.89526856,28.876556 C1.88442311,28.9950397 1.87369427,29.134981 1.87369427,29.2748058 C1.87369427,29.3178378 1.91684286,29.3501409 1.95975821,29.3501409 C1.98133251,29.3501409 2.0029068,29.3394121 2.02436448,29.3285666 C2.71310929,28.790492 3.33724783,28.5967898 3.66004593,28.5967898 C4.1875083,28.5967898 4.59648698,28.8443694 4.90855624,29.3608697 C4.93001392,29.3932895 4.95158822,29.4040183 4.98389135,29.4040183 C5.00534903,29.4040183 5.03753555,29.3932895 5.048381,29.3717152 C5.683365,28.8874014 6.31834899,28.5967898 6.73793988,28.5967898 C7.73875396,28.5967898 8.33070598,29.3394121 8.33070598,30.5985346 L8.33001933,31.066687 C8.32898937,31.316961 8.32641444,31.584305 8.31997714,31.8361994 C8.31997714,32.2127584 8.3092483,32.5571308 8.3092483,32.8047104 C8.3092483,32.8583546 8.38446679,33.0305991 8.50283387,33.0629022 C8.65350409,33.1382373 8.85805173,33.1705405 9.12708903,33.2135724 L9.13781787,33.2135724 C9.15939216,33.2889076 9.11636019,33.5686737 9.07332822,33.6225511 C9.00872195,33.6225511 8.91181254,33.6225511 8.80429092,33.6118223 C8.53186896,33.5976083 8.25912605,33.5904145 7.98633358,33.590248 C7.31916307,33.590248 6.97479066,33.6009768 6.64103048,33.6225511 C6.61968942,33.5364872 6.60884396,33.2781787 6.64103048,33.2135724 C6.83484929,33.1813859 6.93164207,33.1489662 7.05012577,33.1167797 C7.26540225,33.0521734 7.31916307,32.955264 7.33000852,32.6754979 C7.33000852,32.4710668 7.37292388,30.7276305 7.30831761,30.307923 C7.24382796,29.8774867 6.92091323,29.3717152 6.21059413,29.3717152 C5.94155684,29.3717152 5.52196594,29.4793534 5.11298727,29.7913061 C5.09152959,29.8128804 5.06983868,29.8666412 5.06983868,29.8989443 L5.06983868,29.9097898 C5.10579584,30.0980304 5.1117887,30.3088657 5.11278751,30.6043164 L5.11298727,31.4917104 C5.11298727,31.9760242 5.10214181,32.4280349 5.11298727,32.7722906 C5.11298727,33.0091414 5.25292865,33.0629022 5.37129573,33.1060508 C5.435902,33.116663 5.47881735,33.1275085 5.53269478,33.1382373 C5.62948757,33.1598116 5.72639697,33.1813859 5.87706719,33.2135724 C5.89864148,33.256721 5.89864148,33.3965458 5.86633835,33.5149129 C5.85549289,33.5795191 5.83391859,33.6117057 5.82318976,33.6225511 C5.45735967,33.6118223 5.08068414,33.6009768 4.53188071,33.6009768 C4.37048165,33.6009768 4.0905989,33.6118223 3.85386474,33.6118223 C3.66004593,33.6118223 3.4771892,33.6225511 3.36966758,33.6225511 C3.35882212,33.6009768 3.33724783,33.5257583 3.33724783,33.4072746 C3.33724783,33.3104818 3.35882212,33.2351467 3.38039642,33.2135724 C3.43415723,33.2028436 3.4771892,33.1921148 3.53106663,33.1921148 C3.66004593,33.1705405 3.76780079,33.1489662 3.87532242,33.1275085 C4.05841238,33.0737477 4.12290203,32.9768383 4.13363087,32.7401041 C4.16593401,32.2020295 4.19823714,30.6631409 4.12290203,30.2756199 C3.99380612,29.6514813 3.63870487,29.3394121 3.06821053,29.3394121 C2.73468358,29.3394121 2.31485945,29.5008111 1.97060367,29.7592362 C1.91672624,29.8021515 1.87369427,29.9096732 1.87369427,30.0065826 L1.87391191,31.303683 C1.87449228,31.9038889 1.87662031,32.4994686 1.88442311,32.8047104 C1.89526856,32.9336897 1.93818392,33.0844765 2.18576354,33.1382373 C2.23964097,33.1489662 2.32570491,33.1705405 2.43334315,33.1813859 L2.62692872,33.2135724 C2.64861964,33.2781787 2.63777418,33.5364872 2.59474221,33.6225511 C2.48710397,33.6225511 2.35800805,33.6118223 2.20722121,33.6118223 C1.98133251,33.6009768 1.69072092,33.590248 1.36792281,33.590248 C0.991247272,33.590248 0.722209976,33.6009768 0.506933493,33.6118223 C0.356263278,33.590248 0.237896197,33.590248 0.108800277,33.590248 C0.087225982,33.5580615 0.0656516865,33.4611521 0.0764971431,33.342785 C0.0764971431,33.2566044 0.0980714386,33.2028436 0.108800277,33.1813859 C0.3348056,33.1489662 0.453172681,33.116663 0.5822686,33.0844765 C0.797545084,33.0305991 0.88360903,32.9123486 0.894337869,32.6433113 C0.926757621,31.9975985 0.926757621,30.7706625 0.915912164,29.9205186 L0.915912164,29.8989443 C0.915912164,29.8021515 0.915912164,29.6836678 0.797545084,29.5976039 C0.625300573,29.4900823 0.420869546,29.3932895 0.151832251,29.3177211 C0.0550394654,29.2856512 -0.00956680322,29.2317738 0.00116203562,29.1672842 C0.00116203562,29.1026779 0.0657683043,29.0273428 0.20570968,29.0057685 C0.560810922,28.9734654 1.48617327,28.7475767 1.85211997,28.586061 Z M45.0172707,26.0678159 C45.8029249,26.0678159 46.4270634,26.0463582 47.1911433,26.0463582 C48.1273512,26.0463582 49.4187768,26.3798852 49.4187768,27.7789491 C49.4187768,28.4676939 48.934463,29.016614 48.2995957,29.2856512 C48.2674091,29.2963801 48.2674091,29.3178378 48.2995957,29.3285666 C49.2035003,29.5546885 50,30.1142208 50,31.1687957 C50,32.2020295 49.3542872,32.8584712 48.4179627,33.2674499 C47.847585,33.5149129 47.1373825,33.6009768 46.4163346,33.6009768 C45.8674145,33.6009768 44.3931321,33.5364872 43.5752914,33.5580615 C43.4892275,33.5256417 43.6506265,33.1382373 43.725845,33.0737477 C43.9196638,33.0629022 44.0702174,33.0521734 44.2747651,32.9875671 C44.5653767,32.9123486 44.5975632,32.8261681 44.6405951,32.3850029 C44.6592929,32.0585507 44.6617859,31.0126102 44.6621183,30.1230757 L44.6627386,29.1945408 C44.6648255,28.1817589 44.6714655,27.480724 44.6621694,27.1117786 C44.6514406,26.7782516 44.5330735,26.6704968 44.2963394,26.6058905 C44.1132494,26.573704 43.8120256,26.5305554 43.564446,26.4983689 C43.5105685,26.4444915 43.6935419,26.0785448 43.7582648,26.0356294 C43.8657864,26.0356294 44.1885845,26.0678159 45.0172707,26.0678159 Z M38.9153602,26.0356294 C39.9915094,26.0356294 40.8955307,26.3261244 41.5412435,26.8749278 C42.3267811,27.5529438 42.7358764,28.4892682 42.7358764,29.629907 C42.7358764,31.2549763 41.9932542,32.1913007 41.2506319,32.7293753 C40.5082429,33.2781787 39.5396154,33.6009768 38.1621258,33.6009768 C37.430349,33.6009768 36.1712264,33.5795191 35.1272638,33.5686737 L35.1165349,33.5686737 C35.0627741,33.4718809 35.2025989,33.0952054 35.2886628,33.0844765 C35.5685456,33.0521734 35.6438807,33.0413279 35.7838221,32.9876837 C36.0097108,32.9015032 36.0528594,32.7831361 36.0851625,32.3850029 C36.117349,31.6423806 36.1066202,30.7492048 36.1066202,29.7375453 C36.1066202,29.016614 36.117349,27.6067046 36.0957747,27.1546939 C36.0635882,26.778135 35.9021891,26.6812256 35.5792744,26.6166194 C35.4178754,26.5844328 35.2025989,26.5412842 34.9013751,26.5090977 C34.8582265,26.433646 35.0519287,26.1001191 35.1056895,26.0356294 C35.3102371,26.0355128 36.0957747,26.0678159 36.4724503,26.0678159 C37.1505828,26.0678159 37.63478,26.0356294 38.9153602,26.0356294 Z M12.2157118,29.0918324 C11.9897065,29.0918324 11.7852755,29.1455933 11.6344886,29.2532315 C11.2148977,29.51154 10.9996213,30.0281569 10.9996213,30.7813913 C10.9996213,32.1913007 11.7098237,33.1813859 12.7214833,33.1813859 C13.0228237,33.1813859 13.2595579,33.0952054 13.4641055,32.9230775 C13.7760582,32.6646524 13.9375738,32.1481521 13.9375738,31.4271042 C13.9375738,30.0281569 13.248829,29.0918324 12.2157118,29.0918324 Z M31.1993426,29.0918324 C30.9733373,29.0919491 30.7687896,29.1455933 30.6181194,29.2532315 C30.1985285,29.51154 29.983252,30.0281569 29.983252,30.7813913 C29.983252,32.1913007 30.6934545,33.1813859 31.705114,33.1813859 C32.0064545,33.1813859 32.2431886,33.0952054 32.4476197,32.9230775 C32.7596889,32.6646524 32.9212046,32.1481521 32.9212046,31.4271042 C32.9212046,30.0281569 32.2216143,29.0918324 31.1993426,29.0918324 Z M38.0221844,26.5629752 C37.7854502,26.5629752 37.5594449,26.573704 37.4196201,26.6381936 C37.3872004,26.6597679 37.3119819,26.7565607 37.3119819,26.8103215 C37.2964005,26.965799 37.2920723,27.87342 37.29087,28.7305533 L37.2909565,30.5962825 C37.2922739,31.3682097 37.296753,32.0988296 37.3119819,32.2127584 C37.3119819,32.374274 37.3872004,32.621737 37.5487161,32.7293753 C37.8070245,32.9336897 38.312796,33.0197536 38.7648066,33.0197536 C39.3459132,33.0197536 39.9270197,32.9123486 40.4866686,32.4063439 C41.0570464,31.8899603 41.4551796,31.0935772 41.4551796,29.8237258 C41.4551796,28.6075187 40.9924401,27.6174334 40.0453868,27.0364435 C39.5073122,26.7026833 38.8185674,26.5629752 38.0221844,26.5629752 Z M45.8997177,29.7913061 C45.8674145,29.8021515 45.8244992,29.8237258 45.8244992,29.856029 C45.8244992,30.6199923 45.8136537,31.8361994 45.8459569,32.3096678 C45.8674145,32.5140988 46.0182014,32.8047104 46.2011747,32.8907743 C46.3947603,32.9984126 46.8360421,33.0198703 47.1373825,33.0198703 C47.9875264,33.0198703 48.7301486,32.5464019 48.7301486,31.4379496 C48.7301486,30.3725293 47.9444944,29.7805772 46.5239728,29.7805772 C46.4593666,29.7805772 46.0073559,29.7698484 45.8997177,29.7913061 Z M25.065129,29.0380716 C24.4948679,29.0381882 24.13965,29.4793534 24.13965,30.1679816 C24.13965,30.8675719 24.4517193,31.6746838 25.3341663,31.6746838 C25.4848365,31.6746838 25.7647192,31.6100775 25.8936985,31.4594073 C26.0982462,31.2658217 26.2381876,30.8783007 26.2381876,30.4693221 C26.2381876,29.5761462 25.7969058,29.0380716 25.065129,29.0380716 Z M45.9534785,26.6274648 C45.8998343,26.6381936 45.8459569,26.7565607 45.8459569,26.8210504 C45.835228,27.2516033 45.8244992,28.3923588 45.8244992,29.1671676 C45.8244992,29.1887418 45.8566857,29.2317738 45.8889888,29.2317738 C46.0503879,29.2425027 46.4377923,29.2532315 46.7714358,29.2532315 C47.2341753,29.2532315 47.5032126,29.1887418 47.6539994,29.1242522 C48.0412872,28.9304334 48.2242606,28.5107259 48.2242606,28.0478698 C48.2242606,27.0041403 47.4924838,26.6058905 46.4054891,26.6058905 C46.330154,26.5951617 46.1151108,26.5951617 45.9534785,26.6274648 Z M24.914599,7.40719318 C24.9221019,7.42327134 24.9293082,7.4462641 24.9362307,7.47572377 L24.9360567,7.45034177 C24.9360567,7.45034177 25.1729074,8.05290601 25.4203704,8.39727841 C25.6463758,8.88159219 27.7018813,10.1407147 28.5734829,13.9824554 C29.2513747,17.9442708 27.2491168,20.3634743 26.2046029,21.3261313 C26.2056752,21.3279993 26.2058499,21.3303792 26.2060246,21.3327595 C26.2060246,21.3327595 26.1992228,21.3361592 26.1868708,21.3428593 C25.9214282,21.5851717 25.7222616,21.7310766 25.6469222,21.7839218 C25.5438576,21.9104399 25.4565179,22.0625606 25.4203704,22.2367808 C25.3078863,22.7239752 25.3585457,23.6841619 25.3735482,23.9246158 L25.3772218,23.9802171 L24.9360567,23.8294303 L24.93617,23.6509452 C24.931329,23.2883371 24.8938238,22.4540246 24.6624705,21.9119773 C24.2392425,21.604354 21.0978471,19.1775363 21.2986304,15.1125986 C21.5030615,10.7541244 24.0643385,8.6125549 24.5593811,8.22515052 C24.8822958,7.88077812 24.8930247,7.75156558 24.914599,7.40719318 Z" id="path-1"></path>
    </defs>
    <g id="Icons/Programing-Languages/MongoDB" stroke="none" stroke-width="1" fill="none" fill-rule="evenodd">
        <mask id="mask-2" fill="white">
            <use xlink:href="#path-1"></use>
        </mask>
        <use id="Combined-Shape" fill="#8E714E" fill-rule="nonzero" xlink:href="#path-1"></use>
        <rect id="Icon-Color" fill="#08D9D6" mask="url(#mask-2)" x="0" y="0" width="50" height="50"></rect>
    </g>
</svg>