<?xml version="1.0" encoding="UTF-8"?>
<svg width="50px" height="50px" viewBox="0 0 50 50" version="1.1" xmlns="http://www.w3.org/2000/svg" xmlns:xlink="http://www.w3.org/1999/xlink">
    <title>Icons/Programing Languages/netCore</title>
    <defs>
        <path d="M2.4230812,25.4986214 C2.29516579,25.3627113 2.13926889,25.2547827 1.96738257,25.1788329 C1.79549624,25.1028832 1.61161785,25.066907 1.42374209,25.066907 C1.23586634,25.0629096 1.05198795,25.1028832 0.880101624,25.1748356 C0.708215299,25.2507853 0.552318399,25.358714 0.424402994,25.4946241 C0.292490233,25.6265368 0.188558967,25.7824337 0.120603908,25.9543201 C0.0526488491,26.1302038 0.0166726415,26.3140822 0.0166726415,26.4979605 C0.0126752851,26.6858363 0.0486514927,26.8697147 0.120603908,27.041601 C0.192556323,27.2134873 0.29648759,27.3693842 0.428400351,27.501297 C0.687154071,27.7762531 1.050255,27.9287555 1.42773945,27.9210194 C1.80412049,27.9230889 2.16505112,27.771498 2.42707855,27.501297 C2.56298867,27.3733816 2.66691994,27.2174847 2.73887235,27.0455984 C2.81082477,26.873712 2.84680097,26.6898337 2.84680097,26.5019579 C2.84680097,26.3140822 2.81082477,26.1302038 2.73887235,25.9583174 C2.66292258,25.7824337 2.55899131,25.6265368 2.4230812,25.4986214 Z M19.1520177,22.252768 C19.132031,23.1481759 19.1760019,24.0475811 19.2799331,24.9389915 L19.2319649,24.9389915 C19.1200389,24.7191369 18.8722028,24.3114066 18.4924539,23.7158005 L9.37848133,9.40926193 L6.6123107,9.40926193 L6.6123107,27.6731833 L8.73890431,27.6731833 L8.73890431,14.4699151 C8.76288845,13.6344676 8.72691224,12.7990202 8.6389704,11.9635727 L8.71891753,11.9635727 C8.87081707,12.3633083 9.06668753,12.7470545 9.29853421,13.1068166 L18.6603429,27.6731833 L21.2786113,27.6731833 L21.2786113,9.40926193 L19.1520177,9.40926193 L19.1520177,22.252768 Z M35.6970759,25.6665104 L28.1820458,25.6665104 L28.1820458,19.3386952 L34.7576971,19.3386952 L34.7576971,17.4119694 L28.1820458,17.4119694 L28.1820458,11.3439824 L35.2373799,11.3439824 L35.2373799,9.40926193 L26.0034866,9.40926193 L26.0034866,27.6731833 L35.6850838,27.6731833 L35.6970759,25.6665104 Z M37.3239999,9.40926193 L37.3239999,11.3439824 L42.5605368,11.3439824 L42.5605368,27.6731833 L44.6871304,27.6731833 L44.6871304,11.3439824 L49.9836277,11.3439824 L49.9836277,9.40926193 L37.3239999,9.40926193 Z M16.4817837,32.2141802 C15.9506192,32.4261139 15.4708821,32.7491187 15.0747142,33.1615537 C14.6669839,33.5972655 14.3471953,34.1089271 14.1393328,34.6725544 C13.9314703,35.2361816 13.8395311,35.8317877 13.8635152,36.4273938 C13.8235417,37.5306642 14.2072879,38.6099504 14.9428014,39.4334059 C15.3105582,39.8211494 15.7582622,40.1209512 16.2539343,40.320819 C16.7496065,40.5206868 17.2812549,40.6086286 17.8129033,40.5846445 C18.6123746,40.612626 19.4078485,40.444737 20.1313701,40.0929697 L20.1393648,39.1615856 C19.4758036,39.5493292 18.7203032,39.7412023 17.9528108,39.7212155 C17.5410831,39.7372049 17.1293554,39.6652525 16.7496065,39.5093556 C16.3698577,39.3534587 16.026085,39.1136173 15.7462701,38.8098183 C15.1611255,38.1301504 14.8604711,37.2510942 14.9068252,36.3554414 C14.858857,35.408068 15.1826428,34.4806813 15.8062304,33.7691518 C16.1020348,33.4413686 16.4657942,33.1855378 16.8695272,33.0096541 C17.2748027,32.8372763 17.7124226,32.7541149 18.1526786,32.7658154 C18.852216,32.7538233 19.5397613,32.9257096 20.1513568,33.2654849 L20.1513568,32.2621485 C19.5170701,32.0063812 18.8361758,31.8865438 18.1526786,31.9103811 C17.5810567,31.9023864 17.0094347,32.0023203 16.4817837,32.2141802 Z M26.4471932,35.0762874 C25.9065022,34.5076375 25.1441747,34.2038748 24.3605731,34.2448373 C23.9488454,34.2248505 23.5411151,34.2928055 23.1573689,34.4407077 C22.7736226,34.5886099 22.4258526,34.8124619 22.1300483,35.0962742 C21.8422386,35.4160627 21.622384,35.7878168 21.4784792,36.1955472 C21.3345743,36.6032775 21.274614,37.0309947 21.3025955,37.4627092 C21.2626219,38.2821672 21.5464342,39.0856359 22.0900747,39.6972314 C22.3618949,39.9890384 22.6896782,40.2208851 23.0574349,40.376782 C23.4251917,40.5286815 23.82093,40.6046313 24.2166683,40.5886419 C24.6204013,40.6006339 25.0241343,40.5246842 25.3998858,40.3687873 C25.7756373,40.2128904 26.1114152,39.9770463 26.3872328,39.6772446 C26.9478336,39.0452904 27.2378059,38.2184385 27.1946988,37.3747673 C27.2426671,36.5353225 26.9748442,35.7158644 26.4471932,35.0762874 L26.4471932,35.0762874 Z M25.7156769,39.1815724 C25.3592367,39.5930534 24.8321427,39.8159979 24.2886207,39.7851732 C24.0128031,39.7971653 23.7409829,39.7451997 23.4891494,39.6412684 C23.237316,39.5333398 23.013464,39.3734455 22.8295856,39.165583 C22.4464945,38.6913507 22.2540711,38.0912749 22.2899425,37.4826959 C22.2539663,36.855111 22.4458394,36.2355207 22.8295856,35.7398485 C23.0094667,35.531986 23.2333186,35.3680944 23.4851521,35.2561684 C23.7369855,35.1482398 24.0128031,35.0962742 24.2846234,35.1082662 C24.5564436,35.0922768 24.8242665,35.1442424 25.0721026,35.2521711 C25.3199387,35.3600997 25.5397933,35.5239913 25.7156769,35.7318538 C26.0789693,36.2344076 26.2556678,36.8479046 26.2153465,37.4667065 C26.2553201,38.0743047 26.0794364,38.6859002 25.7156769,39.1815724 L25.7156769,39.1815724 Z M30.348613,34.6845465 C30.0488113,34.9523693 29.8289567,35.3001393 29.7210281,35.6878829 L29.7210281,34.432713 L28.721689,34.432713 L28.721689,40.444737 L29.7210281,40.444737 L29.7210281,37.3787647 C29.6890492,36.8231321 29.832954,36.2674996 30.1287584,35.7958115 C30.236687,35.6239252 30.3805919,35.4800204 30.5564755,35.3800865 C30.7323592,35.2801526 30.9282297,35.2201922 31.1280975,35.2161949 C31.3839283,35.1962081 31.6397591,35.2641631 31.8556164,35.408068 L31.8556164,34.4167236 C31.671738,34.3567632 31.4798649,34.3287817 31.2879918,34.3367764 C30.9442191,34.3327791 30.6124385,34.4566971 30.348613,34.6845465 L30.348613,34.6845465 Z M37.7037488,37.1669048 C37.7517171,36.4034097 37.5238678,35.6519067 37.0641718,35.0443085 C36.8363225,34.7884777 36.5565075,34.5846125 36.2407164,34.4526998 C35.9249252,34.320787 35.5851499,34.2608267 35.2453746,34.2808135 C34.8696231,34.2688214 34.4938716,34.3447712 34.1461016,34.4966707 C33.8023289,34.6485702 33.4945325,34.8764196 33.2466964,35.1642292 C32.7039399,35.7974886 32.4224072,36.6135048 32.4592172,37.4467197 C32.4072516,38.2781699 32.6670797,39.1016253 33.1867361,39.749197 C33.4385695,40.0250146 33.7503633,40.2408719 34.094136,40.3847767 C34.4379086,40.5286815 34.8136601,40.5886419 35.1854143,40.5726524 C35.9249252,40.6086286 36.6564414,40.4087608 37.2720343,40.0010305 L37.2720343,39.0976279 C36.7460649,39.524973 36.0909148,39.7616724 35.4132636,39.7691838 C35.1534354,39.7851732 34.8896099,39.7451997 34.6457711,39.6492631 C34.4019324,39.5533266 34.1780804,39.4134191 33.9942021,39.2255433 C33.6370633,38.7933045 33.4558125,38.2424159 33.4865378,37.6825638 L37.7117435,37.6825638 L37.7037488,37.1669048 Z M33.4785431,36.8870898 C33.5305087,36.4114044 33.7383712,35.9637005 34.0661545,35.6159305 C34.3631938,35.2967395 34.7814141,35.1181245 35.2173931,35.1242557 C35.4252556,35.1122636 35.6291208,35.1482398 35.8209939,35.2281869 C36.012867,35.3081341 36.180756,35.4280547 36.3166661,35.5839516 C36.5964811,35.9557058 36.7363885,36.4114044 36.7164018,36.8750978 L33.4785431,36.8870898 Z" id="path-1"></path>
    </defs>
    <g id="Icons/Programing-Languages/.netCore" stroke="none" stroke-width="1" fill="none" fill-rule="evenodd">
        <mask id="mask-2" fill="white">
            <use xlink:href="#path-1"></use>
        </mask>
        <use id="Shape" fill="#621EE5" fill-rule="nonzero" xlink:href="#path-1"></use>
        <rect id="Icon-Color" fill="#08D9D6" mask="url(#mask-2)" x="0" y="0" width="50" height="50"></rect>
    </g>
</svg>