<?xml version="1.0" encoding="UTF-8"?>
<svg width="50px" height="50px" viewBox="0 0 50 50" version="1.1" xmlns="http://www.w3.org/2000/svg" xmlns:xlink="http://www.w3.org/1999/xlink">
    <title>Icons/Programing Languages/nodeJS</title>
    <defs>
        <path d="M27.0458818,0.536283711 C33.2769506,4.05716254 39.509978,7.57252163 45.7399785,11.0955371 C46.9117649,11.7555906 47.6955673,13.0596726 47.6837718,14.409871 L47.6837718,35.5928341 C47.6923622,36.9989422 46.8311055,38.3341839 45.5948629,38.9792807 C39.3842705,42.4807514 33.1768831,45.9864955 26.9673591,49.4879662 C25.7020934,50.2114076 24.0550756,50.1556761 22.8293383,49.3729421 C20.967407,48.2935667 19.1022706,47.2195331 17.2401613,46.1412261 C16.8596556,45.9143828 16.4307188,45.7338341 16.1620323,45.3649021 C16.399559,45.0447575 16.8242225,45.0048729 17.169295,44.865099 C17.9465093,44.6179573 18.6603357,44.2212486 19.3743402,43.8362916 C19.5548889,43.7127207 19.7753222,43.7600836 19.9483926,43.8706564 C21.5405691,44.7835493 23.1186792,45.7229727 24.7161974,46.6271409 C25.0569966,46.8238927 25.402069,46.5626846 25.6933686,46.4002976 C31.7878685,42.9558048 37.8898467,39.52431 43.9832783,36.0787489 C44.2090532,35.9701347 44.3338705,35.7304714 44.3155307,35.4831517 C44.319804,28.495345 44.316599,21.5062919 44.3176674,14.5184852 C44.3434855,14.237869 44.1810984,13.9798659 43.9273687,13.8650197 C37.7383211,10.3795741 31.5524785,6.88878669 25.3644992,3.40245072 C25.1450511,3.25158265 24.8554275,3.25115819 24.6355381,3.40138239 C18.4475588,6.88878669 12.2627846,10.3827791 6.0748053,13.8680467 C5.82196581,13.9830709 5.65227847,14.2368006 5.68236993,14.5184852 L5.68236993,35.48422 L5.68236993,35.48422 C5.66039368,35.7313723 5.79468249,35.966058 6.01889572,36.0723389 C7.67018682,37.0087352 9.3236146,37.9385435 10.975974,38.8717349 C11.9068507,39.3727844 13.049792,39.670494 14.0753944,39.2866053 C14.9804529,38.9620093 15.6148663,38.0384329 15.5975949,37.0774648 C15.6061416,30.130433 15.5933215,23.1823328 15.6040049,16.2363692 C15.5813918,15.9279763 15.8739378,15.6731782 16.173784,15.7022013 C16.9672014,15.6968596 17.7616872,15.6915179 18.5551046,15.704338 C18.8862887,15.6968596 19.1142004,16.028934 19.0732475,16.3396417 C19.0700425,23.3306534 19.0817942,30.3218431 19.0679058,37.3128548 C19.0700425,39.1760326 18.3045799,41.2033779 16.5811761,42.1150245 C14.4580367,43.2148762 11.8338477,42.9816229 9.73634834,41.9269973 C7.92053352,41.0206924 6.18769278,39.9511102 4.40410609,38.980171 C3.16465846,38.3386353 2.30767506,36.9980519 2.31624655,35.5930122 L2.31624655,14.409871 C2.30340171,13.0317178 3.11836391,11.7039544 4.32665175,11.0535159 C10.5361758,7.5491963 16.7446315,4.04220584 22.9530872,0.536283711 C24.1927129,-0.173269345 25.8073244,-0.176474352 27.0458818,0.536283711 Z M36.414831,16.4407775 C38.3016902,17.4631749 39.347769,19.6089274 39.3810655,21.7051804 C39.3283609,21.9879333 39.032788,22.1439103 38.7628552,22.1245022 C37.9770941,22.1234339 37.1911551,22.1351856 36.4053941,22.1191605 C36.0720733,22.1319806 35.8783484,21.824656 35.8365052,21.5299733 C35.6107302,20.526984 35.0637423,19.5336097 34.1196895,19.0498317 C32.670492,18.3242536 30.9901777,18.360755 29.409931,18.3758898 C28.2563063,18.437141 27.0157903,18.5370304 26.0384411,19.2154237 C25.2881132,19.7292932 25.0602016,20.7666474 25.3279978,21.602086 C25.5804811,22.2019566 26.2729408,22.3955034 26.8395149,22.5739155 C30.1032809,23.4275158 33.5618402,23.3425831 36.7632866,24.4659383 C38.0887352,24.9238982 39.3853388,25.8141781 39.8390255,27.2019464 C40.432486,29.0619191 40.1723462,31.285126 38.8490342,32.7783034 C37.7758909,34.0070676 36.2129156,34.6758459 34.6540355,35.0390801 C32.5802176,35.5014914 30.428055,35.5132431 28.322009,35.3079446 C26.3416704,35.0821696 24.2808506,34.56189 22.752062,33.2125819 C21.444775,32.077475 20.8062663,30.3088451 20.8696542,28.6018224 C20.884789,28.3135498 21.1718152,28.1125246 21.44798,28.1362061 C22.2392608,28.129796 23.0305415,28.1276594 23.8218223,28.1372744 C24.1378716,28.1146613 24.3721933,28.3877991 24.3883964,28.6856868 C24.5344023,29.6413132 24.8935412,30.6443025 25.7268431,31.2108766 C27.3350447,32.2484088 29.352953,32.1773644 31.1944079,32.2063876 C32.7199915,32.1387263 34.4325339,32.1182499 35.6775012,31.1099189 C36.3343497,30.5347981 36.5289649,29.5725836 36.3514431,28.7448014 C36.1591426,28.0459317 35.4280448,27.7202673 34.8002195,27.5073124 C31.5782966,26.48812 28.0810992,26.8579422 24.8903362,25.7053859 C23.594979,25.247604 22.3423552,24.3820739 21.8446887,23.0512836 C21.1502704,21.1678075 21.4684565,18.8381231 22.9304741,17.3953355 C24.3559902,15.9602044 26.4137831,15.4075187 28.3702621,15.2096985 C31.0784935,15.0355597 33.9777789,15.1066041 36.414831,16.4407775 Z" id="path-1"></path>
    </defs>
    <g id="Icons/Programing-Languages/nodeJS" stroke="none" stroke-width="1" fill="none" fill-rule="evenodd">
        <mask id="mask-2" fill="white">
            <use xlink:href="#path-1"></use>
        </mask>
        <use id="Combined-Shape" fill="#8CC84B" fill-rule="nonzero" xlink:href="#path-1"></use>
        <rect id="Icon-Color" fill="#08D9D6" mask="url(#mask-2)" x="0" y="0" width="50" height="50"></rect>
    </g>
</svg>