<?xml version="1.0" encoding="UTF-8"?>
<svg width="50px" height="50px" viewBox="0 0 50 50" version="1.1" xmlns="http://www.w3.org/2000/svg" xmlns:xlink="http://www.w3.org/1999/xlink">
    <title>Icons/Programing Languages/Php</title>
    <defs>
        <path d="M12.5589906,17.8908518 C16.3503381,18.1278955 18.246147,20.0234341 18.246147,23.3412348 C18.246147,29.0283912 13.7439388,32.3459216 9.71527729,32.1088779 L5.450383,32.1088779 L4.50247855,37.0851736 L2.73558953e-13,37.0851736 L3.79161779,17.8908518 L12.5589906,17.8908518 Z M10.663452,21.4454259 L7.58296529,21.4454259 L6.39828745,28.5545741 L9.2417305,28.5545741 C11.3743128,28.3175304 13.2701217,27.6066697 13.5068951,23.5780082 C13.5068951,22.1562867 12.3222172,21.4454259 10.663452,21.4454259 L10.663452,21.4454259 Z M44.3125733,17.8908518 C48.1041911,18.1278955 50,20.0234341 50,23.3412348 C50,29.0283912 45.4975214,32.3459216 41.4691303,32.1088779 L37.2036954,32.1088779 L36.2557909,37.0851736 L31.7535827,37.0851736 L35.5449302,17.8908518 L44.3125733,17.8908518 Z M25.6591004,12.9148264 L24.7111959,17.8908518 L28.9763605,17.8908518 C32.7679783,18.1278955 34.1896998,20.0234341 33.7158827,22.3933303 L32.0571175,32.1088779 L27.3178656,32.1088779 L28.9766308,23.3412348 C29.2134042,22.1562867 29.2134042,21.4454259 27.5549093,21.4454259 L24.0003352,21.4454259 L21.8677529,32.1088779 L17.3652743,32.1088779 L21.1566218,12.9148264 L25.6591004,12.9148264 Z M42.4170347,21.4454259 L39.3362777,21.4454259 L38.1515998,28.5545741 L40.9953132,28.5545741 C43.1278955,28.3175304 45.0237044,27.6066697 45.2604778,23.5780082 C45.2604778,22.1562867 44.0757999,21.4454259 42.4170347,21.4454259 L42.4170347,21.4454259 Z" id="path-1"></path>
    </defs>
    <g id="Icons/Programing-Languages/Php" stroke="none" stroke-width="1" fill="none" fill-rule="evenodd">
        <mask id="mask-2" fill="white">
            <use xlink:href="#path-1"></use>
        </mask>
        <use id="Shape" fill="#232531" fill-rule="nonzero" xlink:href="#path-1"></use>
        <rect id="Icon-Color" fill="#08D9D6" mask="url(#mask-2)" x="0" y="0" width="50" height="50"></rect>
    </g>
</svg>