<?xml version="1.0" encoding="UTF-8"?>
<svg width="50px" height="50px" viewBox="0 0 50 50" version="1.1" xmlns="http://www.w3.org/2000/svg" xmlns:xlink="http://www.w3.org/1999/xlink">
    <title>Icons/Programing Languages/Python</title>
    <defs>
        <linearGradient x1="12.7936051%" y1="12.432772%" x2="79.7713436%" y2="77.9084692%" id="linearGradient-1">
            <stop stop-color="#387EB8" offset="0%"></stop>
            <stop stop-color="#366994" offset="100%"></stop>
        </linearGradient>
        <path d="M42.9128803,12.7155635 C43.2047049,12.7026596 49.9896277,12.5373395 49.9896277,25.0641909 C49.9896277,37.8665534 41.8706554,36.9457665 41.8706554,36.9457665 L24.9538139,36.9457665 L24.9538139,38.6571972 L37.061819,38.6571972 L37.0759096,44.3574649 C37.0759096,44.3574649 37.8681191,49.8596803 25.1802433,49.8596803 C11.9205207,49.8596803 12.9450307,43.2259049 12.9450307,43.2259049 L12.9450307,32.2639419 C12.9450307,25.9601394 19.0446129,25.7486651 19.6445718,25.7431113 L31.7007061,25.7430877 C38.9020228,25.7430877 38.6740277,18.6566492 38.6740277,18.6566492 L38.6740277,12.7160571 Z M31.8564864,41.670058 C31.2786028,41.6695389 30.7242412,41.8988854 30.315634,42.3075294 C29.9070268,42.7161733 29.67773,43.2705555 29.6783008,43.8484391 C29.677782,44.4262887 29.9071017,44.9806206 30.3157033,45.3892222 C30.7243049,45.7978238 31.2786367,46.0271434 31.8564864,46.0266244 C32.4343361,46.0269477 32.9886679,45.7976281 33.3972695,45.3890265 C33.8058711,44.9804249 34.0351908,44.426093 34.0346718,43.8482434 C34.0351908,43.2703937 33.8058711,42.7160618 33.3972695,42.3074603 C32.9886679,41.8988587 32.4343361,41.669539 31.8564864,41.670058 Z M24.8199524,0.140319702 C38.079675,0.140319702 37.0549693,6.77429077 37.0549693,6.77429077 L37.0549693,17.7360581 C37.0549693,24.0396745 30.9553871,24.2511397 30.3554282,24.256693 L18.2992939,24.2567166 C11.3195562,24.2567166 11.3189755,30.9137756 11.3255478,31.3234408 L11.3259723,37.2839429 L7.09437042,37.2840833 C6.94523362,37.2921743 0.0103723071,37.6003161 0.0103723071,24.9356134 C0.0103723071,12.1336423 8.12934463,13.0544292 8.12934463,13.0544292 L8.12934463,13.0544292 L25.0461861,13.0544292 L25.0461861,11.3429985 L12.9383768,11.3429985 L12.9242861,5.64253507 C12.9242861,5.64253507 12.1320767,0.140319702 24.8199524,0.140319702 Z M18.1437093,3.97376697 C17.5658596,3.97324797 17.0115278,4.20256765 16.6029262,4.61116923 C16.1943246,5.01977081 15.9650049,5.57410268 15.9655239,6.15195234 C15.9650049,6.72980201 16.1943246,7.28413387 16.6029262,7.69273545 C17.0115278,8.10133704 17.5658596,8.33065672 18.1437093,8.33013772 C18.721559,8.33065672 19.2758908,8.10133704 19.6844924,7.69273545 C20.093094,7.28413387 20.3224137,6.72980201 20.3218947,6.15195234 C20.3224137,5.57410268 20.093094,5.01977081 19.6844924,4.61116923 C19.2758908,4.20256765 18.721559,3.97324797 18.1437093,3.97376697 Z" id="path-2"></path>
    </defs>
    <g id="Icons/Programing-Languages/Python" stroke="none" stroke-width="1" fill="none" fill-rule="evenodd">
        <mask id="mask-3" fill="white">
            <use xlink:href="#path-2"></use>
        </mask>
        <use id="Combined-Shape" fill="url(#linearGradient-1)" fill-rule="nonzero" xlink:href="#path-2"></use>
        <rect id="Icon-Color" fill="#08D9D6" mask="url(#mask-3)" x="0" y="0" width="50" height="50"></rect>
    </g>
</svg>