<?xml version="1.0" encoding="UTF-8"?>
<svg width="50px" height="50px" viewBox="0 0 50 50" version="1.1" xmlns="http://www.w3.org/2000/svg" xmlns:xlink="http://www.w3.org/1999/xlink">
    <title>Icons/Programing Languages/Reactjs</title>
    <defs>
        <path d="M35.1479802,2.74487472 L35.1479716,2.75487472 L35.4169355,2.76188093 C36.0618441,2.79376932 36.6608764,2.93795182 37.1948603,3.20401451 L37.4196721,3.32553138 C40.2923945,4.97581874 40.9443599,10.13042 39.4774378,16.6093259 C45.8341002,18.5550351 49.9801925,21.6926185 49.9801925,25.0033802 C49.9801925,28.3039549 45.8544741,31.4415383 39.5385595,33.3872475 C41.0156686,39.8457795 40.3738902,44.9901938 37.5113547,46.6404811 C36.8390154,47.0275856 36.0648065,47.2109508 35.209102,47.2109508 C32.4076882,47.2109508 28.740383,45.2346808 25.0323299,41.7914886 C21.3242768,45.2550547 17.6569716,47.2516987 14.8555578,47.2516987 C13.9998533,47.2516987 13.2256444,47.0683334 12.5634921,46.681229 C9.69076961,45.0309416 9.03880423,39.8763403 10.5057263,33.3974344 C4.1490639,31.4517252 0.00297158331,28.3141419 0.00297158331,25.0033802 C0.00297158331,21.7028055 4.12868999,18.575409 10.4649785,16.6195129 C8.98786944,10.1609809 9.62964786,5.01656658 12.4921833,3.36627922 C13.1645226,2.97917477 13.9387315,2.79580951 14.7944361,2.79580951 L14.7944361,2.79580951 L14.7944361,2.78562255 C17.5958498,2.78562255 21.2631551,4.7618926 24.9712081,8.20508475 C28.6792612,4.74151868 32.3465665,2.74487472 35.1479802,2.74487472 L35.1479802,2.74487472 Z M12.6857356,34.008652 C12.4616225,35.0375348 12.2782572,36.0460438 12.1662007,37.0036179 C11.6976005,40.8950362 12.2986311,43.9205631 13.6840575,44.7151459 C13.9896663,44.8883242 14.3767708,44.9800068 14.8351839,44.9901938 C16.9540714,44.9901938 20.0712809,43.2991586 23.3922295,40.21251 C21.9558683,38.715027 20.529694,37.0036179 19.1544545,35.1190305 C16.8623888,34.8745435 14.6823795,34.497626 12.6857356,34.008652 Z M37.3178025,33.988278 C35.3211585,34.487439 33.1411493,34.8643565 30.8388965,35.1088435 C29.484031,36.9934309 28.0578567,38.6946531 26.6316825,40.1921361 C29.9526311,43.2584107 33.0800275,44.939259 35.188728,44.939259 C35.6573282,44.939259 36.0546196,44.8577633 36.3602283,44.674398 C37.7354678,43.8696283 38.3263114,40.8441015 37.8475243,36.9526831 C37.7354678,36.0052959 37.5521025,35.0171609 37.3178025,33.988278 Z M27.8133697,35.3431436 C26.8863564,35.3940784 25.9389693,35.4144523 24.9813951,35.4144523 C24.0340079,35.4144523 23.0968077,35.3838914 22.1799814,35.3431436 C23.1171816,36.5350178 24.0645688,37.6250224 25.011956,38.6029705 C25.9491562,37.6250224 26.8965434,36.5350178 27.8133697,35.3431436 Z M24.9915821,16.8741869 C23.4431643,16.8741869 21.9049335,16.9454956 20.3870766,17.0779261 C19.541559,18.2901742 18.7266023,19.5941049 17.9320195,20.9693444 C17.1679975,22.303836 16.4549104,23.6688885 15.8233189,25.0339411 C16.4650974,26.3989936 17.1679975,27.7538591 17.9422064,29.0883507 C18.7367892,30.4534033 19.5619329,31.747147 20.4074505,32.9593952 C21.9151204,33.0816387 23.4533512,33.1529474 24.9915821,33.1529474 C26.5399998,33.1529474 28.0782306,33.0816387 29.5960875,32.9492082 C30.4416051,31.7369601 31.2565619,30.4330293 32.0511447,29.0577899 C32.8151666,27.7232982 33.5180668,26.3582457 34.1598452,24.9931932 C33.5180668,23.6281407 32.8151666,22.2732752 32.0409577,20.9387835 C31.2463749,19.573731 30.4212312,18.2799872 29.5757136,17.0677391 C28.0680437,16.9454956 26.5298129,16.8741869 24.9915821,16.8741869 Z M35.3415324,27.7334852 C34.9238671,28.5484419 34.4858279,29.3735856 34.0172278,30.1885423 C33.5486276,31.013686 33.0494666,31.8184558 32.5503057,32.6028516 C34.0070408,32.3889255 35.4128411,32.1138776 36.7473328,31.7878949 C36.3602283,30.4635902 35.8916282,29.0985377 35.3415324,27.7334852 Z M14.6314447,27.774233 C14.1017229,29.1290986 13.6331228,30.4839641 13.2562053,31.7980818 C14.5906969,32.1240645 15.9863103,32.3889255 17.4328585,32.6028516 C16.9336975,31.8286427 16.4447234,31.0340599 15.9659364,30.2191032 C15.4871493,29.4041465 15.0491101,28.5891898 14.6314447,27.774233 Z M11.0252612,18.8198961 C10.0371262,19.1356918 9.07955207,19.4718614 8.2034736,19.8487789 C4.5972901,21.3768228 2.26447649,23.4040276 2.26447649,25.0033802 C2.26447649,26.6027327 4.5972901,28.6197506 8.2034736,30.1579814 C9.08973903,30.5348989 10.0473132,30.8812555 11.0558221,31.1970513 C11.6262918,29.2105943 12.3801268,27.1426416 13.317327,25.0237541 C12.3699398,22.8946797 11.6059179,20.81654 11.0252612,18.8198961 Z M38.917155,18.8097091 C38.3466853,20.7961661 37.5928504,22.8641188 36.6556501,24.9830063 C37.6030373,27.1120807 38.3670593,29.1902203 38.9477159,31.1868643 C39.9358509,30.8710686 40.8934251,30.5348989 41.7695036,30.1579814 C45.3756871,28.6299376 47.7085007,26.6027327 47.7186876,25.0033802 C47.7186876,23.4040276 45.385874,21.3870097 41.7796905,19.8487789 C40.8832381,19.4718614 39.925664,19.1255048 38.917155,18.8097091 Z M24.9813951,20.3479399 C27.5525238,20.3479399 29.6368354,22.4322515 29.6368354,25.0033802 C29.6368354,27.5745088 27.5525238,29.6588204 24.9813951,29.6588204 C22.4102664,29.6588204 20.3259548,27.5745088 20.3259548,25.0033802 C20.3259548,22.4322515 22.4102664,20.3479399 24.9813951,20.3479399 Z M17.4226715,17.4039087 C15.9659364,17.6178349 14.560136,17.8928828 13.2256444,18.2086785 C13.6127488,19.5329832 14.081349,20.8980357 14.6314447,22.2630882 C15.0491101,21.4481315 15.4871493,20.6331748 15.9557494,19.818218 C16.4243495,18.9930744 16.9235105,18.1883046 17.4226715,17.4039087 Z M32.5401187,17.4039087 C33.0392797,18.1781176 33.5384407,18.9727004 34.0070408,19.7876572 C34.4858279,20.6026139 34.9238671,21.4175706 35.3415324,22.2325273 C35.8712543,20.8776618 36.3398544,19.5227962 36.7167719,18.2086785 C35.3822803,17.8826958 33.9866669,17.6178349 32.5401187,17.4039087 Z M14.7944361,5.05731441 L14.7944361,5.06750137 C14.325836,5.06750137 13.9285446,5.14899704 13.6229358,5.33236231 C12.2476963,6.13713207 11.6568527,9.1626589 12.1356398,13.0540772 C12.2578833,14.0014644 12.4310616,14.9895995 12.6653616,16.0082954 C14.6620056,15.5091344 16.8420148,15.1322169 19.1442676,14.8877299 C20.4991331,13.0031424 21.9253074,11.3019203 23.3514817,9.80443732 C20.030533,6.73816265 16.9031366,5.05731441 14.7944361,5.05731441 L14.7944361,5.05731441 Z M35.1369716,5.01587472 L34.9398367,5.02183565 C32.8277704,5.12711787 29.8047559,6.80717108 26.5909346,9.79425036 C28.0272958,11.2917333 29.4534701,13.0031424 30.8287096,14.8877299 C33.1207754,15.1322169 35.3007846,15.5091344 37.2974286,15.9981084 C37.5215417,14.9692255 37.7049069,13.9607166 37.8169635,13.0031424 C38.2855636,9.1117241 37.684533,6.08619727 36.2991066,5.29161447 C35.9833108,5.11843617 35.6063934,5.02675354 35.1377932,5.02675354 L35.1377932,5.02675354 L35.1369716,5.01587472 Z M24.9610212,11.4037899 C24.023821,12.3817379 23.0764338,13.4717426 22.1596075,14.6636168 C23.0866207,14.612682 24.0340079,14.5923081 24.9915821,14.5923081 C25.9389693,14.5923081 26.8761695,14.6228689 27.7929958,14.6636168 C26.8557956,13.4717426 25.9084084,12.3817379 24.9610212,11.4037899 Z" id="path-1"></path>
    </defs>
    <g id="Icons/Programing-Languages/Reactjs" stroke="none" stroke-width="1" fill="none" fill-rule="evenodd">
        <mask id="mask-2" fill="white">
            <use xlink:href="#path-1"></use>
        </mask>
        <use id="Combined-Shape" fill="#61DAFB" fill-rule="nonzero" xlink:href="#path-1"></use>
        <rect id="Icon-Color" fill="#08D9D6" mask="url(#mask-2)" x="0" y="0" width="50" height="50"></rect>
    </g>
</svg>