<?xml version="1.0" encoding="UTF-8"?>
<svg width="50px" height="50px" viewBox="0 0 50 50" version="1.1" xmlns="http://www.w3.org/2000/svg" xmlns:xlink="http://www.w3.org/1999/xlink">
    <title>Icons/Programing Languages/Sass</title>
    <defs>
        <path d="M43.0336083,27.7806213 C41.2862603,27.7904806 39.7731937,28.210137 38.50417,28.8349847 C38.0356075,27.9076213 37.5670449,27.0973008 37.4890487,26.4921718 C37.4011933,25.7893279 37.2938143,25.3597146 37.4011933,24.5203043 C37.5084746,23.6806987 37.9965606,22.4897689 37.9965606,22.3921517 C37.9867012,22.3042962 37.889084,21.8747805 36.8837245,21.8650188 C35.8783649,21.855257 35.0094742,22.0602532 34.911857,22.3238196 C34.8142398,22.5873861 34.6190054,23.1926127 34.492103,23.8173628 C34.316392,24.7349645 32.4811886,27.9856174 31.4366845,29.6939185 C31.0950243,29.0301215 30.8021727,28.4444183 30.7435048,27.9757581 C30.6557469,27.2730118 30.5482704,26.8433985 30.6557469,26.0039882 C30.7631258,25.1643826 31.2512118,23.9735503 31.2512118,23.8759331 C31.2414501,23.7880777 31.1438329,23.358562 30.1384733,23.3488002 C29.1329185,23.3390385 28.264223,23.5440347 28.1666058,23.8076011 C28.0689886,24.0711676 27.9616097,24.6959177 27.7468519,25.3011443 C27.5417581,25.906371 25.1013281,31.3338875 24.4668162,32.7493369 C24.1446795,33.4717042 23.8616872,34.0476457 23.6565934,34.4381145 C23.4515973,34.8285833 23.6468317,34.4673997 23.6273083,34.5064466 C23.4515973,34.8383451 23.3539801,35.0238177 23.3539801,35.0238177 L23.3539801,35.0336771 C23.217316,35.2777201 23.0708902,35.5119038 23.0024606,35.5119038 C22.953652,35.5119038 22.8560348,34.8578685 23.021984,33.9598878 C23.3831677,32.0757782 24.2617225,29.137598 24.2520584,29.0302191 C24.2520584,28.9814105 24.41791,28.4639417 23.685781,28.2004729 C22.9731754,27.9369064 22.7194683,28.3761838 22.6608004,28.3761838 C22.60223,28.3761838 22.5534214,28.5323714 22.5534214,28.5323714 C22.5534214,28.5323714 23.3441208,25.2232458 21.0403548,25.2232458 C19.5956202,25.2232458 17.6042292,26.7948828 16.6182955,28.2298556 C15.9935454,28.5715158 14.6659514,29.2937855 13.2602637,30.0650591 C12.7233691,30.3579107 12.166951,30.6702857 11.6398181,30.9533756 L11.5325368,30.8360397 C8.74068481,27.858715 3.57673476,25.7501834 3.79149261,21.7478781 C3.86958637,20.2933818 4.37719583,16.4570257 13.7094981,11.8104468 C21.3529251,8.00337592 27.4735237,9.04787999 28.5374536,11.3711694 C30.0505202,14.6901543 25.2672773,20.8595616 17.3213346,21.7478781 C14.2952013,22.0895383 12.7039433,20.9181319 12.3038103,20.4788545 C11.8840564,20.0200536 11.825486,20.0005302 11.6692985,20.0883857 C11.4154938,20.2250497 11.5716813,20.635042 11.6692985,20.879085 C11.9035798,21.4940734 12.8797518,22.5873861 14.5392443,23.1340424 C15.993643,23.6123667 19.5470068,23.8759331 23.8421637,22.2164407 C28.6546919,20.3519521 32.4129542,15.1782403 31.3098798,10.8537982 C30.187282,6.45126239 22.8855152,5.00652778 15.9839789,7.45671958 C11.874197,8.92097763 7.42285257,11.2052202 4.2210083,14.2020683 C0.413937382,17.7553345 -0.191289277,20.8595616 0.0625154507,22.1481086 C0.950929616,26.7458789 7.28618848,29.7427271 9.82423576,31.9586376 C9.6973334,32.026872 9.58019275,32.095204 9.47281383,32.153872 C8.20379019,32.7785245 3.37173864,35.3069076 2.16128532,37.9815214 C0.794644474,41.0076547 2.37604316,43.1846159 3.43030896,43.4774675 C6.69072354,44.3853075 10.0292319,42.7551002 11.8351501,40.0706271 C13.6312091,37.3861541 13.4165488,33.9012199 12.5868026,32.3100595 L12.5574198,32.2514892 L13.5531153,31.665786 C14.1974865,31.2850789 14.8319983,30.9336569 15.3883187,30.630946 C15.0760413,31.4802157 14.8514241,32.4856728 14.7343811,33.9499309 C14.597717,35.6680913 15.3005609,37.8936659 16.2279243,38.7722207 C16.6379165,39.1528302 17.1260026,39.1626895 17.4286159,39.1626895 C18.5024051,39.1626895 18.9904911,38.2742754 19.5273858,37.2103455 C20.1911827,35.9120367 20.776886,34.4087317 20.776886,34.4087317 C20.776886,34.4087317 20.0447569,38.4793691 22.0459096,38.4793691 C22.7780386,38.4793691 23.5101676,37.5324822 23.8420661,37.0443962 L23.8420661,37.0541579 C23.8420661,37.0541579 23.8615896,37.0248728 23.9006365,36.9565407 C23.9415953,36.8959782 23.9806611,36.8341566 24.0177771,36.7711657 L24.0177771,36.7516422 C24.3106287,36.2440328 24.964664,35.0823881 25.940836,33.1593292 C27.2000003,30.6798522 28.4105512,27.5756251 28.4105512,27.5756251 C28.4105512,27.5756251 28.5276919,28.3370393 28.8888755,29.5865395 C29.1035358,30.3285279 29.5720983,31.1386531 29.933282,31.9293524 C29.6404304,32.3393447 29.4647194,32.5737236 29.4647194,32.5737236 L29.4744811,32.5834853 C29.2402975,32.8958603 28.9766334,33.2278564 28.7034028,33.5596573 C27.7077074,34.7505872 26.5167775,36.1075639 26.36059,36.4980327 C26.1751173,36.956736 26.2141642,37.2983962 26.5753478,37.571822 C26.8389143,37.7670564 27.3074768,37.8060056 27.8053246,37.7670564 C28.7034028,37.7083884 29.3281529,37.4839665 29.640528,37.3472048 C30.128614,37.1714938 30.6850321,36.9079274 31.2219267,36.5174586 C32.1980987,35.7951889 32.7935637,34.7702082 32.7349933,33.4035674 C32.7057082,32.6519149 32.4616652,31.9100242 32.1590518,31.2071803 C32.2469073,31.080278 32.3348604,30.953278 32.4226183,30.8167115 C33.9649701,28.5616565 35.1559,26.0822772 35.1559,26.0822772 C35.1559,26.0822772 35.2730406,26.8436914 35.6342243,28.0931916 C35.8195993,28.7277034 36.1906423,29.4208831 36.5225408,30.1042036 C35.0778062,31.2853717 34.1699662,32.6520126 33.8575912,33.5500908 C33.2816497,35.2095833 33.7306888,35.9612357 34.5799585,36.1369467 C34.9605679,36.2150405 35.5073219,36.0393295 35.9172165,35.8636185 C36.424826,35.6976693 37.0398144,35.4144818 37.6060918,34.9948254 C38.5822638,34.2724581 39.519389,33.2670009 39.4705803,31.9101218 C39.4412952,31.2853717 39.2753459,30.6703833 39.0508264,30.0846801 C40.2808031,29.5770707 41.8718659,29.284219 43.8926397,29.5282621 C48.2366052,30.0358715 49.0956366,32.7496298 48.9297849,33.8819893 C48.7638357,35.0144465 47.8559957,35.639099 47.5532848,35.8343334 C47.2506714,36.0198061 47.1530542,36.0882357 47.1823394,36.2248022 C47.2213863,36.4298959 47.3580504,36.4200366 47.6216168,36.3810873 C47.9828005,36.3224194 49.9058594,35.4537239 49.9839531,33.3648134 C50.1010938,30.6799498 47.5532848,27.7514337 43.0336083,27.7806213 L43.0336083,27.7806213 Z M9.53138415,39.0749317 C8.09641127,40.6465686 6.07573516,41.2420336 5.21670378,40.7344241 C4.28934035,40.1975295 4.65042638,37.8840018 6.41739537,36.2147476 C7.49118461,35.1995287 8.88711061,34.2624036 9.80471232,33.6864621 C10.0097084,33.5595597 10.3220835,33.3741846 10.6930289,33.1495674 C10.7515992,33.1106182 10.7906461,33.0909971 10.7906461,33.0909971 C10.8589781,33.0519502 10.9370719,33.0031416 11.0151656,32.954333 C11.6692009,35.3361928 11.0444508,37.4252009 9.53138415,39.0749317 L9.53138415,39.0749317 Z M20.0252335,31.9391141 C19.5273858,33.1593292 18.47312,36.2928414 17.8386081,36.1171304 C17.2918542,35.9707046 16.9600533,33.5986066 17.7311316,31.2557937 C18.1216004,30.0745279 18.9513466,28.6689378 19.4394327,28.1221839 C20.2302296,27.243629 21.0891634,26.9507774 21.3040188,27.3119611 C21.5578236,27.7806213 20.3376085,31.1776999 20.0252335,31.9391141 Z M28.6838794,36.0780835 C28.4691216,36.1855601 28.2738872,36.2635562 28.1860317,36.2050835 C28.1176996,36.1660366 28.2737895,36.0196108 28.2737895,36.0196108 C28.2737895,36.0196108 29.3573405,34.8579661 29.7868562,34.3210715 C30.0308992,34.0087941 30.3237508,33.6476104 30.6361259,33.2375205 L30.6361259,33.3546612 C30.6362235,34.7602513 29.2891061,35.6973764 28.6838794,36.0780835 Z M35.3607985,34.5552552 C35.204611,34.4381145 35.224232,34.0769309 35.7512673,32.9445713 C35.956361,32.4955322 36.424826,31.7438797 37.2350488,31.0312741 C37.332666,31.3241257 37.3913339,31.607118 37.3814746,31.8707821 C37.3718105,33.6278917 36.1223103,34.281927 35.3607985,34.5552552 Z" id="path-1"></path>
    </defs>
    <g id="Icons/Programing-Languages/Sass" stroke="none" stroke-width="1" fill="none" fill-rule="evenodd">
        <mask id="mask-2" fill="white">
            <use xlink:href="#path-1"></use>
        </mask>
        <use id="Shape" fill="#CF649A" fill-rule="nonzero" xlink:href="#path-1"></use>
        <rect id="Icon-Color" fill="#08D9D6" mask="url(#mask-2)" x="0" y="0" width="50" height="50"></rect>
    </g>
</svg>