<?xml version="1.0" encoding="UTF-8"?>
<svg width="50px" height="50px" viewBox="0 0 50 50" version="1.1" xmlns="http://www.w3.org/2000/svg" xmlns:xlink="http://www.w3.org/1999/xlink">
    <title>Icons/Programing Languages/Wordpress</title>
    <defs>
        <path d="M25.0006248,49.9906287 C11.1516721,49.9906287 -0.0938296556,38.9530516 0.0106207517,25.0006248 C0.115071159,11.0481979 10.6313725,0.0106207517 25.0006248,0.0106207517 C39.3708532,0.0106207517 49.9906287,11.2561226 49.9906287,25.0006248 C49.9906287,38.7451269 38.8495774,49.9906287 25.0006248,49.9906287 Z M32.3931755,46.1376777 L25.3129998,27.0827997 L18.6486733,46.5545032 C23.5431999,47.7005292 26.874875,48.011928 32.3931755,46.1376777 Z M15.1090736,45.0970784 L4.48832186,16.0461987 C3.02992084,19.1699492 2.71852197,21.7734 2.50962115,25.0006248 C2.61407156,33.5382253 7.40317154,41.3476016 15.1090736,45.0970784 L15.1090736,45.0970784 Z M47.3881541,25.0006248 C47.4916283,19.4823243 44.9936041,15.1090736 44.7847033,14.4843235 C44.9936041,18.7540999 44.3678778,20.9397491 43.6396535,23.3352753 L36.350577,44.2644036 C45.5139038,38.7451269 47.2827275,30.5189252 47.4916283,25.0006248 L47.3881541,25.0006248 Z M24.2724004,24.0634996 L20.7318245,14.3798731 L18.1283737,14.1719484 C17.0877743,13.4427479 17.7115482,12.2976981 18.4407487,12.2976981 C23.1263745,12.6100732 25.7288491,12.6100732 30.415451,12.2976981 C31.561477,12.2976981 31.8728758,13.9640238 30.5189252,14.1719484 L28.0199248,14.3798731 L36.1407,38.3283015 L39.9926748,25.2085494 C40.2015756,19.4823243 38.6387242,18.8575742 36.5565493,14.6922481 C34.8902236,11.4640472 36.6609997,8.34029669 39.8892006,8.23682246 C37.2847736,5.73782206 31.9753739,2.61407156 24.9986724,2.50962115 C18.0219709,2.40517074 10.6294201,5.9457467 6.25616941,12.6100732 L13.9620714,12.4021485 C14.8991966,12.818974 14.4823711,14.1719484 13.9620714,14.2763988 L11.2551464,14.4843235 L19.3768977,38.8495774 L24.2724004,24.0634996 Z" id="path-1"></path>
    </defs>
    <g id="Icons/Programing-Languages/Wordpress" stroke="none" stroke-width="1" fill="none" fill-rule="evenodd">
        <mask id="mask-2" fill="white">
            <use xlink:href="#path-1"></use>
        </mask>
        <use id="Shape" fill="#21759B" fill-rule="nonzero" xlink:href="#path-1"></use>
        <rect id="Icon-Color" fill="#08D9D6" mask="url(#mask-2)" x="0" y="0" width="50" height="50"></rect>
    </g>
</svg>