<svg height="512pt" viewBox="0 -22 512 512" width="512pt" xmlns="http://www.w3.org/2000/svg"><path d="m450.808594 259.824219-11.449219-58.261719c-3.136719-16.351562-8.550781-28.839844-16.542969-38.171875-10.308594-12.03125-24.765625-18.390625-41.816406-18.390625h-67v-80.101562c0-11.046876-8.953125-20-20-20h-49c-11.046875 0-20 8.953124-20 20 0 11.046874 8.953125 20 20 20h29v174.101562h-174c-11.046875 0-20 8.953125-20 20s8.953125 20 20 20h333c1.855469 0 3.640625-.273438 5.34375-.742188 18.914062 2.164063 33.65625 18.257813 33.65625 37.742188v52h-43.441406c-8.253906-23.277344-30.484375-40-56.558594-40s-48.304688 16.722656-56.558594 40h-123.882812c-8.253906-23.277344-30.484375-40-56.558594-40-26.058594 0-48.277344 16.703125-56.546875 39.960938-21.339844-.816407-38.453125-18.421876-38.453125-39.960938v-119c0-11.046875-8.953125-20-20-20s-20 8.953125-20 20v119c0 43.585938 35.039062 79.117188 78.425781 79.960938 8.246094 23.296874 30.488281 40.039062 56.574219 40.039062 26.074219 0 48.304688-16.722656 56.558594-40h123.882812c8.253906 23.277344 30.484375 40 56.558594 40s48.304688-16.722656 56.558594-40h63.441406c11.046875 0 20-8.953125 20-20v-72c0-37.238281-26.234375-68.46875-61.191406-76.175781zm-136.808594-74.824219h67c6.105469 0 14.464844 0 19.082031 24.136719.003907.03125.011719.0625.019531.097656l9.78125 49.765625h-95.882812zm-179 243c-11.027344 0-20-8.972656-20-20s8.972656-20 20-20 20 8.972656 20 20-8.972656 20-20 20zm237 0c-11.027344 0-20-8.972656-20-20s8.972656-20 20-20 20 8.972656 20 20-8.972656 20-20 20zm-352-258.9375h194c11.046875 0 20-8.953125 20-20s-8.953125-20-20-20h-6.90625c-1.035156-49.285156-41.445312-89.0625-90.976562-89.0625-49.527344 0-89.941407 39.777344-90.976563 89.0625h-5.140625c-11.046875 0-20 8.953125-20 20s8.953125 20 20 20zm96.117188-89.0625c27.472656 0 49.929687 21.835938 50.953124 49.0625h-101.902343c1.023437-27.226562 23.476562-49.0625 50.949219-49.0625zm-20.117188-60c0-11.046875 8.953125-20 20-20s20 8.953125 20 20-8.953125 20-20 20-20-8.953125-20-20zm0 0"/></svg>