<svg height="511pt" viewBox="0 0 511.99969 511" width="511pt" xmlns="http://www.w3.org/2000/svg"><path d="m487.644531 456.933594c-8.058593 1.675781-13.96875 7.980468-15.53125 15.5625h-111.925781c8.234375-22.441406 29.871094-38 54.285156-38h1.046875c.179688 0 .355469-.023438.53125-.027344 32.597657-.566406 58.945313-27.242188 58.945313-59.972656 0-33.085938-26.914063-60-60-60-33.082032 0-59.996094 26.914062-59.996094 60 0 12.375 3.765625 23.886718 10.214844 33.449218-11.59375 6.800782-21.742188 15.925782-29.714844 26.808594-7.976562-10.882812-18.125-20.007812-29.714844-26.808594 6.445313-9.5625 10.214844-21.074218 10.214844-33.449218 0-33.085938-26.917969-60-60-60-33.085938 0-60 26.914062-60 60 0 12.375 3.769531 23.886718 10.214844 33.449218-11.59375 6.800782-21.738282 15.925782-29.714844 26.808594-7.976562-10.882812-18.121094-20.007812-29.714844-26.808594 6.449219-9.5625 10.214844-21.074218 10.214844-33.449218 0-33.085938-26.914062-60-60-60-33.082031 0-60 26.914062-60 60 0 12.375 3.769531 23.886718 10.214844 33.449218-23.292969 13.667969-40.742188 36.738282-46.507813 64.5-2.050781 9.871094.414063 20.011719 6.765625 27.816407 6.328125 7.773437 15.699219 12.230469 25.714844 12.230469h445.625c10.015625 0 19.390625-4.457032 25.714844-12.230469 6.351562-7.808594 8.816406-17.945313 6.765625-27.816407-2.246094-10.8125-12.835938-17.761718-23.648438-15.511718zm-232.167969-22.4375h1.046876c24.414062 0 46.054687 15.558594 54.285156 38h-109.621094c8.234375-22.441406 29.875-38 54.289062-38zm159.519532-80c11.027344 0 20 8.972656 20 20s-8.972656 20-20 20-20-8.972656-20-20 8.972656-20 20-20zm-158.996094 0c11.027344 0 20 8.972656 20 20s-8.972656 20-20 20-20-8.972656-20-20 8.972656-20 20-20zm-159 0c11.027344 0 20 8.972656 20 20s-8.972656 20-20 20-20-8.972656-20-20 8.972656-20 20-20zm-54.820312 118c8.230468-22.441406 29.882812-38 54.296874-38h1.046876c24.417968 0 46.066406 15.558594 54.300781 38zm164.425781-207.234375c6.097656 3.511719 12.785156 5.269531 19.46875 5.269531 6.726562 0 13.453125-1.777344 19.578125-5.332031l85.851562-49.820313c12.207032-7.082031 19.492188-19.746094 19.492188-33.878906s-7.285156-26.800781-19.492188-33.882812l-85.851562-49.816407c-12.214844-7.089843-26.8125-7.113281-39.050782-.066406-12.273437 7.070313-19.601562 19.761719-19.601562 33.945313v99.636718c0 14.1875 7.328125 26.875 19.605469 33.945313zm20.394531-132.039063 83.199219 48.273438-83.199219 48.277344zm284.996094-52.722656v188.996094c0 8.65625-1.378906 17.179687-4.097656 25.332031-2.796876 8.375-10.597657 13.675781-18.96875 13.675781-2.101563 0-4.234376-.335937-6.335938-1.035156-10.476562-3.496094-16.136719-14.824219-12.640625-25.300781 1.355469-4.0625 2.042969-8.328125 2.042969-12.671875v-188.996094c0-22.058594-17.945313-40-40-40h-351.996094c-22.054688 0-40 17.941406-40 40v188.996094c0 4.34375.6875 8.609375 2.042969 12.671875 3.496093 10.476562-2.164063 21.804687-12.640625 25.300781-10.480469 3.492188-21.808594-2.164062-25.304688-12.640625-2.71875-8.152344-4.097656-16.675781-4.097656-25.332031v-188.996094c0-44.113281 35.886719-80 80-80h351.996094c44.113281 0 80 35.886719 80 80zm0 0"/></svg>