<?xml version="1.0" encoding="iso-8859-1"?>
<!-- Generator: Adobe Illustrator 19.0.0, SVG Export Plug-In . SVG Version: 6.00 Build 0)  -->
<svg version="1.1" id="Capa_1" xmlns="http://www.w3.org/2000/svg" xmlns:xlink="http://www.w3.org/1999/xlink" x="0px" y="0px"
	 viewBox="0 0 512 512" style="enable-background:new 0 0 512 512;" xml:space="preserve">
<g>
	<g>
		<g>
			<path d="M441.656,155.735c0.036,0.036,0.076,0.066,0.112,0.102C441.727,155.78,441.394,155.429,441.656,155.735z"/>
			<path d="M114.825,237.85c-0.027-0.027-0.055-0.055-0.082-0.082c-10.824-10.824-25.216-16.786-40.524-16.786
				c-15.308,0-29.699,5.961-40.523,16.785c-21.625,21.626-22.32,56.376-2.087,78.846c-5.633,2.853-10.821,6.64-15.359,11.307
				c-21.884,22.511-21.626,58.886,0.533,81.043l28.801,28.969l-19.806,19.782c-7.815,7.806-7.823,20.471-0.018,28.285
				c3.906,3.911,9.028,5.867,14.152,5.867c5.114,0,10.229-1.949,14.134-5.849L73.788,466.3l28.608,28.774
				c9.2,9.202,21.378,15.079,34.291,16.546c2.229,0.253,4.449,0.378,6.657,0.378c15.53,0,30.298-6.193,41.294-17.504
				c3.925-4.038,7.126-8.526,9.627-13.295c11.022,10.44,25.199,15.677,39.385,15.677c14.676,0,29.351-5.586,40.524-16.759
				c22.329-22.329,22.343-58.652,0.044-81.001L114.825,237.85z M155.955,466.612c-3.86,3.97-9.239,5.888-14.753,5.262
				c-2.798-0.318-6.894-1.458-10.478-5.042L45.111,380.72c-6.822-6.821-6.901-17.999-0.176-24.917
				c3.336-3.433,7.811-5.341,12.599-5.375c0.043,0,0.086,0,0.129,0c4.184,0,8.141,1.44,11.291,4.058l89.3,90.349
				C162.472,451.6,161.729,460.672,155.955,466.612z M245.887,451.831c-6.737,6.737-17.693,6.747-24.443,0.032L61.982,290.526
				c-6.747-6.747-6.747-17.727,0-24.475c3.269-3.269,7.614-5.068,12.236-5.068c4.607,0,8.94,1.788,12.206,5.037l159.381,161.253
				c0.027,0.027,0.055,0.055,0.082,0.082C252.635,434.104,252.635,445.084,245.887,451.831z"/>
			<path d="M279.166,57.91c4.623,0,8.968,1.8,12.299,5.131l121.946,121.021c11.205,11.204,26.018,16.82,40.841,16.818
				c14.543-0.001,29.096-5.408,40.246-16.246c12.918-12.558,19.16-30.035,17.125-47.95c-1.466-12.909-7.341-25.088-16.585-34.329
				l-28.735-28.569l19.717-19.742c7.806-7.815,7.798-20.48-0.018-28.285c-7.816-7.805-20.48-7.799-28.285,0.017l-19.782,19.806
				L409.008,16.82c-22.2-22.198-58.574-22.455-81.085-0.572c-4.714,4.583-8.533,9.831-11.395,15.531
				c-10.391-8.965-23.496-13.871-37.36-13.871c-15.308,0-29.699,5.961-40.523,16.785c-10.824,10.823-16.786,25.216-16.786,40.523
				s5.961,29.699,16.741,40.479l64.412,64.82l-96.174,96.427c-7.8,7.82-7.784,20.484,0.037,28.285
				c3.904,3.893,9.014,5.839,14.125,5.839c5.127,0,10.254-1.959,14.162-5.877l96.047-96.3l65.83,66.246
				c10.824,10.824,25.216,16.786,40.523,16.786c15.308,0,29.699-5.961,40.524-16.786c7.81-7.811,7.81-20.475,0-28.285
				s-20.475-7.81-28.286,0.001c-3.269,3.269-7.614,5.068-12.237,5.068c-4.622,0-8.968-1.8-12.193-5.024L266.929,87.453
				c-3.269-3.269-5.069-7.614-5.069-12.237s1.8-8.968,5.069-12.237C270.198,59.71,274.544,57.91,279.166,57.91z M355.805,44.932
				c3.421-3.326,7.884-4.987,12.352-4.987c4.566,0,9.137,1.735,12.606,5.203l86.03,85.533c3.625,3.625,4.765,7.72,5.083,10.517
				c0.626,5.517-1.292,10.895-5.261,14.755c-6.882,6.689-17.973,6.64-24.846-0.116c0.015,0.02-0.006,0.004-0.112-0.102
				l-86.029-85.532c-3.385-3.385-5.231-7.885-5.197-12.672C350.464,52.742,352.373,48.268,355.805,44.932z"/>
		</g>
	</g>
</g>
<g>
</g>
<g>
</g>
<g>
</g>
<g>
</g>
<g>
</g>
<g>
</g>
<g>
</g>
<g>
</g>
<g>
</g>
<g>
</g>
<g>
</g>
<g>
</g>
<g>
</g>
<g>
</g>
<g>
</g>
</svg>
