<svg id="Layer_1" enable-background="new 0 0 512.005 512.005" height="512" viewBox="0 0 512.005 512.005" width="512" xmlns="http://www.w3.org/2000/svg"><path d="m512.003 202c0 16.569-13.431 30-30 30-10.256 0-19.306-5.15-24.716-13.001-2.7 32.217-13.05 63.269-30.346 90.675-5.896 9.34-18.248 12.134-27.587 6.24-9.341-5.895-12.135-18.247-6.24-27.587 16.282-25.8 24.889-55.651 24.889-86.326 0-86.552-68.227-157.467-153.723-161.791l106.917 107.7c7.782 7.839 7.735 20.502-.104 28.284-3.9 3.872-8.997 5.806-14.09 5.806-5.144 0-10.284-1.971-14.194-5.91l-129.438-130.386c-14.29 3.902-27.798 9.714-40.233 17.147l86.007 86.007c7.811 7.811 7.811 20.474 0 28.284-3.905 3.905-9.023 5.858-14.142 5.858s-10.237-1.953-14.142-5.858l-89.496-89.496c-29.251 29.323-47.362 69.763-47.362 114.354 0 89.327 72.673 162 162 162 30.305 0 59.848-8.414 85.436-24.331 9.378-5.835 21.711-2.961 27.546 6.418 5.834 9.379 2.961 21.712-6.418 27.546-26.268 16.341-55.863 26.338-86.564 29.374v50.562c33.407 4.864 66.462 19.416 68.123 20.154 10.094 4.486 14.64 16.306 10.154 26.399-3.313 7.454-10.625 11.882-18.288 11.882-2.714 0-5.471-.555-8.111-1.729-.4-.177-41.633-18.276-71.877-18.276-25.23 0-60.439 13.193-71.877 18.276-10.095 4.486-21.913-.061-26.399-10.154s.06-21.913 10.154-26.399c1.661-.738 34.715-15.29 68.123-20.154v-50.559c-96.449-9.524-173.173-87.167-181.279-184.019-5.412 7.857-14.464 13.01-24.723 13.01-16.569 0-30-13.431-30-30s13.431-30 30-30c10.259 0 19.312 5.153 24.721 13.008 8.658-103.46 95.618-185.008 201.279-185.008s192.62 81.548 201.279 185.008c5.41-7.856 14.462-13.008 24.721-13.008 16.568 0 30 13.431 30 30zm-227.143.858c-7.811 7.811-7.811 20.474 0 28.284l35 35c3.905 3.905 9.023 5.858 14.142 5.858s10.237-1.953 14.142-5.858c7.811-7.811 7.811-20.474 0-28.284l-35-35c-7.81-7.811-20.473-7.811-28.284 0z"/></svg>