<svg id="Layer_1" enable-background="new 0 0 512 512" height="512" viewBox="0 0 512 512" width="512" xmlns="http://www.w3.org/2000/svg"><path d="m119 380c11.046 0 20 8.954 20 20s-8.954 20-20 20-20-8.954-20-20 8.954-20 20-20zm242-137c11.046 0 20-8.954 20-20s-8.954-20-20-20-20 8.954-20 20 8.954 20 20 20zm-69 13c11.046 0 20-8.954 20-20s-8.954-20-20-20-20 8.954-20 20 8.954 20 20 20zm-124 161c0 11.046 8.954 20 20 20s20-8.954 20-20-8.954-20-20-20-20 8.954-20 20zm344-19c0 12.125-3.728 23.91-11.079 35.03-6.091 9.214-18.5 11.746-27.713 5.653-9.214-6.092-11.746-18.499-5.654-27.714 2.992-4.524 4.446-8.768 4.446-12.97 0-15.651-21.658-34.001-56.523-47.888-42.276-16.838-98.913-26.111-159.477-26.111s-117.201 9.273-159.477 26.112c-34.865 13.887-56.523 32.237-56.523 47.888s21.658 34.001 56.523 47.888c42.276 16.839 98.913 26.112 159.477 26.112 52.132 0 102.854-7.146 142.824-20.122 10.506-3.411 21.788 2.341 25.198 12.847s-2.341 21.788-12.847 25.198c-44.487 14.443-98.147 22.077-155.175 22.077-65.512 0-127.405-10.282-174.278-28.951-52.699-20.99-81.722-51.195-81.722-85.049s29.023-64.059 81.722-85.049c14.192-5.652 29.768-10.53 46.397-14.593-42.646-18.415-66.119-44.778-66.119-74.358 0-29.915 23.994-56.545 67.561-74.986 7.088-3 14.597-5.749 22.464-8.237-26.512-15.113-41.025-35.819-41.025-58.777 0-24.444 16.45-46.335 46.32-61.64 25.623-13.13 59.248-20.36 94.68-20.36s69.057 7.23 94.68 20.36c29.87 15.305 46.32 37.196 46.32 61.64 0 19.512-10.492 37.393-29.913 51.6 17.916 3.983 34.552 9.149 49.352 15.414 43.567 18.441 67.561 45.071 67.561 74.986s-23.994 56.545-67.561 74.986c-3.443 1.457-6.988 2.853-10.622 4.191 9.981 2.943 19.498 6.204 28.46 9.774 52.7 20.99 81.723 51.195 81.723 85.049zm-361-316c0 17.125 39.345 42 101 42s101-24.875 101-42-39.345-42-101-42-101 24.875-101 42zm120 202c103.165 0 169-35.536 169-60s-65.835-60-169-60-169 35.536-169 60 65.835 60 169 60z"/></svg>