<svg id="Layer_1" enable-background="new 0 0 512.004 512.004" height="512" viewBox="0 0 512.004 512.004" width="512" xmlns="http://www.w3.org/2000/svg"><g><path d="m492.003 475.001h-472c-11.046 0-20-8.954-20-20s8.954-20 20-20h472c11.046 0 20 8.954 20 20s-8.954 20-20 20z"/><path d="m121.085 375.08c-9.09 0-18.236-1.197-27.251-3.619-26.927-7.234-49.425-24.521-63.35-48.677l-27.768-47.725c-5.555-9.547-2.318-21.79 7.229-27.345 9.547-5.554 21.79-2.319 27.345 7.229l27.808 47.795c8.629 14.968 22.505 25.631 39.114 30.092 16.606 4.463 33.959 2.189 48.858-6.4l315.44-181.833c2.974-1.715 3.427-4.845 3.484-6.111.067-1.507-.2-4.303-2.754-6.099-19.816-13.929-40.166-15.069-60.485-3.392l-73.07 43.22c-6.971 4.124-15.741 3.638-22.211-1.236l-101.436-76.369c-16.298-11.102-30.224-17.021-41.396-17.593-5.549-.292-8.305 3.225-9.236 4.745-.976 1.593-2.254 4.699-.607 8.432l65.412 80.965c.657.813 1.249 1.675 1.77 2.58 6.7 11.623 8.473 25.16 4.992 38.116-3.47 12.916-11.746 23.714-23.312 30.419l-84.48 49.943c-9.51 5.621-21.773 2.47-27.395-7.039-5.622-9.508-2.47-21.773 7.038-27.395l84.56-49.99c.063-.037.126-.074.19-.11 2.367-1.364 4.06-3.568 4.769-6.206.607-2.262.429-4.609-.493-6.725l-65.401-80.951c-.657-.813-1.248-1.675-1.77-2.579-9.176-15.917-8.945-34.74.617-50.352 9.571-15.627 26.954-24.749 45.395-23.801 18.982.973 39.362 9.078 62.303 24.779.249.17.493.346.733.527l91.113 68.597 61.657-36.469c.064-.038.128-.076.193-.113 34.031-19.617 70.807-17.748 103.552 5.271 13.072 9.188 20.441 24.372 19.712 40.617-.734 16.356-9.507 30.925-23.468 38.972l-315.438 181.834c-16.068 9.264-33.9 13.996-51.963 13.996z"/></g></svg>