<svg height="512pt" viewBox="0 0 512 512" width="512pt" xmlns="http://www.w3.org/2000/svg"><path d="m422.007812 197.917969-152.097656-153.097657c-7.460937-6.394531-18.453125-6.417968-25.941406-.054687l-153.964844 153.660156c.003906.191407.027344.378907.027344.574219v70.996094c0 11.046875-8.953125 20-19.996094 20-11.046875 0-20-8.953125-20-20v-31.683594l-15.871094 15.839844c-7.816406 7.800781-20.476562 7.792968-28.28125-.027344-7.800781-7.816406-7.789062-20.480469.027344-28.28125l210.273438-209.859375c.269531-.269531.546875-.53125.828125-.78125 22.839843-20.335937 57.222656-20.261719 79.976562.167969.285157.253906.558594.515625.828125.785156l208.371094 209.746094c7.785156 7.835937 7.742188 20.5-.09375 28.28125-3.898438 3.875-8.996094 5.8125-14.09375 5.8125-5.140625 0-10.277344-1.96875-14.1875-5.902344l-15.808594-15.917969v31.820313c0 11.042968-8.953125 19.996094-20 19.996094-11.042968 0-19.996094-8.953126-19.996094-19.996094zm-71.996093 274.0625h-13.996094c-5.515625 0-10-4.488281-10-10v-111.992188c0-11.042969-8.953125-20-20-20-11.042969 0-19.996094 8.957031-19.996094 20v111.992188c0 27.566406 22.425781 49.996093 49.996094 49.996093h13.996094c11.046875 0 20-8.953124 20-20 0-11.042968-8.953125-19.996093-20-19.996093zm161.988281-77.496094v52.996094c0 35.5625-28.933594 64.496093-64.496094 64.496093h-36.496094c-11.046874 0-20-8.953124-20-20v-141.988281c0-11.042969 8.953126-20 20-20h36.496094c35.5625 0 64.496094 28.933594 64.496094 64.496094zm-39.996094 0c0-13.507813-10.992187-24.496094-24.5-24.496094h-16.496094v101.992188h16.496094c13.507813 0 24.5-10.992188 24.5-24.5zm-206.984375-4.214844v61.429688c0 33.238281-26.914062 60.277343-59.996093 60.277343-33.082032 0-59.996094-27.039062-59.996094-60.277343v-61.429688c0-33.238281 26.914062-60.28125 59.996094-60.28125 33.082031 0 59.996093 27.042969 59.996093 60.28125zm-39.996093 0c0-11.183593-8.972657-20.28125-20-20.28125-11.027344 0-19.996094 9.097657-19.996094 20.28125v61.429688c0 11.183593 8.96875 20.28125 19.996094 20.28125 11.027343 0 20-9.097657 20-20.28125zm-151.59375 8.714844h-16.929688c-6.640625 0-12.464844-6.558594-12.464844-14.039063v-2.457031c0-7.128906 5.359375-12.5 12.464844-12.5h16.039062c3.316407 0 5.417969.46875 6.492188.851563.003906.046875.003906.09375.003906.148437 0 11.042969 8.953125 19.996094 19.996094 19.996094 11.046875 0 20-8.953125 20-19.996094 0-13.589843-5.746094-25.128906-16.175781-32.484375-8.007813-5.648437-18.207031-8.515625-30.316407-8.515625h-16.039062c-14.054688 0-27.222656 5.402344-37.078125 15.207031-9.917969 9.867188-15.382813 23.109376-15.382813 37.292969v2.460938c0 29.792969 23.535157 54.035156 52.460938 54.035156h16.929688c7.164062 0 12.5625 5.269531 12.5625 12.261719v8.648437c0 7.003907-5.28125 12.085938-12.5625 12.085938h-26.667969c-3.121094 0-6.765625-1.570313-6.765625-6 0-11.046875-8.953125-20-19.996094-20-11.046875 0-20 8.953125-20 20 0 25.792969 20.539062 45.996093 46.761719 45.996093h26.667969c29.472656 0 52.558593-22.878906 52.558593-52.082031v-8.648437c0-14.214844-5.515625-27.453125-15.53125-37.277344-9.855469-9.664062-23.007812-14.984375-37.027343-14.984375zm0 0"/></svg>