<svg id="Layer_1" enable-background="new 0 0 512 512" height="512" viewBox="0 0 512 512" width="512" xmlns="http://www.w3.org/2000/svg"><g><path d="m452 391.944h-392c-33.084 0-60 26.916-60 60s26.916 60 60 60 60-26.916 60-60c0-7.009-1.208-13.742-3.427-20h82.867c-2.22 6.26-3.44 12.989-3.44 20 0 33.084 26.916 60 60 60s60-26.916 60-60c0-7.011-1.22-13.74-3.44-20h82.867c-2.219 6.258-3.427 12.991-3.427 20 0 33.084 26.916 60 60 60s60-26.916 60-60-26.916-60-60-60zm-392 80c-11.028 0-20-8.972-20-20s8.972-20 20-20 20 8.972 20 20-8.972 20-20 20zm216-20c0 11.028-8.972 20-20 20s-20-8.972-20-20 8.972-20 20-20 20 8.973 20 20zm176 20c-11.028 0-20-8.972-20-20s8.972-20 20-20 20 8.972 20 20-8.972 20-20 20zm-272-110h152c55.141 0 100-44.86 100-100v-50c0-55.14-44.859-100-100-100h-152c-55.141 0-100 44.86-100 100v50c0 55.14 44.859 100 100 100zm-60-150c0-33.084 26.916-60 60-60h152c33.084 0 60 26.916 60 60v50c0 33.084-26.916 60-60 60h-152c-33.084 0-60-26.916-60-60z"/><path d="m303 87.055c-11.046 0-20-8.954-20-20 0-14.888-12.112-27-27-27s-27 12.112-27 27c0 11.046-8.954 20-20 20s-20-8.954-20-20c0-36.944 30.056-67 67-67s67 30.056 67 67c0 11.046-8.954 20-20 20z"/></g></svg>