<?xml version="1.0" encoding="UTF-8"?>
<svg width="50px" height="50px" viewBox="0 0 50 50" version="1.1" xmlns="http://www.w3.org/2000/svg" xmlns:xlink="http://www.w3.org/1999/xlink">
    <title>Icons/Services/Branding-white</title>
    <g id="Icons/Services/Branding-white" stroke="none" stroke-width="1" fill="none" fill-rule="evenodd">
        <path d="M23.9336257,25.6490253 C24.5073099,26.2397661 25.4569201,26.2406433 26.031384,25.6490253 L33.1274854,18.3410331 C35.6220273,15.7865497 35.6208577,11.6327485 33.1243665,9.07923977 C30.8874269,6.79220273 27.4513645,6.54044834 24.9825536,8.17738791 C23.1214425,6.94346979 21.1957115,7.12612086 21.4694932,7.12612086 C15.7244639,7.12612086 12.7752437,14.1825536 16.838499,18.3420078 L23.9336257,25.6490253 Z M18.9310916,11.1236842 C20.3168616,9.70701754 22.5681287,9.68732943 23.937232,11.0873294 C24.5098441,11.672807 25.4537037,11.6740741 26.0275828,11.0873294 C27.3963938,9.68781676 29.6477583,9.70662768 31.0336257,11.1234893 C32.3547758,12.4748538 32.530117,14.7696881 30.9576998,16.3775828 C30.8120858,16.5263158 32.0381092,15.2654971 24.9823587,22.5319688 C19.1525341,16.5278752 19.0180312,16.388694 19.0070175,16.3775828 C17.4344055,14.7673489 17.611306,12.4736842 18.9310916,11.1236842 Z" id="Shape" fill="#08D9D6" fill-rule="nonzero"></path>
        <path d="M42.9739766,0 L7.02787524,0 C6.22046784,0 5.56588694,0.654580897 5.56588694,1.4619883 L5.56588694,48.4079922 C5.56588694,49.6168616 6.95555556,50.3039961 7.91617934,49.5691033 L24.9998051,36.4987329 L42.0838207,49.6005848 C43.0445419,50.3374269 44.4354776,49.6498051 44.4354776,48.4405458 L44.4358674,1.4619883 C44.4358674,0.655068226 43.781384,0 42.9739766,0 Z M41.5115984,45.4769981 L25.8906433,33.4971735 C25.3711501,33.0986355 24.6422027,33.0910331 24.1126706,33.4961014 L8.48986355,45.4487329 L8.48986355,2.92397661 L41.5119883,2.92397661 L41.5115984,45.4769981 Z" id="Shape" fill="#EAEAEA" fill-rule="nonzero"></path>
    </g>
</svg>