<?xml version="1.0" encoding="UTF-8"?>
<svg width="50px" height="50px" viewBox="0 0 50 50" version="1.1" xmlns="http://www.w3.org/2000/svg" xmlns:xlink="http://www.w3.org/1999/xlink">
    <title>Icons/Services/Consultant</title>
    <g id="Icons/Services/Consultant" stroke="none" stroke-width="1" fill="none" fill-rule="evenodd">
        <path d="M24.9985352,5.85839844 C24.1895508,5.85839844 23.5336914,6.51425781 23.5336914,7.32324219 C23.5336914,8.13222656 24.1895508,8.78808594 24.9985352,8.78808594 C29.8456055,8.78808594 33.7890625,12.7308594 33.7890625,17.5771484 C33.7890625,18.3861328 34.4449219,19.0419922 35.2539062,19.0419922 C36.0628906,19.0419922 36.71875,18.3861328 36.71875,17.5771484 C36.71875,11.1154297 31.4611328,5.85839844 24.9985352,5.85839844 Z" id="Path" fill="#08D9D6" fill-rule="nonzero"></path>
        <path d="M21.2241211,0.393554687 C14.605957,1.77646484 9.23974609,7.09130859 7.82773437,13.7505859 C6.63544922,19.3738281 8.1046875,25.0193359 11.8586914,29.2395508 C13.69375,31.3023437 14.7460937,34.025293 14.7460937,36.7177734 L14.7460937,39.6474609 C14.7460937,41.5966797 16.022168,43.2526367 17.7825195,43.8261719 C18.3614258,47.246582 21.3301758,49.9989258 25,49.9989258 C28.6688477,49.9989258 31.6383789,47.2474609 32.2174805,43.8261719 C33.977832,43.2526367 35.2539062,41.5966797 35.2539062,39.6473633 L35.2539062,36.7176758 C35.2539062,34.0199219 36.3097656,31.3296875 38.2267578,29.1425781 C41.0328125,25.9414062 42.578125,21.8339844 42.578125,17.5771484 C42.578125,6.48681641 32.4268555,-1.946875 21.2241211,0.393554687 Z M25,47.0693359 C23.1169922,47.0693359 21.4660156,45.7736328 20.8563477,44.0322266 L29.1435547,44.0322266 C28.5339844,45.7736328 26.8830078,47.0693359 25,47.0693359 Z M32.3242187,39.6474609 C32.3242187,40.4551758 31.6670898,41.1123047 30.859375,41.1123047 L19.140625,41.1123047 C18.3329102,41.1123047 17.6757812,40.4551758 17.6757812,39.6474609 L17.6757812,38.1826172 L32.3242187,38.1826172 L32.3242187,39.6474609 Z M36.0236328,27.2116211 C33.9806641,29.5423828 32.7237305,32.3529297 32.4047852,35.2529297 L17.5955078,35.2529297 C17.2769531,32.3513672 16.0232422,29.5131836 14.0478516,27.2923828 C10.9191406,23.7751953 9.69658203,19.0608398 10.69375,14.3583008 C11.8577148,8.86865234 16.3303711,4.40917969 21.8234375,3.26142578 C31.2007812,1.30175781 39.6484375,8.34394531 39.6484375,17.5771484 C39.6484375,21.1232422 38.3611328,24.5448242 36.0236328,27.2116211 Z" id="Shape" fill="#252A34" fill-rule="nonzero"></path>
        <path d="M4.39453125,17.5771484 L1.46484375,17.5771484 C0.655859375,17.5771484 0,18.2330078 0,19.0419922 C0,19.8509766 0.655859375,20.5068359 1.46484375,20.5068359 L4.39453125,20.5068359 C5.20351562,20.5068359 5.859375,19.8509766 5.859375,19.0419922 C5.859375,18.2330078 5.20351562,17.5771484 4.39453125,17.5771484 Z" id="Path" fill="#252A34" fill-rule="nonzero"></path>
        <path d="M5.00126953,10.2529297 L2.9296875,8.18134766 C2.35771484,7.60927734 1.43017578,7.60927734 0.858105469,8.18134766 C0.286035156,8.75341797 0.286035156,9.68085937 0.858105469,10.2529297 L2.9296875,12.3245117 C3.50166016,12.896582 4.42919922,12.8966797 5.00126953,12.3245117 C5.57333984,11.7524414 5.57333984,10.825 5.00126953,10.2529297 Z" id="Path" fill="#252A34" fill-rule="nonzero"></path>
        <path d="M5.00126953,25.7594727 C4.42919922,25.1874023 3.50166016,25.1874023 2.9296875,25.7594727 L0.858105469,27.8310547 C0.286035156,28.403125 0.286035156,29.3305664 0.858105469,29.9026367 C1.43007812,30.474707 2.35761719,30.4748047 2.9296875,29.9026367 L5.00126953,27.8310547 C5.57333984,27.2589844 5.57333984,26.331543 5.00126953,25.7594727 Z" id="Path" fill="#252A34" fill-rule="nonzero"></path>
        <path d="M48.5351562,17.5771484 L45.6054688,17.5771484 C44.7964844,17.5771484 44.140625,18.2330078 44.140625,19.0419922 C44.140625,19.8509766 44.7964844,20.5068359 45.6054688,20.5068359 L48.5351562,20.5068359 C49.3441406,20.5068359 50,19.8509766 50,19.0419922 C50,18.2330078 49.3441406,17.5771484 48.5351562,17.5771484 Z" id="Path" fill="#252A34" fill-rule="nonzero"></path>
        <path d="M49.1418945,8.18134766 C48.5699219,7.60927734 47.6423828,7.60927734 47.0703125,8.18134766 L44.9987305,10.2529297 C44.4266602,10.825 44.4266602,11.7524414 44.9987305,12.3245117 C45.5707031,12.8964844 46.4982422,12.896582 47.0703125,12.3245117 L49.1418945,10.2529297 C49.7139648,9.68085937 49.7139648,8.75341797 49.1418945,8.18134766 Z" id="Path" fill="#252A34" fill-rule="nonzero"></path>
        <path d="M49.1418945,27.8310547 L47.0703125,25.7594727 C46.4983398,25.1874023 45.5708008,25.1874023 44.9987305,25.7594727 C44.4266602,26.331543 44.4266602,27.2589844 44.9987305,27.8310547 L47.0703125,29.9026367 C47.6422852,30.4746094 48.5698242,30.474707 49.1418945,29.9026367 C49.7139648,29.3305664 49.7139648,28.403125 49.1418945,27.8310547 Z" id="Path" fill="#252A34" fill-rule="nonzero"></path>
    </g>
</svg>