<?xml version="1.0" encoding="UTF-8"?>
<svg width="50px" height="50px" viewBox="0 0 50 50" version="1.1" xmlns="http://www.w3.org/2000/svg" xmlns:xlink="http://www.w3.org/1999/xlink">
    <title>Icons/Services/IoT-white</title>
    <g id="Icons/Services/IoT-white" stroke="none" stroke-width="1" fill="none" fill-rule="evenodd">
        <path d="M45.3125,0 C47.8972656,0 50,2.10283203 50,4.6875 L50,4.6875 L50,45.3125 C50,47.897168 47.8972656,50 45.3125,50 L45.3125,50 L28.125,50 C25.5402344,50 23.4375,47.897168 23.4375,45.3125 L23.4375,45.3125 L23.4375,24.21875 L10.9375,24.21875 C8.35283203,24.21875 6.25,22.115918 6.25,19.53125 C6.25,16.946582 8.35283203,14.84375 10.9375,14.84375 L10.9375,14.84375 L23.4375,14.84375 L23.4375,4.6875 C23.4375,2.10283203 25.5402344,0 28.125,0 L28.125,0 Z M45.3125,3.125 L28.125,3.125 C27.2634766,3.125 26.5625,3.82597656 26.5625,4.6875 L26.5625,4.6875 L26.5625,14.84375 L30.4708008,14.84375 C31.9359375,12.8962891 34.2539063,11.71875 36.71875,11.71875 C41.0265625,11.71875 44.53125,15.2234375 44.53125,19.53125 C44.53125,23.8390625 41.0265625,27.34375 36.71875,27.34375 C34.2538086,27.34375 31.9359375,26.1662109 30.4708008,24.21875 L30.4708008,24.21875 L26.5625,24.21875 L26.5625,45.3125 C26.5625,46.1740234 27.2634766,46.875 28.125,46.875 L28.125,46.875 L45.3125,46.875 C46.1740234,46.875 46.875,46.1740234 46.875,45.3125 L46.875,45.3125 L46.875,4.6875 C46.875,3.82597656 46.1740234,3.125 45.3125,3.125 L45.3125,3.125 Z M36.71875,32.03125 C38.4417969,32.03125 39.84375,33.4331055 39.84375,35.15625 C39.84375,36.3104492 39.2143555,37.3196289 38.28125,37.8608398 L38.28125,37.8608398 L38.28125,40.625 C38.28125,41.4878906 37.5817383,42.1875 36.71875,42.1875 C35.8557617,42.1875 35.15625,41.4878906 35.15625,40.625 L35.15625,40.625 L35.15625,37.8608398 C34.2231445,37.3196289 33.59375,36.3103516 33.59375,35.15625 C33.59375,33.4331055 34.9956055,32.03125 36.71875,32.03125 Z M36.71875,14.84375 C35.0519531,14.84375 33.4963867,15.7423828 32.659375,17.1888672 C32.3799805,17.671582 31.8645508,17.96875 31.3069336,17.96875 L31.3069336,17.96875 L10.9375,17.96875 C10.0759766,17.96875 9.375,18.6697266 9.375,19.53125 C9.375,20.3927734 10.0759766,21.09375 10.9375,21.09375 L10.9375,21.09375 L31.3069336,21.09375 C31.8645508,21.09375 32.3800781,21.3910156 32.659375,21.8736328 C33.4963867,23.3201172 35.0519531,24.21875 36.71875,24.21875 C39.303418,24.21875 41.40625,22.115918 41.40625,19.53125 C41.40625,16.946582 39.303418,14.84375 36.71875,14.84375 Z" id="Combined-Shape" fill="#EAEAEA" fill-rule="nonzero"></path>
        <path d="M10.9541016,40.625 C12.2485189,40.625 13.2978516,41.6743326 13.2978516,42.96875 C13.2978516,44.2631674 12.2485189,45.3125 10.9541016,45.3125 C9.65968418,45.3125 8.61035156,44.2631674 8.61035156,42.96875 C8.61035156,41.6743326 9.65968418,40.625 10.9541016,40.625 Z M4.87705078,36.8920898 C8.22773437,33.5413086 13.6797852,33.5413086 17.0302734,36.8921875 C18.0173828,37.8791992 17.3049805,39.5594727 15.9254883,39.5594727 C15.5255859,39.5594727 15.1257812,39.4069336 14.8206055,39.1017578 C12.6883789,36.9695313 9.21894531,36.9695313 7.08671875,39.1017578 C6.47646484,39.7120117 5.48720703,39.7120117 4.87705078,39.1017578 C4.26679687,38.4916016 4.26679687,37.5022461 4.87705078,36.8920898 Z M0.457617187,32.4726563 C6.24521484,26.6850586 15.6623047,26.6850586 21.449707,32.4726563 C22.4368164,33.4597656 21.7244141,35.1400391 20.3449219,35.1400391 C19.9451172,35.1400391 19.5452148,34.9875 19.2401367,34.6823242 C14.6709961,30.1132813 7.23642578,30.1132813 2.66728516,34.6823242 C2.05712891,35.2925781 1.06777344,35.2925781 0.457617187,34.6823242 C-0.152636719,34.072168 -0.152636719,33.0829102 0.457617187,32.4726563 Z" id="Combined-Shape" fill="#08D9D6" fill-rule="nonzero"></path>
    </g>
</svg>