<?xml version="1.0" encoding="UTF-8"?>
<svg width="50px" height="50px" viewBox="0 0 50 50" version="1.1" xmlns="http://www.w3.org/2000/svg" xmlns:xlink="http://www.w3.org/1999/xlink">
    <title>Icons/Services/Mobile dev</title>
    <g id="Icons/Services/Mobile-dev" stroke="none" stroke-width="1" fill="none" fill-rule="evenodd">
        <path d="M36.4711762,0 L13.5288238,0 C11.3731385,0 9.61914062,1.75399785 9.61914062,3.9096832 L9.61914062,46.0903168 C9.61914062,48.2460021 11.3731385,50 13.5288238,50 L36.4711762,50 C38.6268615,50 40.3808594,48.2460021 40.3808594,46.0903168 L40.3808594,3.9096832 C40.3808594,1.75399785 38.6268615,0 36.4711762,0 Z M13.5288238,2.9296875 L36.4711762,2.9296875 C37.0117188,2.9296875 37.4511719,3.36952207 37.4511719,3.9096832 L37.4511719,41.2109375 L12.5488281,41.2109375 L12.5488281,3.9096832 C12.5488281,3.36952207 12.9886627,2.9296875 13.5288238,2.9296875 Z M36.4711762,47.0703125 L13.5288238,47.0703125 C12.9886627,47.0703125 12.5488281,46.6304779 12.5488281,46.0903168 L12.5488281,44.140625 L37.4511719,44.140625 L37.4511719,46.0903168 C37.4511719,46.6304779 37.0113373,47.0703125 36.4711762,47.0703125 Z" id="Shape" fill="#252A34" fill-rule="nonzero"></path>
        <path d="M22.0214844,7.71484375 L27.9785156,7.71484375 C28.7876129,7.71484375 29.4433594,7.05909727 29.4433594,6.25 C29.4433594,5.44090273 28.7876129,4.78515625 27.9785156,4.78515625 L22.0214844,4.78515625 C21.2123871,4.78515625 20.5566406,5.44090273 20.5566406,6.25 C20.5566406,7.05909727 21.2123871,7.71484375 22.0214844,7.71484375 Z" id="Path" fill="#252A34" fill-rule="nonzero"></path>
        <path d="M18.6141968,29.1156769 C18.9029693,29.4910431 19.3370819,29.6875 19.7765351,29.6875 C20.0881958,29.6875 20.4025269,29.5883179 20.6684112,29.3838501 C21.3096619,28.8906098 21.4298248,27.9708862 20.9365845,27.3296356 L18.6939239,24.4140625 L20.9365845,21.4984894 C21.4298248,20.8572388 21.3096619,19.9375152 20.6684112,19.4442749 C20.0271606,18.9510346 19.1074371,19.0711975 18.6141968,19.7124481 L15.8119201,23.3551025 C15.3327941,23.978424 15.3327941,24.849701 15.8123017,25.4730225 L18.6141968,29.1156769 Z" id="Path" fill="#08D9D6" fill-rule="nonzero"></path>
        <path d="M28.7704468,21.4984894 L31.0131073,24.4140625 L28.7704468,27.3296356 C28.2772064,27.9708862 28.3973693,28.8906098 29.03862,29.3838501 C29.3048858,29.5883179 29.6188354,29.6875 29.9304962,29.6875 C30.3699493,29.6875 30.8044434,29.4906616 31.0928345,29.1156769 L33.8951111,25.4730225 C34.3746186,24.8493194 34.3742371,23.978424 33.8947296,23.3551025 L31.0928345,19.7124481 C30.5995941,19.0711975 29.6798706,18.9510346 29.03862,19.4442749 C28.3973693,19.9375152 28.2772064,20.8572388 28.7704468,21.4984894 Z" id="Path" fill="#08D9D6" fill-rule="nonzero"></path>
        <path d="M26.3420105,19.2005157 C25.5661011,18.9716339 24.7516632,19.4152832 24.5227813,20.1911926 L22.2766876,27.8083801 C22.0478058,28.5842896 22.4914551,29.3987274 23.2673645,29.6276093 C23.405838,29.6684266 23.5450744,29.6878814 23.6824035,29.6878814 C24.3148804,29.6878814 24.8989105,29.2747498 25.0865937,28.6369324 L27.3326874,21.0197449 C27.5615692,20.2438354 27.1179199,19.4293976 26.3420105,19.2005157 L26.3420105,19.2005157 Z" id="Path" fill="#252A34" fill-rule="nonzero"></path>
    </g>
</svg>