<?xml version="1.0" encoding="UTF-8"?>
<svg width="50px" height="50px" viewBox="0 0 50 50" version="1.1" xmlns="http://www.w3.org/2000/svg" xmlns:xlink="http://www.w3.org/1999/xlink">
    <title>Icons/Services/Seo-white</title>
    <g id="Icons/Services/Seo-white" stroke="none" stroke-width="1" fill="none" fill-rule="evenodd">
        <path d="M26.3567481,10.102335 C31.6591878,7.35975816 37.2044176,7.20915362 40.0382135,7.36397039 C41.4426128,7.44061919 42.5595446,8.5574129 42.6361244,9.96181224 C42.790734,12.7954009 42.6404057,18.3406999 39.8976907,23.6433466 C38.4995752,26.3464943 36.1289866,29.2052873 33.3938675,31.4867284 C33.3601696,31.514833 33.3261956,31.542178 33.2924286,31.5700754 L33.2924286,31.5700754 L32.8924738,36.7475982 C32.8267354,37.5997809 32.3801008,38.3588802 31.6671288,38.8303048 L31.6671288,38.8303048 L26.3243623,42.3627096 C26.0086521,42.5714568 25.6464002,42.6777293 25.2815934,42.6777293 C25.0218161,42.6777293 24.7608649,42.623868 24.5142768,42.5147643 C23.9216641,42.2525701 23.5085893,41.7136117 23.4093601,41.0731454 L23.4093601,41.0731454 L22.7337459,36.710931 C22.6489488,36.7263298 22.5642208,36.7417977 22.4794238,36.7559536 C22.3309599,36.7807436 22.1818055,36.792966 22.0334797,36.792966 C21.3132572,36.792966 20.610367,36.506189 20.0901909,35.9860129 L20.0901909,35.9860129 L14.0140818,29.9098348 C13.3866665,29.2824885 13.0988538,28.3893574 13.2440722,27.520671 C13.258228,27.4358739 13.2736959,27.351146 13.2890947,27.2663489 L13.2890947,27.2663489 L8.9269494,26.5907346 C8.28648309,26.4915055 7.74759369,26.0784306 7.48533051,25.4856799 C7.22313637,24.8929983 7.27996697,24.2163482 7.6374542,23.6756634 L7.6374542,23.6756634 L11.1697899,18.3328969 C11.6411455,17.619994 12.4002448,17.1732903 13.2524966,17.1074138 L13.2524966,17.1074138 L18.4300885,16.707459 C18.4579859,16.6736921 18.4853308,16.6397871 18.5134354,16.6060892 C20.7948765,13.8710391 23.6536696,11.5005196 26.3567481,10.102335 Z M14.1274668,34.4077382 C14.5319791,34.0032259 15.1878443,34.0032259 15.5922875,34.4077382 C15.9967998,34.8122505 15.9967998,35.4680466 15.5922185,35.8725589 L15.5922185,35.8725589 L9.09060495,42.3741724 C8.88841784,42.5764976 8.62332348,42.6775912 8.35822912,42.6775912 C8.09313477,42.6775912 7.82810946,42.5764976 7.6258533,42.3742415 C7.221341,41.9697292 7.221341,41.3139331 7.6258533,40.9094208 L7.6258533,40.9094208 Z M17.2266333,37.5069046 C17.6310765,37.1023923 18.2869416,37.1023923 18.6913849,37.5069046 C19.0958972,37.9114169 19.0958972,38.567213 18.6913849,38.9717253 L18.6913849,38.9717253 L15.3096537,42.3534565 C15.1074666,42.5557817 14.8423032,42.6568753 14.5772779,42.6568753 C14.3122526,42.6568753 14.0471582,42.5557127 13.8449021,42.3534565 C13.4403898,41.9489442 13.4403898,41.2931481 13.8449021,40.8886358 L13.8449021,40.8886358 Z M31.0877744,33.2150553 C29.0521619,34.5776776 26.9154557,35.5948278 24.7554788,36.229908 L24.7554788,36.229908 L25.4139679,40.4811542 L30.5246474,37.1021852 C30.7006635,36.9858309 30.8110101,36.7983521 30.8272376,36.5879477 L30.8272376,36.5879477 Z M11.0283004,31.3085718 C11.4328127,30.9040595 12.0886778,30.9040595 12.4931211,31.3085718 C12.8976334,31.7130841 12.8976334,32.3688802 12.4931211,32.7733925 L12.4931211,32.7733925 L9.11138989,36.1551237 C8.90920279,36.3574489 8.64410843,36.4585424 8.37901407,36.4585424 C8.11391971,36.4585424 7.84882535,36.3573798 7.64663825,36.1551237 C7.24212594,35.7506113 7.24212594,35.0948153 7.64663825,34.690303 L7.64663825,34.690303 Z M16.096098,24.7850685 C15.7486234,25.7537436 15.4679231,26.7820114 15.2872805,27.862207 C15.2521326,28.072059 15.3238096,28.2899211 15.4788335,28.4450141 L15.4788335,28.4450141 L21.5550116,34.5211922 C21.7100356,34.6762162 21.9276215,34.747686 22.1378187,34.7127452 C23.0075409,34.5673196 24.0496193,34.3187289 25.2130238,33.9019942 L25.2130238,33.9019942 Z M39.92545,9.43238311 C37.3022657,9.28958156 32.1750135,9.42513255 27.3085743,11.9423205 C24.8413807,13.2184195 22.2155033,15.4019435 20.1042087,17.9330802 C19.0928589,19.1455122 17.924966,20.7730217 16.9680299,22.7274971 L16.9680299,22.7274971 L27.2721834,33.0316506 C28.7693899,32.3011392 30.393723,31.2915847 32.0670837,29.895817 C34.5981513,27.7845224 36.7816753,25.1587141 38.0577052,22.6915895 C40.5748932,17.8250813 40.7107204,12.6978982 40.5677117,10.0747139 C40.5487912,9.72744646 40.2726483,9.45130362 39.92545,9.43238311 Z M16.7849014,18.9123204 L13.412078,19.1728572 C13.2017427,19.1890847 13.0142639,19.2993623 12.8978406,19.4754473 L12.8978406,19.4754473 L9.51880242,24.5861959 L13.7699796,25.244616 C14.4050598,23.084639 15.42221,20.9479329 16.7849014,18.9123204 L16.7849014,18.9123204 Z" id="Combined-Shape" fill="#EAEAEA" fill-rule="nonzero" transform="translate(24.999984, 25.000104) rotate(-45.000000) translate(-24.999984, -25.000104) "></path>
        <path d="M25.0000187,26.1045665 C26.3259738,26.1044284 27.6524814,25.5996511 28.6619668,24.5901657 C29.6401712,23.6120304 30.1787844,22.3114867 30.1787844,20.9282176 C30.1787844,19.5449485 29.6401022,18.2444048 28.6619668,17.2662694 C26.6427198,15.2469534 23.3571794,15.2470915 21.3380705,17.2662694 C20.3598661,18.2444048 19.8211839,19.5449485 19.8211839,20.9282176 C19.8211839,22.3114867 20.3599352,23.6120304 21.3380705,24.5901657 C22.3477631,25.5998583 23.6735801,26.1047046 25.0000187,26.1045665 Z M22.8027531,18.7310211 C23.4084858,18.1252194 24.2041832,17.822353 24.9998806,17.822353 C25.795647,17.822353 26.5913444,18.1252194 27.1970771,18.7310211 C27.7839583,19.3179023 28.1071262,20.0982009 28.1071262,20.9281485 C28.1071262,21.7580962 27.7839583,22.5384638 27.1970771,23.1253451 C25.9856117,24.3368794 24.0142184,24.3368104 22.8026841,23.1253451 C22.2158028,22.5384638 21.8925659,21.7581653 21.8925659,20.9282176 C21.8925659,20.0982699 22.2158719,19.3179023 22.8027531,18.7310211 Z" id="Shape" fill="#08D9D6" fill-rule="nonzero"></path>
    </g>
</svg>