<?xml version="1.0" encoding="UTF-8"?>
<svg width="50px" height="50px" viewBox="0 0 50 50" version="1.1" xmlns="http://www.w3.org/2000/svg" xmlns:xlink="http://www.w3.org/1999/xlink">
    <title>Icons/Services/Social Media</title>
    <g id="Icons/Services/Social-Media" stroke="none" stroke-width="1" fill="none" fill-rule="evenodd">
        <path d="M25,1.21650391 C29.5981445,1.21650391 33.3390625,4.95732422 33.3390625,9.55556641 C33.3390625,9.65410156 33.3349609,9.75185547 33.331543,9.84970703 C36.6841797,11.3522461 39.5550781,13.7242188 41.6825195,16.7611328 C44.0854492,20.1913086 45.3556641,24.2255859 45.3556641,28.427832 C45.3556641,29.2421875 45.305957,30.0575195 45.2098633,30.8640625 C45.418457,30.962793 45.624707,31.0682617 45.8267578,31.1849609 C47.7558594,32.2986328 49.1357422,34.096875 49.712207,36.2484375 C50.2887695,38.4000977 49.9928711,40.6472656 48.8790039,42.5762695 C47.765332,44.5053711 45.9670898,45.8852539 43.8155273,46.4617188 C43.097168,46.6542969 42.3678711,46.7495117 41.6436523,46.7495117 C40.1986328,46.7496094 38.7727539,46.3706055 37.4876953,45.6287109 C37.2074219,45.4668945 36.9401367,45.2888672 36.6836914,45.0991211 C33.2549805,47.5134766 29.2412109,48.7836914 24.9999023,48.7836914 C20.7585938,48.7836914 16.7449219,47.5135742 13.3161133,45.0991211 C13.0597656,45.2888672 12.7924805,45.4667969 12.5121094,45.6287109 C11.2272461,46.3705078 9.80107422,46.7495117 8.35615234,46.7495117 C7.63173828,46.7495117 6.90283203,46.6542969 6.18427734,46.4617188 C4.03271484,45.8851563 2.23447266,44.5052734 1.12080078,42.5762695 C0.00703125,40.6472656 -0.288769531,38.4 0.287695313,36.2484375 C0.864257813,34.096875 2.24414063,32.2986328 4.17324219,31.1847656 C4.37529297,31.0680664 4.58154297,30.9625977 4.79013672,30.8638672 C4.69394531,30.0574219 4.64433594,29.2421875 4.64433594,28.4277344 C4.64433594,24.2254883 5.91455078,20.1912109 8.31748047,16.7611328 C10.4449219,13.7243164 13.3158203,11.3523438 16.668457,9.84970703 C16.6650391,9.75195313 16.6609375,9.65429688 16.6609375,9.55556641 C16.6609375,4.95742188 20.4018555,1.21650391 25,1.21650391 Z M32.6728516,12.8197266 C31.4,15.8 28.4401367,17.8943359 24.9999023,17.8943359 C21.559668,17.8943359 18.5998047,15.8001953 17.3269531,12.8197266 C11.456543,15.7183594 7.61074219,21.8029297 7.61074219,28.4277344 C7.61074219,28.9827148 7.63779297,29.5380859 7.69003906,30.0895508 C8.62255859,30.0169922 9.57060547,30.1024414 10.5007813,30.3517578 C12.6523438,30.9283203 14.4505859,32.3082031 15.5643555,34.237207 C16.678125,36.1662109 16.9739258,38.4134766 16.3974609,40.5650391 C16.1719727,41.4070313 15.8216797,42.19375 15.3652344,42.9077148 C18.2162109,44.8155273 21.5182617,45.8167969 24.9999023,45.8167969 C28.4816406,45.8167969 31.7836914,44.8155273 34.634668,42.9077148 C34.1782227,42.1939453 33.8280273,41.4070313 33.6023438,40.5650391 C33.0258789,38.4134766 33.3216797,36.1663086 34.4354492,34.237207 C35.5492188,32.3081055 37.3474609,30.9282227 39.4990234,30.3517578 C40.4291992,30.1026367 41.3772461,30.0171875 42.3097656,30.0896484 C42.3620117,29.5380859 42.3890625,28.9828125 42.3890625,28.4277344 C42.3890625,21.8029297 38.5432617,15.7183594 32.6728516,12.8197266 Z M8.33388672,33.0320312 C7.40283203,33.0320312 6.48417969,33.2761719 5.65634766,33.7541016 C4.41357422,34.4716797 3.52451172,35.6300781 3.153125,37.0163086 C2.78164063,38.4024414 2.97226563,39.850293 3.68984375,41.0930664 C4.40742188,42.3358398 5.56582031,43.2249023 6.95205078,43.5962891 C8.33828125,43.9676758 9.78603516,43.7769531 11.0288086,43.0595703 C12.271582,42.3419922 13.1605469,41.1834961 13.5320313,39.7974609 C13.9035156,38.4112305 13.712793,36.9634766 12.9953125,35.7207031 C12.2776367,34.4779297 11.1192383,33.5888672 9.73300781,33.2174805 C9.2703125,33.093457 8.80039063,33.0320312 8.33388672,33.0320312 Z M41.6661133,33.0320312 C41.1995117,33.0320312 40.7298828,33.093457 40.2669922,33.2174805 C38.8807617,33.5888672 37.722168,34.4779297 37.0046875,35.7207031 C36.287207,36.9634766 36.096582,38.4112305 36.4679688,39.7974609 C36.8393555,41.1834961 37.728418,42.3420898 38.9711914,43.0595703 C40.2139648,43.7770508 41.6616211,43.9675781 43.0479492,43.5962891 C44.4339844,43.2249023 45.5925781,42.3358398 46.3100586,41.0930664 C47.0275391,39.8501953 47.2181641,38.4024414 46.846875,37.0163086 C46.4754883,35.6301758 45.5864258,34.471582 44.3436523,33.7541016 C43.515918,33.2761719 42.5970703,33.0320312 41.6661133,33.0320312 Z M25,4.18291016 C22.0375977,4.18291016 19.6275391,6.59296875 19.6275391,9.55537109 C19.6275391,12.5177734 22.0376953,14.927832 25,14.927832 C27.9623047,14.927832 30.3724609,12.5176758 30.3724609,9.55537109 C30.3724609,6.59306641 27.9624023,4.18291016 25,4.18291016 Z" id="Combined-Shape" fill="#252A34" fill-rule="nonzero"></path>
        <circle id="Oval" stroke="#08D9D6" stroke-width="3.2" cx="24.9999711" cy="9.5584904" r="6.85709371"></circle>
    </g>
</svg>