<?xml version="1.0" encoding="UTF-8"?>
<svg width="50px" height="50px" viewBox="0 0 50 50" version="1.1" xmlns="http://www.w3.org/2000/svg" xmlns:xlink="http://www.w3.org/1999/xlink">
    <title>Icons/Services/UiUx</title>
    <g id="Icons/Services/UiUx" stroke="none" stroke-width="1" fill="none" fill-rule="evenodd">
        <path d="M48.5351562,0 L42.6757812,0 C41.8667969,0 41.2109375,0.655859375 41.2109375,1.46484375 L41.2109375,2.9296875 L29.1425781,2.9296875 C28.5378906,1.22480469 26.909668,0 25,0 C23.090332,0 21.4621094,1.22480469 20.8574219,2.9296875 L8.7890625,2.9296875 L8.7890625,1.46484375 C8.7890625,0.655859375 8.13320313,0 7.32421875,0 L1.46484375,0 C0.655859375,0 0,0.655859375 0,1.46484375 L0,7.32421875 C0,8.13320312 0.655859375,8.7890625 1.46484375,8.7890625 L7.32421875,8.7890625 C8.13320313,8.7890625 8.7890625,8.13320312 8.7890625,7.32421875 L8.7890625,5.83984375 L14.8805664,5.83984375 C9.59580078,9.18691406 6.38330078,14.8413086 5.996875,20.8439453 C4.27128906,21.4373047 3.02734375,23.0755859 3.02734375,25 C3.02734375,27.4231445 4.99873047,29.3945312 7.421875,29.3945312 C9.84501953,29.3945312 11.8164062,27.4231445 11.8164062,25 C11.8164062,23.1074219 10.6137695,21.4904297 8.93261719,20.8730469 C9.45273437,13.9739258 14.4207031,8.03183594 21.0640625,6.34589844 C21.7841797,7.79238281 23.2774414,8.7890625 25,8.7890625 C26.7225586,8.7890625 28.2158203,7.79238281 28.9359375,6.34599609 C35.5793945,8.03193359 40.5472656,13.9740234 41.0673828,20.8731445 C39.3862305,21.4904297 38.1835938,23.1074219 38.1835938,25 C38.1835938,27.4231445 40.1549805,29.3945312 42.578125,29.3945312 C45.0012695,29.3945312 46.9726562,27.4231445 46.9726562,25 C46.9726562,23.0755859 45.7287109,21.4373047 44.003125,20.8439453 C43.615918,14.8292969 40.3938477,9.19990234 35.1194336,5.859375 L41.2109375,5.859375 L41.2109375,7.32421875 C41.2109375,8.13320312 41.8667969,8.7890625 42.6757812,8.7890625 L48.5351562,8.7890625 C49.3441406,8.7890625 50,8.13320312 50,7.32421875 L50,1.46484375 C50,0.655859375 49.3441406,0 48.5351562,0 Z M5.859375,5.859375 L2.9296875,5.859375 L2.9296875,2.9296875 L5.859375,2.9296875 L5.859375,5.859375 Z M7.421875,26.4648438 C6.61416016,26.4648438 5.95703125,25.8077148 5.95703125,25 C5.95703125,24.1922852 6.61416016,23.5351562 7.421875,23.5351562 C8.22958984,23.5351562 8.88671875,24.1922852 8.88671875,25 C8.88671875,25.8077148 8.22958984,26.4648438 7.421875,26.4648438 Z M25,5.859375 C24.1922852,5.859375 23.5351562,5.20224609 23.5351562,4.39453125 C23.5351562,3.58681641 24.1922852,2.9296875 25,2.9296875 C25.8077148,2.9296875 26.4648438,3.58681641 26.4648438,4.39453125 C26.4648438,5.20224609 25.8077148,5.859375 25,5.859375 Z M42.578125,23.5351562 C43.3858398,23.5351562 44.0429688,24.1922852 44.0429688,25 C44.0429688,25.8077148 43.3858398,26.4648438 42.578125,26.4648438 C41.7704102,26.4648438 41.1132812,25.8077148 41.1132812,25 C41.1132812,24.1922852 41.7704102,23.5351562 42.578125,23.5351562 Z M47.0703125,5.859375 L44.140625,5.859375 L44.140625,2.9296875 L47.0703125,2.9296875 L47.0703125,5.859375 Z" id="Shape" fill="#000000" fill-rule="nonzero"></path>
        <circle id="Oval" stroke="#08D9D6" stroke-width="3.1" cx="25" cy="4.38559076" r="2.95"></circle>
        <circle id="Oval-Copy" stroke="#08D9D6" stroke-width="3.1" cx="7.4456875" cy="25" r="2.95"></circle>
        <circle id="Oval-Copy-2" stroke="#08D9D6" stroke-width="3.1" cx="42.5507085" cy="25" r="2.9502353"></circle>
        <path d="M37.9375,30.0467773 L26.21875,12.46875 C26.2183594,12.4681641 26.2178711,12.4675781 26.2174805,12.4668945 C26.2132812,12.4606445 26.2086914,12.4546875 26.2043945,12.4485352 C26.1842773,12.4193359 26.1630859,12.3912109 26.1410156,12.3637695 C25.5237305,11.5967773 24.3483398,11.6485352 23.7956055,12.4485352 C23.7913086,12.4546875 23.7867187,12.4606445 23.7825195,12.4668945 C23.7821289,12.4675781 23.7816406,12.4680664 23.78125,12.46875 L12.0625,30.046875 C11.6750977,30.627832 11.7517578,31.4014648 12.2455078,31.8952148 C15.1680664,34.8177734 17.0282227,38.6380859 17.5349609,42.7253906 C17.3075195,42.9092773 17.0878906,43.1061523 16.8796875,43.3192383 C15.5038086,44.7266602 14.7460937,46.5791016 14.7460937,48.5351562 C14.7460937,49.3441406 15.4019531,50 16.2109375,50 L33.7890625,50 C34.5980469,50 35.2539062,49.3441406 35.2539062,48.5351562 C35.2539062,46.5791016 34.4961914,44.7266602 33.1204102,43.3191406 C32.9121094,43.1060547 32.6925781,42.9091797 32.4650391,42.725293 C32.9716797,38.637793 34.8318359,34.8174805 37.7543945,31.8952148 C38.2482422,31.4014648 38.3249023,30.6277344 37.9375,30.0467773 Z M25,29.3945312 C25.8077148,29.3945312 26.4648437,30.0516602 26.4648437,30.859375 C26.4648437,31.6670898 25.8077148,32.3242187 25,32.3242187 C24.1922852,32.3242187 23.5351562,31.6670898 23.5351562,30.859375 C23.5351562,30.0516602 24.1922852,29.3945312 25,29.3945312 Z M17.9255859,47.0703125 C18.5350586,45.3288086 20.187207,44.0429687 22.0703125,44.0429687 L27.9296875,44.0429687 C29.812793,44.0429687 31.4649414,45.3288086 32.0744141,47.0703125 L17.9255859,47.0703125 Z M29.7114258,41.3363281 C29.1352539,41.1891602 28.5379883,41.1132812 27.9296875,41.1132812 L22.0703125,41.1132812 C21.4620117,41.1132812 20.8647461,41.1891602 20.2885742,41.3363281 C19.6030273,37.3881836 17.8226562,33.6975586 15.1469727,30.7016602 L23.5351562,18.1193359 L23.5351562,26.7168945 C21.8301758,27.321582 20.6054687,28.9498047 20.6054687,30.8594727 C20.6054687,33.2826172 22.5768555,35.2540039 25,35.2540039 C27.4231445,35.2540039 29.3945312,33.2826172 29.3945312,30.8594727 C29.3945312,28.9498047 28.1698242,27.321582 26.4648437,26.7168945 L26.4648437,18.1193359 L34.853125,30.7016602 C32.1773437,33.6972656 30.396875,37.3879883 29.7114258,41.3363281 Z" id="Shape" fill="#000000" fill-rule="nonzero"></path>
    </g>
</svg>