<?xml version="1.0" encoding="UTF-8"?>
<svg width="50px" height="50px" viewBox="0 0 50 50" version="1.1" xmlns="http://www.w3.org/2000/svg" xmlns:xlink="http://www.w3.org/1999/xlink">
    <title>Icons/Services/Web dev</title>
    <g id="Icons/Services/Web-dev" stroke="none" stroke-width="1" fill="none" fill-rule="evenodd">
        <path d="M44.6806152,3.44658203 L5.31948242,3.44658203 C2.38637695,3.44658203 4.88281248e-05,5.83291016 4.88281248e-05,8.76611328 L4.88281248e-05,41.2338867 C4.88281248e-05,44.1670898 2.38637695,46.553418 5.31948242,46.553418 L44.6805176,46.553418 C47.6137207,46.553418 49.9999512,44.1669922 49.9999512,41.2338867 L49.9999512,8.76611328 C49.9999512,5.83291016 47.6138184,3.44658203 44.6806152,3.44658203 Z M47.0697754,41.2338867 C47.0697754,42.5513672 45.9979004,43.6232422 44.6805176,43.6232422 L5.31948242,43.6232422 C4.00209961,43.6232422 2.93022461,42.5514648 2.93022461,41.2338867 L2.93022461,13.6133789 L47.0697754,13.6133789 L47.0697754,41.2338867 Z M47.0699707,10.6832031 L2.93032227,10.6832031 L2.93032227,8.76611328 C2.93032227,7.44863281 4.00219727,6.37675781 5.31958008,6.37675781 L36.5615723,6.37675781 L36.5615723,8.12265625 C36.5615723,8.93183594 37.2175293,9.58779297 38.026709,9.58779297 C38.8358887,9.58779297 39.4918457,8.93183594 39.4918457,8.12265625 L39.4918457,6.37675781 L40.8383301,6.37675781 L40.8383301,8.12265625 C40.8383301,8.93183594 41.4942871,9.58779297 42.3034668,9.58779297 C43.1126465,9.58779297 43.7686035,8.93183594 43.7686035,8.12265625 L43.7686035,6.37675781 L44.6807129,6.37675781 C45.9980957,6.37675781 47.0699707,7.44863281 47.0699707,8.76611328 L47.0699707,10.6832031 L47.0699707,10.6832031 Z" id="Shape" fill="#252A34" fill-rule="nonzero"></path>
        <path d="M7.75620117,8.40371094 C7.7512207,8.35585937 7.74438477,8.30800781 7.7347168,8.26113281 C7.72592773,8.21425781 7.71420898,8.16738281 7.69956055,8.12246094 C7.68588867,8.0765625 7.66928711,8.03066406 7.65170898,7.98671875 C7.63325195,7.94277344 7.61274414,7.89980469 7.59018555,7.8578125 C7.56782227,7.81484375 7.5434082,7.77382812 7.51694336,7.73378906 C7.49057617,7.69472656 7.46137695,7.65566406 7.43100586,7.61855469 C7.40073242,7.58144531 7.36850586,7.5453125 7.33432617,7.51113281 C7.30112305,7.47792969 7.26499023,7.44570312 7.22788086,7.41445312 C7.19077148,7.38515625 7.15170898,7.35585937 7.11176758,7.32949219 C7.07270508,7.303125 7.03071289,7.27871094 6.98862305,7.25625 C6.94663086,7.23378906 6.90268555,7.21328125 6.85874023,7.19472656 C6.81489258,7.17617187 6.7699707,7.16054687 6.72397461,7.14589844 C6.67905273,7.13222656 6.63227539,7.12050781 6.58530273,7.11074219 C6.53852539,7.10195312 6.49057617,7.09414062 6.44272461,7.09023437 C6.34799805,7.08046875 6.2503418,7.08046875 6.15454102,7.09023437 C6.10776367,7.09414062 6.05981445,7.10195312 6.01303711,7.11074219 C5.96616211,7.12050781 5.91928711,7.13222656 5.87329102,7.14589844 C5.82836914,7.16054687 5.7824707,7.17617187 5.73852539,7.19472656 C5.69458008,7.21328125 5.65073242,7.23378906 5.60864258,7.25625 C5.56665039,7.27871094 5.52563477,7.303125 5.4855957,7.32949219 C5.44555664,7.35585937 5.40649414,7.38515625 5.37036133,7.41445312 C5.33325195,7.44570312 5.29711914,7.47792969 5.2628418,7.51113281 C5.22866211,7.5453125 5.19643555,7.58144531 5.16625977,7.61855469 C5.13588867,7.65566406 5.10756836,7.69472656 5.08129883,7.73378906 C5.05483398,7.77382812 5.02954102,7.81484375 5.00698242,7.8578125 C4.98461914,7.89980469 4.96411133,7.94277344 4.9465332,7.98671875 C4.92797852,8.03066406 4.91137695,8.0765625 4.89770508,8.12246094 C4.88393555,8.16738281 4.8722168,8.21425781 4.86254883,8.26113281 C4.85288086,8.30800781 4.84594727,8.35585937 4.84106445,8.40371094 C4.83608398,8.45058594 4.83422852,8.49941406 4.83422852,8.54726562 C4.83422852,8.59511719 4.83618164,8.64394531 4.84106445,8.69179687 C4.84594727,8.73867187 4.8527832,8.78652344 4.86254883,8.83339844 C4.87231445,8.88027344 4.8840332,8.92714844 4.89770508,8.97304687 C4.91137695,9.01796875 4.92797852,9.06386719 4.9465332,9.1078125 C4.96411133,9.15175781 4.98461914,9.19472656 5.00698242,9.23671875 C5.02944336,9.2796875 5.05483398,9.32070312 5.08129883,9.36074219 C5.10766602,9.39980469 5.13598633,9.43886719 5.16625977,9.47597656 C5.1965332,9.51308594 5.22875977,9.54921875 5.2628418,9.58339844 C5.29711914,9.61660156 5.33325195,9.64980469 5.37036133,9.68007812 C5.40649414,9.71035156 5.44555664,9.73867187 5.4855957,9.76503906 C5.52563477,9.79140625 5.56665039,9.81582031 5.60864258,9.83828125 C5.65073242,9.86074219 5.69458008,9.88125 5.73852539,9.89980469 C5.7824707,9.91835937 5.82836914,9.93398437 5.87329102,9.94863281 C5.91928711,9.96230469 5.96606445,9.97402344 6.01303711,9.98378906 C6.05981445,9.99257812 6.10776367,10.0003906 6.15454102,10.0052734 C6.20239258,10.0091797 6.2512207,10.0121094 6.29907227,10.0121094 C6.34692383,10.0121094 6.39467773,10.0091797 6.44262695,10.0052734 C6.49047852,10.0003906 6.53833008,9.99257812 6.58520508,9.98378906 C6.63208008,9.97402344 6.67895508,9.96230469 6.72387695,9.94863281 C6.76987305,9.93398437 6.81479492,9.91835937 6.85864258,9.89980469 C6.90258789,9.88125 6.9465332,9.86074219 6.98852539,9.83828125 C7.03061523,9.81582031 7.07250977,9.79140625 7.11166992,9.76503906 C7.15161133,9.73867187 7.19077148,9.71035156 7.2277832,9.68007812 C7.26479492,9.64980469 7.30102539,9.61660156 7.33422852,9.58339844 C7.36850586,9.54921875 7.40073242,9.51308594 7.4309082,9.47597656 C7.4612793,9.43886719 7.49047852,9.39980469 7.5168457,9.36074219 C7.54331055,9.32070312 7.56772461,9.2796875 7.59008789,9.23671875 C7.61254883,9.19472656 7.63305664,9.15175781 7.65161133,9.1078125 C7.66928711,9.06386719 7.68588867,9.01796875 7.69946289,8.97304687 C7.71411133,8.92714844 7.72592773,8.88027344 7.73461914,8.83339844 C7.74438477,8.78652344 7.7512207,8.73867187 7.75610352,8.69179687 C7.76098633,8.64394531 7.76391602,8.59511719 7.76391602,8.54726562 C7.76391602,8.49941406 7.76108398,8.45058594 7.75620117,8.40371094 Z" id="Path" fill="#252A34" fill-rule="nonzero"></path>
        <path d="M11.9004395,8.40371094 C11.8955566,8.35585937 11.8887207,8.30800781 11.8789551,8.26113281 C11.8691895,8.21425781 11.8574707,8.16738281 11.8437988,8.12148437 C11.830127,8.0765625 11.8135254,8.03066406 11.7949707,7.98671875 C11.7773926,7.94277344 11.7568848,7.89980469 11.7345215,7.8578125 C11.7120605,7.81484375 11.6866699,7.77382812 11.6602051,7.73378906 C11.6338379,7.69472656 11.6055176,7.65566406 11.5752441,7.61855469 C11.5449707,7.58144531 11.5118652,7.5453125 11.4786621,7.51113281 C11.4443848,7.47792969 11.408252,7.44472656 11.3711426,7.41445312 C11.3350098,7.38417969 11.2959473,7.35585937 11.2559082,7.32949219 C11.2158691,7.303125 11.1748535,7.27871094 11.1328613,7.25625 C11.0907715,7.23378906 11.0469238,7.21328125 11.0029785,7.19472656 C10.9590332,7.17617187 10.9131348,7.16054687 10.8682129,7.14589844 C10.8222168,7.13222656 10.7754395,7.12050781 10.7284668,7.11074219 C10.6816895,7.10195312 10.6337402,7.09414062 10.5869629,7.08925781 C10.4912598,7.08046875 10.3944824,7.08046875 10.2987793,7.08925781 C10.2509277,7.09414062 10.2030762,7.10195312 10.1562012,7.11074219 C10.1093262,7.12050781 10.0624512,7.13222656 10.0175293,7.14589844 C9.9715332,7.16054687 9.92661133,7.17617187 9.88276367,7.19472656 C9.83774414,7.21328125 9.79487305,7.23378906 9.75288086,7.25625 C9.71079102,7.27871094 9.66889648,7.303125 9.62973633,7.32949219 C9.58979492,7.35585937 9.55063477,7.38417969 9.51362305,7.41445312 C9.47661133,7.44472656 9.44038086,7.47792969 9.40717773,7.51113281 C9.37290039,7.5453125 9.34067383,7.58144531 9.31049805,7.61855469 C9.28012695,7.65566406 9.25092773,7.69472656 9.22456055,7.73378906 C9.1980957,7.77382812 9.17368164,7.81484375 9.15131836,7.8578125 C9.12885742,7.89980469 9.10834961,7.94277344 9.08979492,7.98671875 C9.07211914,8.03066406 9.05551758,8.0765625 9.04194336,8.12148437 C9.02729492,8.16738281 9.01547852,8.21425781 9.00678711,8.26113281 C8.99702148,8.30800781 8.99018555,8.35585937 8.98530273,8.40371094 C8.98041992,8.45058594 8.97749023,8.49941406 8.97749023,8.54726562 C8.97749023,8.59511719 8.98041992,8.64394531 8.98530273,8.69179687 C8.99018555,8.73867187 8.99702148,8.78652344 9.00678711,8.83339844 C9.01557617,8.88027344 9.02729492,8.92714844 9.04194336,8.97304687 C9.05561523,9.01796875 9.0722168,9.06386719 9.08979492,9.1078125 C9.10825195,9.15175781 9.12875977,9.19570312 9.15131836,9.23769531 C9.17368164,9.2796875 9.1980957,9.32070312 9.22456055,9.36074219 C9.25092773,9.40078125 9.28012695,9.43886719 9.31049805,9.47597656 C9.34077148,9.51308594 9.37299805,9.54921875 9.40717773,9.58339844 C9.44038086,9.61660156 9.47651367,9.64980469 9.51362305,9.68007812 C9.55073242,9.71035156 9.58979492,9.73867187 9.62973633,9.76503906 C9.66879883,9.79140625 9.71079102,9.81582031 9.75288086,9.83828125 C9.79487305,9.86074219 9.83774414,9.88125 9.88276367,9.89980469 C9.92661133,9.91835937 9.9715332,9.93398437 10.0175293,9.94863281 C10.0624512,9.96230469 10.1092285,9.97402344 10.1562012,9.98378906 C10.2029785,9.99257812 10.2509277,10.0003906 10.2987793,10.0052734 C10.3466309,10.0091797 10.3943848,10.0121094 10.442334,10.0121094 C10.4902832,10.0121094 10.5390137,10.0091797 10.5868652,10.0052734 C10.6336426,10.0003906 10.6815918,9.99257812 10.7283691,9.98378906 C10.7752441,9.97402344 10.8221191,9.96230469 10.8681152,9.94863281 C10.9130371,9.93398437 10.9589355,9.91835937 11.0028809,9.89980469 C11.0468262,9.88125 11.0906738,9.86074219 11.1327637,9.83828125 C11.1747559,9.81582031 11.2157715,9.79140625 11.2558105,9.76503906 C11.2958496,9.73867187 11.3349121,9.71035156 11.3710449,9.68007812 C11.4081543,9.64980469 11.4442871,9.61660156 11.4785645,9.58339844 C11.5117676,9.54921875 11.5449707,9.51308594 11.5751465,9.47597656 C11.6055176,9.43886719 11.6338379,9.40078125 11.6601074,9.36074219 C11.6865723,9.32070312 11.7118652,9.2796875 11.7344238,9.23769531 C11.7567871,9.19570312 11.7772949,9.15175781 11.794873,9.1078125 C11.8134277,9.06386719 11.8300293,9.01796875 11.8437012,8.97304687 C11.8574707,8.92714844 11.8691895,8.88027344 11.8788574,8.83339844 C11.8885254,8.78652344 11.895459,8.73867187 11.9003418,8.69179687 C11.9053223,8.64394531 11.9071777,8.59511719 11.9071777,8.54726562 C11.9071777,8.49941406 11.9053223,8.45058594 11.9004395,8.40371094 Z" id="Path" fill="#252A34" fill-rule="nonzero"></path>
        <path d="M16.1004395,8.40371094 C16.0955566,8.35585937 16.0877441,8.30800781 16.0789551,8.26113281 C16.0691895,8.21425781 16.0574707,8.16738281 16.0437988,8.12148437 C16.030127,8.0765625 16.0135254,8.03066406 15.9949707,7.98671875 C15.9773926,7.94277344 15.9560059,7.89980469 15.9334473,7.85683594 C15.9119629,7.81484375 15.8866699,7.77382812 15.8602051,7.73378906 C15.8338379,7.69375 15.8055176,7.65566406 15.7752441,7.61855469 C15.7449707,7.58144531 15.7118652,7.5453125 15.6786621,7.51113281 C15.6443848,7.47792969 15.608252,7.44472656 15.5711426,7.41445312 C15.5350098,7.38417969 15.4959473,7.35585937 15.4559082,7.32949219 C15.4158691,7.303125 15.3748535,7.27871094 15.3328613,7.25625 C15.2907715,7.23378906 15.2469238,7.21328125 15.2029785,7.19472656 C15.1590332,7.17617187 15.1131348,7.16054687 15.0682129,7.14589844 C15.0222168,7.13222656 14.9754395,7.12050781 14.9284668,7.11074219 C14.8816895,7.10195312 14.8337402,7.09414062 14.7869629,7.08925781 C14.6912598,7.08046875 14.5944824,7.08046875 14.4987793,7.08925781 C14.4509277,7.09414062 14.4030762,7.10195312 14.3562012,7.11074219 C14.3093262,7.12050781 14.2624512,7.13222656 14.2175293,7.14589844 C14.1715332,7.16054687 14.1266113,7.17617187 14.0816895,7.19472656 C14.0377441,7.21328125 13.9947754,7.23378906 13.9528809,7.25625 C13.910791,7.27871094 13.8688965,7.303125 13.8297363,7.32949219 C13.7897949,7.35585937 13.7506348,7.38417969 13.713623,7.41445312 C13.6766113,7.44472656 13.6403809,7.47792969 13.6071777,7.51113281 C13.5729004,7.5453125 13.5406738,7.58144531 13.510498,7.61855469 C13.480127,7.65566406 13.4509277,7.69375 13.4245605,7.73378906 C13.3980957,7.77382812 13.3736816,7.81484375 13.3513184,7.85683594 C13.3288574,7.89980469 13.3083496,7.94277344 13.2897949,7.98671875 C13.2721191,8.03066406 13.2555176,8.0765625 13.2419434,8.12148437 C13.2272949,8.16738281 13.2154785,8.21425781 13.2067871,8.26113281 C13.1970215,8.30800781 13.1901855,8.35585937 13.1853027,8.40371094 C13.1804199,8.45058594 13.1774902,8.49941406 13.1774902,8.54726562 C13.1774902,8.59511719 13.1804199,8.64394531 13.1853027,8.69179687 C13.1901855,8.73867187 13.1970215,8.78652344 13.2067871,8.83339844 C13.2155762,8.88027344 13.2272949,8.92714844 13.2419434,8.97304687 C13.2556152,9.01796875 13.2722168,9.06386719 13.2897949,9.1078125 C13.308252,9.15175781 13.3287598,9.19472656 13.3513184,9.23671875 C13.3736816,9.2796875 13.3980957,9.32070312 13.4245605,9.36074219 C13.4509277,9.39980469 13.480127,9.43886719 13.510498,9.47597656 C13.5407715,9.51308594 13.572998,9.54921875 13.6071777,9.58339844 C13.6403809,9.61660156 13.6765137,9.64980469 13.713623,9.68007812 C13.7507324,9.71035156 13.7897949,9.73867187 13.8297363,9.76503906 C13.8687988,9.79140625 13.910791,9.81582031 13.9528809,9.83828125 C13.994873,9.86074219 14.0377441,9.88125 14.0816895,9.89980469 C14.1266113,9.91835937 14.1715332,9.93496094 14.2175293,9.94863281 C14.2624512,9.96230469 14.3092285,9.97402344 14.3562012,9.98378906 C14.4029785,9.99257812 14.4509277,10.0003906 14.4987793,10.0052734 C14.5466309,10.0101562 14.5943848,10.0121094 14.642334,10.0121094 C14.6902832,10.0121094 14.7390137,10.0101562 14.7868652,10.0052734 C14.8336426,10.0003906 14.8815918,9.99257812 14.9283691,9.98378906 C14.9752441,9.97402344 15.0221191,9.96230469 15.0681152,9.94863281 C15.1130371,9.93496094 15.1589355,9.91835937 15.2028809,9.89980469 C15.2468262,9.88125 15.2906738,9.86074219 15.3327637,9.83828125 C15.3747559,9.81582031 15.4157715,9.79140625 15.4558105,9.76503906 C15.4958496,9.73867187 15.5349121,9.71035156 15.5710449,9.68007812 C15.6081543,9.64980469 15.6442871,9.61660156 15.6785645,9.58339844 C15.7117676,9.54921875 15.7449707,9.51308594 15.7751465,9.47597656 C15.8055176,9.43886719 15.8338379,9.39980469 15.8601074,9.36074219 C15.8865723,9.32070312 15.9118652,9.2796875 15.9333496,9.23671875 C15.9558105,9.19472656 15.9772949,9.15175781 15.994873,9.1078125 C16.0134277,9.06386719 16.0300293,9.01796875 16.0437012,8.97304687 C16.0574707,8.92714844 16.0691895,8.88027344 16.0788574,8.83339844 C16.0876465,8.78652344 16.095459,8.73867187 16.1003418,8.69179687 C16.1053223,8.64394531 16.1071777,8.59511719 16.1071777,8.54726562 C16.1071777,8.49941406 16.1053223,8.45058594 16.1004395,8.40371094 Z" id="Path" fill="#252A34" fill-rule="nonzero"></path>
        <path d="M12.6918457,28.8137695 L18.667627,22.8378906 C19.2397949,22.2657227 19.2397949,21.3380859 18.667627,20.765918 C18.0955566,20.19375 17.1678223,20.19375 16.5956543,20.765918 L9.6487793,27.7129883 C9.34614258,28.015625 9.20522461,28.4174805 9.22270508,28.8137695 C9.20522461,29.2100586 9.34614258,29.6120117 9.6487793,29.9145508 L16.5958496,36.8615234 C16.8819824,37.1476563 17.2568848,37.2907227 17.6317871,37.2907227 C18.0066895,37.2907227 18.3817871,37.1476563 18.6677246,36.8615234 C19.2398926,36.2894531 19.2398926,35.3617188 18.6677246,34.7895508 L12.6918457,28.8137695 Z" id="Path" fill="#08D9D6" fill-rule="nonzero"></path>
        <path d="M40.0775879,27.7006836 L33.1305176,20.7537109 C32.5584473,20.181543 31.6307129,20.181543 31.0585449,20.7537109 C30.486377,21.3258789 30.486377,22.2535156 31.0585449,22.8256836 L37.0344238,28.8015625 L31.0585449,34.7774414 C30.4864746,35.3495117 30.4864746,36.2772461 31.0586426,36.8494141 C31.3447754,37.1355469 31.7196777,37.2786133 32.0945801,37.2786133 C32.4694824,37.2786133 32.8444824,37.1355469 33.1305176,36.8494141 L40.0775879,29.9024414 C40.3802246,29.5998047 40.5211426,29.1979492 40.5036621,28.8016602 C40.5211426,28.4051758 40.380127,28.0032227 40.0775879,27.7006836 Z" id="Path" fill="#08D9D6" fill-rule="nonzero"></path>
        <path d="M27.7496582,17.1354492 C26.9686035,16.9239258 26.1640137,17.3857422 25.9526855,18.1666992 L20.5171387,38.2412109 C20.3057129,39.0223633 20.767334,39.8268555 21.5483887,40.0383789 C21.6766113,40.0730469 21.8054199,40.0896484 21.9321777,40.0896484 C22.5774902,40.0896484 23.1687012,39.6598633 23.3455566,39.0071289 L28.7811035,18.9326172 C28.9924316,18.1514648 28.5307129,17.3469727 27.7496582,17.1354492 Z" id="Path" fill="#252A34" fill-rule="nonzero"></path>
    </g>
</svg>